<?xml version="1.0" standalone="no"?>
<!DOCTYPE svg PUBLIC "-//W3C//DTD SVG 20010904//EN"
 "http://www.w3.org/TR/2001/REC-SVG-20010904/DTD/svg10.dtd">
<svg version="1.0" xmlns="http://www.w3.org/2000/svg"
 width="1920.000000pt" height="500.000000pt" viewBox="0 0 1920.000000 500.000000"
 preserveAspectRatio="xMidYMid meet">
<metadata>
Created by potrace 1.15, written by Peter Selinger 2001-2017
</metadata>
<g transform="translate(0.000000,500.000000) scale(0.100000,-0.100000)"
fill="#000000" stroke="none">
<path d="M0 2500 l0 -2501 138 3 137 3 3 33 c3 31 -15 62 -36 62 -13 0 -22 25
-22 57 0 34 71 103 105 103 14 0 34 -9 45 -20 17 -17 20 -33 20 -118 0 -63 4
-102 12 -110 7 -7 34 -12 60 -12 37 0 50 4 55 18 4 9 12 22 19 27 16 14 22 79
8 92 -6 6 -20 13 -30 15 -14 2 -20 13 -22 38 -3 41 0 45 54 88 47 36 60 39 92
16 19 -13 22 -24 22 -78 0 -102 10 -156 29 -156 22 0 41 -19 41 -42 0 -15 8
-18 43 -18 l42 0 -31 19 c-44 27 -61 96 -44 177 11 50 20 65 66 111 60 58 86
69 127 54 45 -17 35 -74 -16 -86 -34 -9 -35 -25 -2 -25 14 0 38 -13 55 -30 25
-24 30 -37 30 -77 0 -58 -31 -107 -80 -127 -31 -13 1080 -15 9123 -15 l9157
-1 0 2500 0 2500 -7452 -4 c-4099 -2 -7479 -7 -7510 -11 -40 -5 -58 -3 -58 4
0 17 -76 13 -90 -4 -7 -8 -27 -15 -46 -15 -31 0 -33 -2 -36 -37 -3 -33 -7 -38
-30 -41 -28 -3 -28 -2 -28 52 0 55 -1 56 -28 56 -16 0 -37 -9 -47 -20 -14 -16
-31 -20 -77 -20 -51 0 -61 3 -65 20 -3 13 -14 20 -29 20 -17 0 -24 -6 -24 -20
0 -16 -7 -20 -30 -20 -16 0 -30 5 -30 10 0 6 -7 10 -15 10 -8 0 -15 5 -15 10
0 7 -462 10 -1366 10 -1466 0 -1383 3 -1399 -50 -13 -46 -47 -110 -55 -105 -4
3 -10 -2 -14 -10 -7 -19 -40 -20 -55 -1 -13 15 -2 57 30 117 10 20 19 39 19
43 0 3 -26 6 -59 6 l-59 0 -4 -63 c-5 -89 -45 -127 -135 -127 -42 0 -54 5 -86
35 -35 33 -37 39 -37 95 l0 60 -40 0 c-37 0 -40 -2 -40 -29 0 -64 11 -90 41
-96 22 -5 29 -12 29 -30 0 -39 -24 -48 -122 -49 -74 -1 -92 2 -101 16 -9 13
-4 24 26 57 31 35 37 48 37 86 l0 45 -100 0 -100 0 0 -2500z m3463 2236 c7
-17 -3 -52 -33 -121 -12 -27 -27 -63 -34 -80 -8 -16 -25 -57 -38 -90 -21 -50
-30 -61 -51 -63 -21 -3 -27 1 -27 15 0 16 44 133 70 188 5 11 19 47 31 80 21
59 41 85 65 85 6 0 14 -6 17 -14z m337 -34 c0 -5 21 -24 48 -42 26 -19 50 -39
54 -44 13 -19 9 -56 -8 -63 -8 -3 -36 -25 -62 -49 -46 -43 -75 -54 -87 -34 -9
14 24 66 51 81 26 14 40 42 24 47 -15 5 -80 68 -80 77 0 11 32 34 48 35 6 0
12 -4 12 -8z m-572 -45 c2 -12 -12 -34 -39 -59 -45 -43 -46 -62 -1 -83 26 -12
47 -48 39 -69 -7 -17 -57 -22 -57 -6 0 6 -7 10 -15 10 -7 0 -18 6 -22 13 -4 7
-25 21 -45 32 -48 25 -50 54 -5 93 17 16 48 43 67 61 38 33 73 37 78 8z m439
2 c21 -20 23 -31 23 -106 0 -98 1 -97 -104 -97 l-70 -1 -9 32 c-8 26 -6 39 10
66 18 30 19 35 5 44 -14 8 -13 13 7 39 37 48 100 58 138 23z m-2799 -56 c23
-26 31 -94 12 -123 -6 -9 -5 -17 2 -21 6 -4 13 -31 16 -61 4 -50 2 -57 -28
-86 -31 -32 -43 -35 -128 -35 -38 0 -69 25 -88 68 l-12 30 -7 -27 c-4 -15 -23
-41 -41 -58 -30 -26 -43 -30 -89 -30 -48 0 -60 4 -91 33 -41 37 -51 86 -40
180 6 44 14 62 41 90 19 19 50 41 70 47 47 16 106 5 112 -21 3 -10 9 -16 14
-13 5 3 14 -7 20 -22 l10 -28 19 30 c33 49 75 72 133 72 41 -1 57 -6 75 -25z
m-576 -18 c4 -5 8 -62 8 -126 0 -122 3 -132 50 -133 17 -1 25 -44 11 -66 -8
-11 -35 -14 -118 -15 -97 0 -108 2 -111 19 -3 12 9 29 32 48 34 28 36 33 36
89 0 59 0 59 -30 59 -69 0 -49 79 31 118 44 22 79 24 91 7z m6451 -237 c9 -34
-19 -78 -51 -79 -64 -2 -81 -11 -62 -34 8 -9 29 -15 56 -15 44 0 58 -12 28
-24 -9 -3 -35 -6 -59 -6 -37 0 -44 3 -54 28 -14 35 0 96 30 128 31 33 104 35
112 2z m-573 -33 c0 -8 5 -15 10 -15 6 0 10 -16 10 -35 0 -19 -4 -35 -10 -35
-5 0 -10 -10 -10 -22 0 -13 -11 -30 -23 -39 -30 -22 -107 -31 -107 -14 0 8 -5
15 -12 17 -13 5 -19 68 -7 68 4 0 10 14 14 30 4 17 10 28 14 26 4 -3 14 4 21
15 18 24 100 28 100 4z m-375 -44 c-3 -20 -9 -58 -12 -86 -5 -46 -15 -64 -35
-65 -5 0 -8 8 -8 17 0 15 -1 15 -12 1 -22 -27 -68 -32 -89 -9 -20 21 -27 77
-9 66 6 -4 10 6 10 23 0 54 46 87 121 88 l41 0 -7 -35z m-2388 -116 c1 -44 5
-99 8 -122 5 -37 10 -43 30 -43 13 0 27 -5 31 -11 14 -23 -22 -37 -101 -41
-74 -3 -80 -2 -80 17 0 14 8 21 30 25 29 5 30 7 30 60 0 53 -1 55 -29 60 -17
3 -29 8 -28 13 1 4 2 11 2 17 0 5 11 13 26 16 22 6 24 10 19 36 -8 35 10 60
39 56 19 -3 21 -10 23 -83z m-167 -80 l0 -142 -52 -7 c-91 -10 -102 -8 -121
23 -9 16 -17 50 -17 75 0 56 37 104 90 115 29 6 35 11 38 36 4 33 27 56 48 48
11 -4 14 -35 14 -148z m-230 116 c0 -10 -14 -52 -31 -92 -17 -41 -45 -110 -62
-154 -18 -44 -36 -86 -40 -92 -10 -15 -43 -17 -52 -4 -3 6 13 54 36 108 22 54
52 127 65 162 13 36 29 70 35 78 17 20 49 16 49 -6z m900 -103 c0 -16 -5 -28
-11 -28 -10 0 -32 -18 -90 -72 -22 -21 -59 -24 -59 -5 0 12 31 48 69 79 26 22
27 36 4 45 -23 9 -73 58 -73 72 0 5 8 14 17 19 13 8 31 -1 79 -37 51 -37 63
-52 64 -73z m-204 71 c3 -6 2 -21 -4 -32 -5 -12 -23 -53 -38 -92 -15 -38 -28
-70 -28 -71 -1 -1 -14 -4 -29 -8 -26 -6 -29 -3 -57 56 -17 35 -30 68 -30 75 0
6 -8 19 -17 29 -16 15 -16 17 2 30 10 8 24 14 30 14 11 0 37 -50 50 -98 9 -31
28 -23 42 19 26 77 33 89 52 89 11 0 23 -5 27 -11z m-952 -25 c27 -10 18 -31
-30 -78 l-47 -44 23 -19 c24 -19 47 -42 67 -66 8 -11 9 -17 0 -26 -18 -18 -36
-13 -86 23 -25 18 -56 37 -68 40 -30 9 -31 50 -2 74 12 9 28 24 37 32 14 14
85 69 89 70 1 0 8 -3 17 -6z m-1918 -56 c3 -4 10 -6 15 -3 5 4 12 -2 16 -12 4
-10 14 -23 22 -29 11 -9 15 -34 15 -107 l1 -96 -40 -41 c-54 -56 -147 -79
-175 -44 -11 13 -10 19 9 37 12 12 36 27 53 33 44 15 48 34 6 34 -18 0 -44 8
-58 17 -18 13 -25 14 -28 4 -3 -10 -6 -10 -12 -1 -4 6 -10 -11 -14 -39 -10
-74 -65 -121 -144 -121 -39 0 -100 40 -112 73 -18 54 -13 168 11 206 38 62 66
78 135 77 40 -1 57 -6 77 -26 15 -14 27 -31 27 -37 0 -7 20 7 44 31 24 25 54
46 67 48 40 7 79 5 85 -4z m-538 -46 c8 -11 12 -53 12 -128 0 -93 3 -113 16
-118 9 -3 20 -4 24 -1 17 10 33 -36 22 -60 -11 -23 -57 -34 -168 -37 -72 -2
-84 26 -33 76 16 17 32 40 35 52 9 35 -1 89 -17 90 -8 0 -24 2 -36 2 -17 2
-23 8 -23 25 0 32 26 65 77 97 46 29 68 30 91 2z m590 -517 c26 -26 27 -31 27
-139 l0 -112 -32 -31 c-41 -40 -120 -54 -159 -28 -59 39 -64 49 -64 143 0 74
4 93 24 126 46 76 148 97 204 41z m6397 5 c23 -37 14 -98 -22 -140 -33 -40
-93 -43 -113 -6 -17 33 -6 85 28 124 21 25 35 32 64 32 20 0 40 -4 43 -10z
m-6701 -61 c3 -34 6 -93 6 -130 0 -54 3 -69 15 -70 8 -1 21 -2 28 -3 6 0 13
-16 15 -34 4 -40 -11 -46 -121 -56 -114 -10 -134 12 -72 78 30 32 35 44 35 87
0 47 -1 49 -27 49 -65 1 -66 46 -3 102 33 30 51 38 80 38 l37 0 7 -61z m-274
34 c2 -2 7 -59 10 -126 5 -116 6 -122 27 -125 30 -4 46 -27 39 -56 -6 -26 -18
-32 -81 -40 -82 -12 -137 -10 -146 5 -14 23 -11 34 21 65 25 25 29 37 30 82 0
45 -3 52 -19 52 -36 0 -51 12 -51 39 1 32 23 60 75 94 36 23 75 27 95 10z
m6080 9 c0 -11 -34 -22 -65 -22 -30 0 -60 -37 -44 -56 6 -8 18 -14 25 -14 8 0
14 -4 14 -10 0 -5 11 -12 25 -16 22 -5 25 -12 25 -47 0 -50 -35 -87 -84 -88
-17 0 -41 -2 -53 -3 -14 -2 -23 3 -23 11 0 7 3 13 8 14 50 3 98 14 104 23 13
19 9 56 -6 56 -8 0 -16 4 -18 9 -1 5 -10 11 -18 13 -8 2 -21 11 -28 21 -18 23
-7 87 13 87 8 0 15 6 15 13 0 9 17 14 55 16 30 1 55 -2 55 -7z m171 -64 c10
-18 -5 -68 -24 -80 -7 -4 -25 -8 -42 -8 -16 0 -36 -4 -44 -9 -22 -14 12 -43
47 -41 48 4 56 1 43 -13 -6 -7 -32 -14 -58 -16 -43 -2 -50 1 -65 27 -15 24
-15 33 -4 65 22 65 65 96 125 92 7 -1 17 -9 22 -17z m-1221 -76 c0 -26 2 -27
41 -24 32 3 40 1 37 -9 -3 -8 -20 -15 -38 -17 -44 -5 -59 -26 -60 -84 l0 -48
35 0 c42 0 47 -17 8 -25 -56 -12 -61 -12 -72 -5 -15 9 -18 62 -8 113 7 33 6
37 -13 37 -11 0 -20 7 -20 15 0 9 9 15 25 15 20 0 25 5 25 24 0 22 10 33 33
35 4 1 7 -11 7 -27z m450 3 c0 -8 5 -15 10 -15 6 0 10 -9 10 -19 0 -11 -4 -23
-10 -26 -5 -3 -10 -28 -10 -54 0 -41 -3 -50 -20 -54 -19 -5 -21 -1 -19 44 2
27 6 49 11 49 14 0 9 48 -6 53 -31 12 -77 -59 -88 -137 -5 -30 -38 -30 -38 0
0 13 5 24 10 24 6 0 10 28 10 64 0 50 4 65 17 70 9 4 20 1 25 -6 6 -11 8 -10
8 0 0 7 3 11 8 9 4 -3 16 -1 27 4 32 12 55 10 55 -6z m-990 -32 c0 -19 -3 -23
-12 -16 -11 8 -42 9 -81 4 -5 -1 -6 -5 -2 -10 3 -6 -1 -14 -10 -18 -19 -11
-51 -133 -38 -142 5 -3 12 -14 16 -23 4 -13 16 -17 39 -15 31 2 38 -2 38 -20
0 -5 -21 -9 -46 -11 -40 -3 -49 1 -70 25 -15 18 -24 41 -24 62 0 41 20 111 32
111 4 0 8 5 8 12 0 25 61 63 106 65 41 2 44 1 44 -24z m790 13 c0 -8 5 -16 10
-18 15 -5 -11 -67 -30 -73 -8 -2 -32 -7 -54 -9 -47 -6 -50 -9 -36 -33 9 -14
21 -17 61 -15 29 3 49 0 49 -6 0 -27 -111 -33 -140 -7 -21 19 -27 59 -10 70 6
3 10 15 10 26 0 22 31 56 61 67 38 14 79 13 79 -2z m-1190 -43 c0 -7 -4 -13
-9 -13 -5 0 -11 -26 -14 -57 -9 -107 -30 -188 -49 -191 -10 -2 -18 3 -18 10 0
11 -2 11 -8 0 -5 -7 -30 -15 -55 -18 -39 -5 -47 -3 -47 10 0 9 -4 16 -10 16
-5 0 -10 16 -10 35 0 19 5 35 10 35 6 0 10 11 10 25 0 14 7 28 15 31 8 4 15
12 15 20 0 8 3 13 8 12 4 0 14 1 22 5 8 3 27 8 43 11 20 5 32 17 44 45 11 26
23 39 35 38 10 -1 18 -7 18 -14z m790 0 c0 -7 5 -13 10 -13 6 0 10 -11 10 -25
0 -14 -4 -25 -10 -25 -5 0 -10 -22 -10 -50 0 -27 -2 -50 -4 -50 -2 0 -11 -3
-20 -6 -13 -5 -16 2 -16 35 0 23 4 41 8 41 16 0 13 67 -3 73 -21 9 -61 -32
-69 -70 -4 -18 -11 -33 -16 -33 -4 0 -8 -6 -7 -12 1 -36 -5 -48 -23 -48 -21 0
-28 28 -10 46 5 5 11 37 12 71 2 49 7 63 20 66 10 3 21 1 24 -4 3 -5 11 -3 19
4 17 18 85 18 85 0z m-210 -20 c0 -7 4 -13 9 -13 31 0 9 -102 -31 -142 -30
-30 -104 -37 -123 -12 -39 51 2 147 73 175 28 10 72 6 72 -8z m-852 -73 c4 0
13 -9 20 -20 16 -26 -13 -89 -43 -90 -26 -2 -66 -9 -84 -15 -11 -4 -11 -8 -1
-20 8 -10 30 -15 61 -15 26 0 50 -4 54 -9 7 -12 -58 -31 -107 -31 -29 0 -38 4
-44 23 -4 12 -11 25 -16 28 -16 10 20 100 49 125 27 23 65 34 91 27 8 -1 17
-3 20 -3z m-706 -32 c2 -18 10 -23 36 -24 47 -1 63 -20 28 -34 -15 -5 -38 -10
-51 -10 -25 0 -25 -2 -40 -73 -6 -29 5 -47 29 -47 26 0 63 -24 50 -32 -5 -4
-29 -9 -54 -13 -38 -6 -48 -3 -64 14 -18 20 -19 64 -1 119 6 19 4 22 -19 22
-36 0 -34 28 4 41 17 6 30 16 30 23 0 16 21 36 36 36 7 0 14 -10 16 -22z m523
-34 c0 -22 -5 -30 -22 -32 -19 -3 -23 1 -23 22 0 30 -19 34 -40 9 -35 -41 -50
-69 -50 -93 0 -27 -25 -70 -41 -70 -21 0 -2 167 23 197 8 10 14 10 24 2 10 -8
18 -8 27 -1 40 33 102 12 102 -34z m-1127 11 c-2 -15 -11 -21 -38 -23 -59 -4
-77 -11 -83 -31 -8 -31 9 -45 52 -44 33 0 41 -3 41 -18 0 -14 -11 -20 -51 -25
-28 -4 -52 -12 -54 -18 -33 -123 -36 -130 -60 -134 -16 -4 -17 2 -12 55 8 85
36 226 47 237 11 11 82 24 128 23 27 -1 32 -5 30 -22z m906 -12 c-3 -16 -11
-59 -17 -98 -12 -66 -14 -69 -43 -72 -16 -1 -50 -5 -75 -8 -43 -6 -47 -4 -53
18 -14 58 15 180 43 175 12 -3 15 -13 12 -48 -1 -25 -7 -53 -13 -64 -7 -13 -6
-22 6 -34 14 -14 17 -14 36 3 27 24 49 70 56 117 6 31 11 38 30 38 20 0 23 -4
18 -27z m-448 -35 c-4 -13 -12 -58 -18 -102 l-11 -78 -33 5 c-19 3 -34 2 -34
-3 0 -4 -18 -11 -40 -15 -35 -6 -43 -4 -59 16 -10 13 -17 33 -15 44 3 11 8 35
11 54 11 63 66 101 146 101 57 0 59 -1 53 -22z m-264 -10 c47 -37 8 -118 -57
-118 -43 0 -65 -9 -65 -26 0 -16 8 -18 66 -15 42 3 65 -12 47 -30 -5 -5 -36
-12 -69 -15 -52 -5 -61 -3 -79 15 -38 43 -11 142 48 180 36 23 85 27 109 9z
m-962 -32 c0 -19 -5 -36 -11 -38 -6 -2 -14 -28 -17 -58 -3 -32 -11 -58 -19
-63 -10 -6 -12 -21 -7 -57 6 -47 5 -49 -19 -55 -14 -4 -31 -4 -36 0 -14 8 -14
38 1 53 6 6 12 31 13 54 7 139 28 198 70 198 22 0 25 -4 25 -34z m-210 -65 c0
-15 -47 -61 -86 -84 -23 -13 -16 -34 21 -70 64 -62 31 -101 -39 -47 -23 17
-53 36 -68 43 -52 21 -34 55 67 127 89 64 105 69 105 31z m-989 -12 c5 -8 9
-62 9 -121 0 -94 2 -108 19 -117 10 -6 21 -8 23 -5 12 11 30 -27 24 -50 -7
-30 -43 -39 -151 -40 -64 -1 -70 1 -73 21 -2 14 8 32 32 54 36 32 41 50 30
106 -5 24 -10 29 -28 26 -13 -3 -30 3 -39 12 -15 15 -15 19 -2 44 18 35 100
92 127 87 11 -1 24 -9 29 -17z m-260 -28 c1 -9 4 -65 8 -126 l6 -110 27 -3
c16 -2 30 -11 33 -22 6 -20 -12 -66 -22 -56 -4 3 -11 2 -17 -3 -6 -5 -47 -12
-91 -16 -71 -6 -82 -4 -97 12 -16 17 -15 21 23 61 29 32 39 51 39 77 0 40 -9
67 -21 60 -16 -11 -59 7 -59 25 0 28 43 83 83 106 42 23 86 21 88 -5z m-271
-20 c5 -11 10 -67 10 -126 l0 -106 36 -15 c30 -12 35 -19 32 -42 -4 -38 -42
-52 -145 -55 -78 -2 -88 0 -91 16 -2 11 10 36 27 57 24 31 31 48 31 84 0 43
-2 46 -32 54 -61 15 -48 70 28 121 54 36 89 39 104 12z m6049 -427 c12 -15 21
-37 21 -50 0 -24 -8 -28 -72 -40 -58 -10 -50 -34 12 -34 37 0 50 -4 50 -15 0
-9 -14 -16 -37 -20 -21 -3 -46 -8 -55 -10 -18 -3 -68 46 -68 67 0 22 24 88 32
88 4 0 8 6 8 14 0 13 20 20 72 25 9 0 26 -11 37 -25z m-195 -10 c12 -11 16
-36 16 -95 0 -72 -2 -79 -20 -79 -18 0 -20 7 -20 65 0 49 -4 67 -15 71 -28 11
-45 -21 -45 -86 0 -58 -1 -61 -22 -58 -22 3 -23 7 -23 88 l0 85 55 11 c30 7
56 12 57 13 1 0 9 -6 17 -15z m-5268 -59 c32 -35 38 -122 11 -149 -9 -10 -17
-23 -17 -31 0 -7 -7 -15 -15 -19 -26 -10 -16 -25 18 -28 28 -3 32 -7 35 -36 4
-39 -6 -43 -124 -62 -61 -9 -87 -9 -103 -1 -37 20 -25 51 66 156 29 34 43 59
43 78 0 26 -3 28 -22 22 -13 -4 -38 -9 -55 -12 -30 -5 -33 -3 -33 20 0 83 137
126 196 62z m4624 15 c0 -21 7 -23 52 -20 25 1 46 -15 34 -27 -3 -3 -23 -9
-43 -12 -34 -6 -38 -9 -41 -40 -5 -46 15 -82 42 -77 12 2 30 0 41 -4 19 -7 19
-7 0 -17 -11 -6 -39 -14 -62 -18 -36 -6 -43 -4 -43 9 0 9 -4 16 -10 16 -5 0
-10 26 -12 58 -3 50 -6 57 -25 60 -28 4 -30 28 -3 37 11 3 20 14 20 24 0 23 9
31 32 31 11 0 18 -7 18 -20z m274 -102 l1 -72 -55 -11 c-78 -15 -83 -14 -93
22 -12 41 12 83 47 83 35 0 56 10 56 26 0 19 -47 18 -66 -1 -9 -8 -20 -15 -25
-15 -5 0 -9 7 -9 15 0 8 5 15 10 15 6 0 10 6 10 14 0 9 16 18 43 24 64 14 80
-7 81 -100z m-5205 77 c3 -4 8 -58 9 -121 3 -100 6 -115 23 -124 10 -6 19 -8
19 -4 0 3 7 1 15 -6 18 -15 20 -54 3 -68 -20 -15 -162 -35 -201 -28 -44 8 -42
22 6 78 32 36 37 49 36 84 -3 41 -4 42 -42 48 -39 7 -39 7 -32 42 6 35 48 83
71 84 6 0 17 7 24 15 12 14 54 14 69 0z m-267 -38 c4 -6 8 -57 8 -112 0 -55 4
-105 8 -112 4 -6 20 -16 35 -22 21 -8 27 -17 27 -40 0 -33 -23 -45 -105 -57
-131 -20 -157 -4 -109 67 39 58 44 72 35 105 -5 20 -16 30 -37 36 -21 5 -30
14 -31 29 -3 39 36 91 78 104 11 4 19 11 19 17 0 14 62 2 72 -15z m5073 -19
c3 -18 5 -60 3 -93 -2 -45 -7 -60 -18 -60 -19 0 -28 27 -29 93 -1 56 -11 64
-43 35 -14 -12 -18 -31 -18 -80 0 -56 -2 -63 -20 -63 -16 0 -20 7 -22 38 -4
88 -4 132 1 141 7 11 42 18 98 20 40 1 42 -1 48 -31z m-204 -20 c39 -39 39
-82 -1 -129 -53 -66 -132 -60 -158 11 -19 52 25 134 78 142 45 7 52 5 81 -24z
m-203 -15 c-2 -12 -14 -19 -33 -21 -40 -5 -65 -34 -65 -76 0 -39 18 -50 68
-41 61 10 48 -29 -13 -42 -44 -10 -75 -7 -75 8 0 5 -7 9 -15 9 -12 0 -15 14
-15 63 0 51 4 66 21 80 28 25 58 36 97 36 27 1 33 -3 30 -16z m-1331 -104 c15
-211 13 -199 38 -199 30 0 42 -18 24 -35 -14 -13 -155 -36 -164 -27 -16 16 -2
41 25 47 l31 7 -3 91 -3 92 -27 3 c-35 4 -39 39 -5 46 55 12 63 13 72 12 6 -2
11 -18 12 -37z m692 32 c21 -13 6 -28 -36 -36 -21 -4 -41 -9 -45 -11 -15 -10
17 -30 39 -26 16 3 30 -3 43 -18 25 -29 25 -48 -1 -79 -16 -20 -32 -26 -80
-29 -50 -4 -59 -2 -59 12 0 20 19 27 93 35 4 1 7 8 7 16 0 10 -11 15 -35 15
-19 0 -35 5 -35 10 0 6 -7 10 -15 10 -21 0 -19 49 3 77 22 28 92 42 121 24z
m251 0 c0 -5 -8 -14 -17 -20 -17 -9 -17 -11 2 -25 17 -14 18 -17 5 -26 -8 -5
-23 -10 -32 -11 -10 -1 -21 -2 -25 -3 -42 -10 -105 -16 -113 -11 -13 8 -1 35
16 35 8 0 14 4 14 10 0 5 -6 7 -14 4 -8 -3 -17 -1 -20 4 -12 20 6 41 37 44 86
9 147 8 147 -1z m-460 -36 c0 -9 -17 -20 -45 -27 -48 -13 -55 -31 -14 -36 46
-5 69 -24 69 -54 0 -46 -28 -67 -98 -74 -53 -6 -62 -4 -62 9 0 11 15 20 43 27
23 6 48 13 55 15 22 8 3 25 -28 25 -60 0 -88 53 -52 96 23 27 37 32 90 33 31
1 42 -3 42 -14z m-223 -27 c20 -19 23 -31 23 -92 0 -39 -4 -77 -8 -83 -4 -7
-40 -15 -79 -19 -66 -6 -72 -5 -83 16 -14 26 -7 62 16 85 15 15 15 17 -1 29
-17 12 -17 14 1 39 11 16 35 30 59 36 22 5 42 9 44 10 3 1 15 -9 28 -21z
m7143 -38 c13 -9 12 -13 -7 -29 -20 -16 -23 -29 -23 -86 0 -70 -12 -105 -35
-105 -23 0 -32 31 -28 98 3 51 1 62 -12 62 -12 0 -15 -14 -15 -79 0 -59 -4
-84 -16 -95 -19 -19 -26 -20 -42 -4 -9 9 -16 7 -31 -6 -10 -9 -25 -16 -33 -15
-7 2 -22 -2 -33 -7 -31 -17 -79 -24 -95 -14 -11 7 -15 30 -15 85 0 41 -3 75
-7 75 -5 0 -12 0 -18 0 -6 0 -10 -30 -10 -71 0 -78 -11 -109 -39 -109 -23 0
-31 26 -31 102 0 86 -17 79 -25 -9 -9 -107 -8 -105 -27 -117 -13 -8 -22 -6
-37 8 -18 17 -19 17 -26 -4 -6 -18 -12 -21 -36 -16 -18 3 -33 0 -42 -9 -25
-24 -63 -28 -91 -10 -14 10 -26 13 -26 7 0 -32 -74 -56 -106 -34 -37 24 -45
116 -16 170 26 50 64 70 104 54 29 -10 34 -9 56 11 15 14 39 23 65 25 95 6
125 11 188 35 36 14 77 23 91 20 14 -3 39 2 56 11 17 9 46 16 64 15 58 -2 142
13 178 31 39 20 97 25 120 10z m-8309 -65 c4 -33 7 -86 8 -117 1 -32 6 -59 11
-59 6 -1 15 -2 21 -3 20 -2 35 -34 23 -46 -14 -14 -158 -34 -180 -26 -21 8 -1
44 32 56 23 9 25 15 22 57 -3 44 -5 48 -30 51 -16 2 -28 9 -28 17 0 16 27 45
42 45 6 0 8 11 5 26 -5 31 24 67 51 62 13 -2 19 -18 23 -63z m739 45 c0 -14
-9 -21 -37 -26 -51 -9 -73 -30 -73 -70 0 -40 12 -48 66 -45 86 4 63 -44 -26
-55 -47 -5 -58 -3 -77 15 -18 18 -23 33 -23 76 0 47 4 60 28 84 33 34 45 39
100 40 35 1 42 -2 42 -19z m-916 -47 c10 -64 7 -251 -5 -258 -5 -4 -20 -8 -32
-10 -12 -2 -43 -6 -68 -10 -55 -9 -85 11 -95 62 -14 76 30 154 96 168 21 5 30
13 30 26 0 30 23 59 46 59 17 0 23 -8 28 -37z m476 7 c17 -9 18 -13 5 -38 -7
-15 -18 -38 -23 -52 -48 -123 -52 -130 -89 -130 -17 0 -31 18 -67 86 -37 72
-43 90 -33 105 16 25 48 24 54 -1 3 -11 9 -20 14 -20 4 0 11 -15 15 -34 9 -52
31 -53 45 -3 14 54 37 97 50 97 6 0 19 -5 29 -10z m-727 -68 c3 7 6 3 6 -9 1
-13 -3 -23 -9 -23 -5 0 -10 -6 -10 -13 0 -7 -13 -23 -30 -37 -38 -31 -38 -52
0 -68 16 -7 32 -22 35 -33 4 -11 11 -17 16 -14 5 4 9 -1 9 -9 0 -8 -9 -20 -21
-26 -22 -12 -53 -1 -114 40 -16 11 -38 20 -47 20 -13 0 -18 8 -18 26 0 26 60
93 125 141 26 19 31 20 41 7 10 -12 13 -12 17 -2z m5985 -115 l-3 -111 -50
-12 c-43 -11 -52 -11 -67 3 -42 38 -9 157 45 165 16 2 23 11 25 33 4 33 18 46
39 38 11 -4 13 -30 11 -116z m-2488 29 c0 -36 -4 -68 -10 -71 -5 -3 -10 -17
-10 -30 0 -36 -30 -40 -57 -9 -17 20 -23 23 -23 11 0 -10 -4 -17 -10 -17 -5 0
-10 -7 -10 -16 0 -10 -7 -14 -22 -12 -16 2 -25 15 -35 51 -14 49 -29 65 -21
22 7 -36 -46 -91 -95 -100 -33 -6 -41 -4 -63 21 -22 23 -25 34 -21 73 3 24 12
50 21 56 9 7 16 17 16 24 0 6 3 11 8 11 4 1 24 3 44 6 31 5 42 1 65 -20 l28
-26 3 30 c2 21 9 30 21 30 20 0 31 -26 31 -72 0 -16 4 -28 9 -28 5 0 11 12 13
28 4 35 48 46 48 12 0 -41 25 -14 28 31 3 40 14 58 35 59 4 0 7 -29 7 -64z
m4154 -16 c23 -22 32 -97 17 -142 -17 -52 -52 -80 -103 -83 -24 -1 -56 -8 -73
-14 -16 -7 -47 -13 -70 -15 -22 -1 -48 -6 -58 -10 -19 -9 -47 9 -47 30 0 8 -4
14 -10 14 -5 0 -10 -11 -10 -25 0 -31 -33 -51 -50 -30 -11 13 -16 11 -42 -10
-34 -29 -73 -32 -100 -8 -14 13 -18 31 -18 90 0 66 -2 74 -17 71 -15 -3 -18
-15 -20 -68 -4 -93 -11 -127 -30 -134 -32 -13 -43 13 -43 100 0 78 -1 84 -21
84 -15 0 -20 5 -17 23 4 26 62 45 145 46 l52 1 3 -82 c2 -66 6 -83 18 -83 12
0 16 18 18 87 3 86 3 88 30 94 15 3 41 12 59 20 43 19 66 18 97 -7 l26 -20 0
20 c0 30 43 54 87 49 24 -3 53 2 78 13 43 20 70 17 99 -11z m-9101 -2 c29 -17
37 -28 38 -58 0 -23 1 -23 9 -5 7 16 9 14 9 -15 1 -26 -2 -31 -9 -20 -7 11
-10 8 -10 -16 0 -19 6 -34 15 -38 11 -4 15 -21 15 -63 0 -53 -3 -60 -36 -89
-53 -47 -150 -68 -186 -40 -18 14 -26 42 -8 31 5 -3 16 5 25 19 11 16 30 27
55 31 25 4 40 13 43 25 6 24 0 30 -32 30 -14 0 -32 4 -39 9 -19 11 -5 57 24
80 30 24 30 30 1 27 -13 -2 -33 1 -46 6 -18 6 -21 13 -16 30 12 39 35 57 79
61 22 2 42 4 44 5 1 1 12 -4 25 -10z m4532 -1 c7 -8 15 -25 17 -38 4 -31 -28
-38 -48 -10 -17 24 -44 28 -44 7 0 -8 -5 -16 -11 -18 -6 -2 -12 -30 -13 -63
-1 -54 -3 -60 -23 -63 -23 -3 -23 -1 -23 93 l0 97 24 -4 c14 -3 31 -1 38 3 20
13 68 11 83 -4z m-4807 -39 c7 -7 12 -47 13 -102 2 -103 10 -152 24 -148 29 9
46 -7 43 -40 -3 -32 -5 -34 -73 -51 -38 -9 -88 -16 -110 -15 -34 3 -40 7 -43
28 -2 16 7 35 24 54 20 20 29 42 32 77 4 47 3 49 -20 49 -13 0 -33 6 -43 14
-19 13 -19 15 -1 54 11 25 31 47 52 58 19 10 34 22 34 26 0 13 55 9 68 -4z
m6850 -72 c2 -56 7 -72 25 -87 21 -16 21 -18 4 -25 -10 -4 -23 -17 -28 -30
-10 -29 -39 -32 -39 -4 0 17 -5 18 -50 13 -64 -7 -64 0 -7 118 37 80 45 89 67
87 24 -3 25 -7 28 -72z m-7121 42 c6 -7 14 -65 17 -128 4 -63 9 -116 11 -118
3 -3 28 -9 47 -11 13 -2 19 -40 9 -59 -12 -22 -64 -39 -151 -48 -82 -8 -99 5
-73 57 9 19 22 38 30 42 8 5 13 27 13 57 0 45 -3 50 -25 56 -51 13 -53 66 -4
110 60 52 106 67 126 42z m4460 -22 c-3 -9 -25 -19 -74 -32 -22 -6 -2 -35 22
-32 25 3 49 -17 57 -50 4 -15 2 -25 -8 -29 -8 -3 -14 -11 -14 -18 0 -14 -28
-22 -90 -27 -25 -2 -35 1 -35 12 0 14 20 23 77 35 37 7 26 35 -13 35 -32 0
-69 27 -69 50 1 27 37 60 77 68 44 10 75 4 70 -12z m-680 -91 c4 -121 7 -131
43 -138 67 -14 17 -45 -87 -54 -55 -5 -63 -3 -63 11 0 10 13 21 30 27 l30 11
0 94 0 94 -30 0 c-16 0 -30 5 -30 11 0 20 30 35 68 34 l37 0 2 -90z m3001 -32
l3 -120 -57 -10 c-62 -11 -79 -3 -90 43 -14 57 31 134 77 134 15 0 19 8 19 34
0 32 13 47 35 42 6 -2 11 -53 13 -123z m-2528 92 c0 -8 -15 -16 -32 -20 -66
-13 -70 -15 -57 -31 7 -8 22 -14 35 -12 25 3 64 -28 64 -51 -1 -31 -37 -61
-90 -72 -38 -8 -55 -8 -63 0 -16 16 4 33 50 40 26 4 39 12 41 25 3 16 -1 18
-28 14 -21 -3 -34 0 -37 9 -3 7 -11 13 -19 13 -20 0 -17 41 5 67 31 37 131 50
131 18z m4633 -7 c16 -13 57 -152 57 -195 0 -18 -6 -23 -24 -23 -13 0 -26 7
-30 15 -10 27 -56 10 -68 -26 -2 -6 -15 -13 -28 -14 -14 -2 -38 -8 -53 -14
-45 -18 -97 -14 -98 7 -5 67 1 206 9 214 14 14 79 27 103 21 30 -8 19 -36 -19
-47 -41 -11 -41 -29 0 -41 45 -14 45 -29 -3 -48 -47 -19 -51 -46 -6 -58 32 -9
57 11 57 44 0 22 17 81 31 109 5 10 9 24 9 31 0 16 20 37 35 37 6 0 19 -6 28
-12z m-4835 -117 l-3 -75 -35 -8 c-19 -5 -54 -11 -77 -14 -42 -6 -42 -6 -49
31 -8 47 18 87 62 92 45 6 54 11 47 28 -7 19 -46 13 -70 -10 -19 -19 -33 -19
-33 0 0 26 37 57 71 61 18 2 35 6 37 9 3 3 16 -5 29 -17 22 -20 23 -29 21 -97z
m4572 60 c-1 -16 -18 -29 -47 -36 -28 -5 -33 -11 -33 -35 0 -25 3 -29 30 -28
44 1 57 -16 29 -36 -13 -9 -31 -16 -41 -16 -13 0 -18 -10 -20 -42 -3 -38 -6
-43 -28 -43 -25 0 -25 1 -28 104 -3 117 6 138 62 143 37 4 76 -2 76 -11z
m-5004 -12 c9 -16 -16 -39 -43 -39 -29 0 -73 -41 -73 -69 0 -34 28 -52 72 -48
28 3 41 0 45 -10 9 -22 -8 -32 -70 -39 -52 -6 -59 -5 -77 16 -14 17 -20 38
-20 75 0 46 4 55 34 83 19 17 47 32 62 34 16 2 37 4 46 5 10 1 20 -3 24 -8z
m2574 -94 c0 -105 0 -105 24 -105 14 0 27 -4 31 -9 9 -15 -24 -28 -87 -36 -49
-6 -58 -5 -58 9 0 8 11 18 25 22 25 6 26 8 23 93 -3 81 -4 86 -25 89 -25 4
-31 27 -10 35 6 3 27 6 45 6 l32 1 0 -105z m418 93 c7 -7 12 -42 12 -85 0 -58
-3 -75 -16 -80 -22 -8 -33 14 -36 72 -1 48 -2 48 -7 -15 -5 -58 -9 -65 -28
-68 -22 -3 -23 0 -23 58 0 38 -4 59 -10 55 -5 -3 -10 -33 -10 -66 0 -52 -2
-59 -20 -59 -18 0 -20 7 -21 63 0 34 -2 70 -4 80 -4 22 22 36 81 42 25 2 49 6
52 9 8 9 17 7 30 -6z m-3722 -20 c4 -6 9 -55 11 -107 4 -113 6 -121 31 -121
27 0 46 -24 30 -38 -11 -8 -133 -32 -167 -32 -24 0 -10 40 20 55 28 15 30 19
27 63 -3 43 -5 47 -30 50 -33 4 -37 26 -8 44 12 8 20 24 20 40 0 43 47 77 66
46z m-161 -130 c10 -164 8 -171 -40 -181 -95 -20 -109 -19 -134 4 -20 19 -23
29 -19 80 3 47 10 65 32 88 15 16 41 31 57 35 30 6 33 9 43 59 5 20 12 27 30
27 23 0 24 -3 31 -112z m474 86 c2 -2 0 -14 -6 -27 -6 -12 -25 -56 -41 -97
-23 -58 -36 -77 -56 -84 -32 -12 -44 2 -78 87 -12 31 -26 57 -30 57 -14 0 -9
37 7 50 18 15 45 6 45 -15 0 -8 4 -15 8 -15 5 0 13 -17 18 -37 12 -50 36 -50
46 1 13 60 38 97 63 90 11 -4 22 -8 24 -10z m4931 -45 c15 -35 -1 -97 -32
-125 -27 -25 -22 -41 12 -41 66 0 47 -27 -28 -38 -24 -4 -51 -9 -58 -12 -19
-7 -18 41 1 57 8 7 15 18 15 24 0 7 9 22 21 34 28 30 38 92 15 92 -9 0 -25 -5
-36 -12 -27 -17 -36 -3 -16 27 13 20 25 25 55 25 34 0 40 -4 51 -31z m-2081
-5 c22 -27 29 -94 11 -94 -5 0 -10 -5 -10 -10 0 -22 -37 -49 -76 -56 -37 -5
-43 -3 -62 21 -12 15 -22 37 -22 49 0 26 22 76 33 76 4 0 7 6 7 14 0 15 14 20
67 24 24 2 36 -4 52 -24z m-3559 -28 c0 -7 -20 -34 -44 -61 -24 -26 -42 -54
-39 -61 3 -8 8 -12 13 -9 11 7 70 -50 70 -68 0 -31 -68 -29 -100 3 -11 12 -51
30 -64 30 -16 0 -25 28 -17 53 4 10 37 44 74 76 48 41 74 57 88 54 10 -3 19
-11 19 -17z m5391 -5 c8 -24 16 -29 39 -29 50 2 61 -17 58 -91 -2 -53 -6 -66
-20 -69 -15 -3 -18 4 -18 45 0 27 -6 58 -14 68 -13 18 -14 18 -27 -6 -7 -13
-14 -43 -15 -67 -1 -48 -7 -57 -29 -49 -12 5 -15 26 -15 111 0 98 3 109 28
115 2 1 8 -12 13 -28z m-2602 -70 c2 -1 -2 -8 -9 -16 -7 -8 -24 -15 -39 -15
-14 0 -33 -5 -41 -10 -13 -9 -13 -11 0 -20 8 -5 24 -10 34 -10 11 0 28 -7 38
-17 44 -40 -3 -103 -78 -103 -61 0 -60 25 1 34 36 6 45 11 45 27 0 17 -5 19
-29 16 -20 -3 -33 1 -45 14 -34 40 -11 84 50 97 33 7 48 8 73 3z m-648 -108
c1 -48 0 -98 -1 -110 -1 -19 4 -23 27 -24 15 -1 31 -1 36 0 15 2 6 -28 -10
-33 -21 -6 -133 -26 -145 -26 -15 0 -8 40 7 41 8 1 21 2 28 3 7 1 12 16 11 41
-1 22 -2 66 -3 98 -1 54 -2 57 -26 57 -15 0 -25 6 -25 14 0 15 14 20 68 24
l32 3 1 -88z m446 64 c-2 -6 -19 -15 -38 -19 -61 -15 -62 -16 -46 -32 8 -8 23
-13 33 -12 29 4 54 -16 54 -44 -1 -37 -22 -58 -71 -69 -59 -14 -69 -13 -69 3
0 15 10 19 68 31 17 4 32 10 32 14 0 14 -23 29 -37 24 -26 -10 -63 18 -63 49
0 15 5 28 10 28 6 0 10 6 10 14 0 9 16 18 43 24 48 9 80 5 74 -11z m2043 -73
c0 -67 2 -76 20 -81 11 -3 20 -9 20 -14 0 -4 -9 -13 -20 -19 -11 -6 -20 -20
-20 -30 0 -25 -27 -26 -34 -2 -5 16 -13 18 -52 12 -34 -5 -47 -4 -51 6 -3 8
16 57 41 109 40 82 50 95 71 95 24 0 25 -2 25 -76z m-2253 44 c6 -7 14 -46 18
-85 l7 -73 -28 -10 c-51 -20 -115 -24 -125 -9 -15 25 -10 69 11 87 22 18 24
19 66 21 19 1 25 6 22 19 -5 24 -48 22 -73 -3 -19 -19 -20 -19 -24 0 -2 10 2
21 8 23 6 2 11 10 11 17 0 22 91 33 107 13z m-4290 -40 c6 -7 13 -49 17 -92 3
-44 10 -82 16 -86 5 -3 13 -17 19 -30 7 -19 10 -20 10 -7 1 24 21 11 21 -13 0
-10 -13 -27 -29 -36 -17 -10 -32 -27 -35 -40 -8 -31 -45 -38 -78 -14 -21 15
-36 18 -77 13 -34 -4 -56 -2 -66 7 -13 11 -14 10 -9 -4 13 -35 -5 -65 -46 -76
-95 -26 -153 -32 -177 -19 -31 16 -29 24 12 75 27 33 35 51 35 83 0 37 -3 41
-32 49 -26 6 -34 14 -36 36 -3 23 6 37 47 76 51 48 86 59 112 33 6 -6 13 -62
16 -124 3 -63 7 -116 9 -118 9 -10 54 12 54 27 0 34 72 166 126 230 36 43 72
55 91 30z m6208 -113 c0 -73 -4 -120 -10 -121 -5 0 -32 -4 -59 -9 -59 -9 -76
6 -76 68 0 52 27 96 65 105 22 6 31 15 33 33 5 41 11 51 29 47 16 -3 18 -17
18 -123z m-2315 86 c0 -13 -10 -20 -36 -24 -43 -7 -63 -31 -64 -74 0 -36 19
-47 72 -41 35 3 49 -16 21 -30 -10 -5 -36 -12 -59 -15 -58 -9 -84 16 -84 82 0
58 30 99 81 111 56 13 69 11 69 -9z m-681 -53 c0 -24 3 -74 8 -113 7 -63 10
-70 31 -71 30 -2 37 -10 23 -27 -16 -20 -151 -41 -165 -27 -12 12 17 40 41 40
9 0 13 16 13 55 0 52 -1 55 -24 55 -55 0 -29 49 27 51 24 1 26 3 10 6 -17 3
-23 11 -23 32 0 34 6 41 37 41 22 0 24 -4 22 -42z m-161 -120 l3 -136 -38 -6
c-125 -22 -128 -21 -141 55 -12 66 22 121 84 138 22 6 30 14 32 37 3 30 28 57
47 51 6 -2 11 -57 13 -139z m-3617 116 c8 -10 14 -56 17 -130 5 -115 6 -120
44 -116 13 2 29 -28 26 -50 -4 -29 -36 -44 -126 -61 -70 -14 -112 -8 -112 14
0 20 23 79 31 79 13 0 31 60 25 84 -4 17 -15 26 -36 31 -26 6 -30 11 -30 40 0
26 9 43 36 70 54 54 100 69 125 39z m4064 5 c5 -5 -35 -120 -58 -168 -16 -32
-48 -43 -67 -22 -9 9 -26 41 -39 71 -13 30 -28 61 -34 69 -9 10 -7 17 8 28 18
13 22 12 43 -12 12 -14 22 -33 22 -41 0 -9 5 -24 11 -35 14 -28 35 -10 44 39
11 62 44 96 70 71z m2125 -125 c0 -96 2 -105 18 -100 25 8 47 -7 30 -21 -20
-16 -131 -34 -141 -24 -13 13 1 31 24 31 17 0 19 8 19 90 0 89 0 90 -25 90
-32 0 -34 28 -2 34 47 11 62 12 70 9 4 -2 7 -51 7 -109z m410 106 c10 -6 16
-32 18 -83 3 -63 1 -75 -13 -81 -27 -10 -35 2 -35 55 0 68 -18 62 -22 -8 -2
-46 -7 -59 -20 -61 -15 -3 -18 5 -18 52 0 74 -18 72 -22 -1 -3 -51 -6 -58 -25
-61 -22 -3 -23 -1 -23 81 l0 85 38 8 c20 4 43 6 50 5 6 -1 20 3 30 8 21 13 24
13 42 1z m-3210 -71 c0 -10 -18 -36 -40 -59 -41 -43 -43 -65 -7 -76 31 -9 60
-42 53 -60 -6 -16 -42 -19 -51 -4 -4 6 -10 8 -15 5 -4 -3 -13 2 -20 10 -7 8
-19 15 -26 15 -8 0 -14 5 -14 10 0 6 -8 10 -17 8 -13 -2 -19 5 -21 24 -2 20 5
34 29 55 17 15 46 42 63 59 34 34 66 40 66 13z m4575 -123 l0 -108 -40 -14
c-52 -18 -65 -18 -81 4 -35 45 -3 143 51 156 19 5 25 13 25 35 0 32 8 43 30
39 12 -3 15 -22 15 -112z m-1927 74 c29 -27 29 -83 0 -126 -48 -70 -148 -46
-148 35 0 37 35 98 60 105 36 10 68 5 88 -14z m-768 -131 c0 -4 -19 -14 -42
-20 -24 -7 -45 -14 -47 -15 -8 -7 25 -30 38 -26 23 8 61 -20 61 -45 0 -32 -28
-59 -70 -68 -19 -3 -43 -9 -52 -11 -13 -4 -18 0 -18 14 0 16 9 21 45 26 37 6
45 11 45 28 0 17 -5 20 -31 16 -20 -3 -33 0 -36 9 -3 7 -9 10 -14 7 -5 -3 -9
9 -9 25 0 17 5 31 10 31 6 0 10 6 10 14 0 9 16 18 43 24 44 9 67 6 67 -9z
m1840 -73 c0 -66 2 -75 20 -81 11 -3 20 -10 20 -15 0 -5 -9 -14 -20 -20 -11
-6 -20 -20 -20 -30 0 -11 -7 -20 -15 -20 -8 0 -15 9 -15 20 0 18 -4 20 -42 14
-24 -4 -47 -7 -53 -8 -14 -2 -7 31 22 94 39 85 63 120 84 120 17 0 19 -8 19
-74z m-2480 -33 c0 -118 5 -133 41 -133 57 0 26 -32 -41 -43 -100 -18 -100
-18 -100 -2 0 15 27 34 45 32 13 -2 18 73 10 140 -6 48 -8 51 -31 47 -16 -3
-24 0 -24 10 0 20 22 31 65 34 l35 3 0 -88z m450 77 c0 -11 -29 -25 -73 -35
-25 -5 -26 -7 -12 -21 8 -8 23 -14 33 -12 46 8 67 -48 34 -89 -23 -29 -122
-45 -122 -19 0 11 12 18 39 22 21 3 44 10 51 14 20 12 2 30 -31 30 -75 0 -78
95 -4 113 37 9 85 7 85 -3z m-200 -120 c1 -36 1 -70 1 -76 -1 -6 -18 -14 -38
-17 -21 -4 -52 -9 -70 -13 -30 -6 -32 -4 -38 30 -10 51 12 81 65 90 26 4 40
11 37 19 -6 19 -49 21 -59 3 -11 -20 -38 -21 -38 -1 0 8 5 15 10 15 6 0 10 6
10 14 0 9 16 18 43 24 60 13 75 -4 77 -88z m1898 -40 l-3 -114 -50 -13 c-49
-13 -50 -12 -74 14 -18 21 -22 34 -18 64 6 48 35 86 70 93 23 5 27 10 27 40 0
34 23 53 43 36 4 -4 6 -58 5 -120z m-2304 54 c6 -15 -29 -34 -61 -34 -38 0
-59 -81 -26 -105 10 -8 28 -9 50 -5 34 8 53 -4 35 -22 -19 -19 -95 -30 -119
-17 -45 24 -43 129 3 164 41 31 109 42 118 19z m-681 -46 c4 -12 1 -28 -5 -35
-7 -9 -7 -17 0 -26 6 -7 12 -42 14 -77 2 -50 7 -65 18 -65 8 -1 23 -5 33 -11
28 -16 3 -31 -73 -43 -87 -14 -90 -14 -90 8 0 13 9 21 30 26 32 7 36 21 24 84
-5 24 -12 31 -30 31 -14 0 -24 6 -24 15 0 16 34 38 44 28 3 -4 3 8 0 25 -7 36
8 62 36 62 10 0 20 -10 23 -22z m-3203 -8 c18 -34 3 -56 -45 -70 -54 -15 -58
-26 -11 -27 19 -1 48 -11 65 -24 29 -21 31 -27 31 -86 0 -35 -4 -63 -8 -63 -5
0 -21 -13 -38 -28 -48 -47 -157 -71 -170 -38 -9 24 24 75 54 82 66 16 60 54
-9 51 -52 -2 -68 21 -69 95 0 72 31 115 88 121 88 9 101 7 112 -13z m6018 8
c7 -7 12 -42 12 -86 0 -70 -1 -73 -22 -70 -19 2 -23 10 -26 48 -5 70 -10 71
-11 4 -1 -52 -4 -62 -20 -67 -28 -7 -31 -1 -31 60 0 74 -18 67 -22 -9 -2 -50
-6 -63 -20 -66 -16 -3 -18 6 -18 82 0 47 3 86 8 87 4 0 14 2 22 5 8 2 31 8 50
13 50 13 64 13 78 -1z m-416 -100 c2 -83 6 -103 18 -104 8 -1 21 -2 28 -3 51
-4 -56 -49 -120 -51 -27 0 -21 27 7 34 24 6 25 9 25 96 0 89 0 90 -25 90 -34
0 -32 28 3 33 65 10 61 16 64 -95z m-2559 -35 c3 -71 1 -133 -3 -138 -5 -6
-37 -17 -71 -24 l-62 -14 -25 28 c-20 24 -23 36 -20 76 6 59 41 106 83 111 25
2 31 8 33 33 3 30 25 55 47 55 8 0 14 -40 18 -127z m447 119 c0 -4 -9 -32 -21
-62 -12 -30 -23 -64 -26 -75 -7 -30 -35 -63 -57 -67 -16 -2 -28 13 -58 72 -42
84 -46 105 -21 114 20 8 52 -28 53 -60 0 -11 8 -29 19 -38 18 -16 19 -16 30
15 6 18 11 38 11 46 0 24 32 63 51 63 11 0 19 -3 19 -8z m-3792 -40 c8 -10 12
-52 12 -119 l0 -104 35 -15 c42 -17 49 -56 13 -75 -55 -29 -191 -49 -203 -29
-4 6 -11 8 -16 5 -11 -7 -11 -3 -3 19 3 9 10 13 15 10 5 -3 9 4 9 15 0 11 9
29 21 39 16 15 20 29 17 63 -2 36 -7 44 -27 49 -61 14 -46 78 32 136 44 32 72
34 95 6z m-282 -36 c16 -12 20 -30 24 -128 l5 -113 30 -5 c26 -5 30 -9 30 -39
0 -31 -4 -35 -48 -52 -63 -25 -152 -35 -171 -20 -18 15 -4 73 25 102 11 11 19
33 19 52 0 27 -6 36 -35 51 -21 12 -35 27 -35 38 0 27 25 71 50 88 12 8 29 20
38 27 23 16 44 16 68 -1z m3404 -20 c0 -7 -18 -34 -41 -60 -22 -25 -39 -50
-37 -55 1 -6 19 -20 38 -33 19 -13 36 -31 38 -41 5 -23 -26 -33 -51 -18 -51
33 -89 51 -103 51 -32 0 -3 53 59 111 60 56 97 73 97 45z m2647 -26 c19 -23
15 -74 -7 -98 -11 -12 -20 -26 -20 -31 0 -5 -19 -14 -42 -18 -38 -8 -46 -6
-70 16 -23 20 -27 29 -22 60 10 60 33 90 79 99 41 9 57 3 82 -28z m-777 -125
c0 -8 -12 -17 -27 -21 -53 -11 -63 -15 -63 -24 0 -6 12 -12 28 -16 54 -11 72
-23 72 -46 -1 -32 -19 -52 -59 -66 -46 -16 -81 -15 -81 2 0 9 16 18 42 23 54
11 67 43 18 43 -53 0 -77 42 -46 82 25 33 116 51 116 23z m-640 -120 c0 -90
12 -137 32 -130 7 3 20 0 28 -5 13 -9 13 -11 0 -20 -18 -11 -101 -30 -135 -30
-34 0 -31 19 5 33 30 11 30 12 30 92 0 74 -8 108 -24 106 -24 -3 -36 1 -36 13
0 14 76 38 93 29 4 -2 7 -42 7 -88z m450 85 c0 -5 -9 -14 -20 -20 -11 -6 -20
-9 -20 -6 0 3 -13 0 -30 -5 -26 -10 -28 -13 -15 -26 8 -8 23 -13 33 -11 43 7
67 -47 38 -85 -25 -33 -126 -50 -126 -22 0 9 14 17 39 21 21 3 44 10 51 14 19
12 2 30 -28 30 -34 1 -62 22 -62 46 1 25 30 61 55 67 37 9 85 7 85 -3z m-199
-128 c1 -40 0 -74 -2 -75 -9 -6 -100 -27 -118 -27 -24 0 -35 30 -26 69 6 30
43 51 86 51 12 0 19 7 19 20 0 16 -7 20 -30 20 -16 0 -30 -4 -30 -10 0 -5 -9
-14 -20 -20 -17 -9 -20 -8 -20 10 0 12 5 18 10 15 6 -3 10 3 10 14 0 12 6 21
13 22 23 1 61 9 66 15 3 2 13 -3 22 -13 13 -13 19 -37 20 -91z m-406 8 c0 -8
-14 -17 -33 -21 -45 -9 -72 -36 -72 -72 0 -39 24 -56 67 -47 34 8 53 -4 35
-22 -19 -19 -95 -30 -119 -17 -44 24 -42 126 5 163 43 35 117 45 117 16z
m-677 -58 c2 -13 -2 -29 -8 -37 -7 -9 -8 -15 0 -20 5 -3 10 -35 10 -71 0 -63
3 -69 36 -65 6 1 17 -5 23 -13 10 -12 9 -17 -6 -24 -18 -10 -123 -32 -151 -32
-17 0 -12 44 6 46 6 1 19 2 28 3 12 1 14 12 12 54 -3 48 -5 52 -30 55 -16 2
-28 9 -28 17 0 17 34 37 45 27 4 -4 5 6 2 23 -3 16 -1 38 5 48 13 26 52 18 56
-11z m-163 -84 c4 -46 5 -108 3 -138 l-3 -55 -40 -8 c-94 -19 -100 -19 -119 1
-11 13 -18 37 -18 66 -1 60 32 110 84 125 34 11 38 15 38 46 0 31 9 42 37 44
7 1 14 -29 18 -81z m445 72 c0 -6 -4 -18 -9 -28 -5 -9 -17 -42 -26 -72 -42
-127 -72 -131 -127 -20 -44 86 -45 96 -19 103 24 6 46 -17 55 -57 4 -15 13
-34 20 -42 11 -11 15 -8 25 12 6 14 11 34 11 45 0 29 29 69 51 69 11 0 19 -5
19 -10z m-670 -104 c0 -7 -18 -34 -40 -59 -22 -25 -40 -47 -40 -50 0 -3 20
-18 45 -34 50 -31 56 -49 23 -62 -20 -7 -50 1 -68 19 -12 12 -51 30 -65 30
-34 0 -15 49 43 108 55 58 102 80 102 48z"/>
</g>
</svg>
