<?xml version="1.0" standalone="no"?>
<!DOCTYPE svg PUBLIC "-//W3C//DTD SVG 20010904//EN"
 "http://www.w3.org/TR/2001/REC-SVG-20010904/DTD/svg10.dtd">
<svg version="1.0" xmlns="http://www.w3.org/2000/svg"
 width="768.000000pt" height="645.000000pt" viewBox="0 0 768.000000 645.000000"
 preserveAspectRatio="xMidYMid meet">
<metadata>
Created by potrace 1.15, written by Peter Selinger 2001-2017
</metadata>
<g transform="translate(0.000000,645.000000) scale(0.100000,-0.100000)"
fill="#000000" stroke="none">
<path d="M3775 6334 c-16 -2 -73 -9 -125 -15 -103 -12 -165 -27 -280 -66 -134
-46 -112 -33 -695 -425 -126 -85 -444 -298 -705 -473 -261 -176 -587 -395
-725 -488 -137 -92 -309 -207 -381 -256 -178 -119 -244 -172 -297 -239 -91
-117 -127 -220 -127 -368 0 -149 31 -244 117 -357 l44 -58 -35 -42 c-43 -54
-90 -146 -110 -219 -22 -78 -21 -226 2 -309 21 -75 78 -183 116 -218 14 -14
26 -28 26 -31 0 -4 -17 -29 -39 -56 -84 -107 -121 -215 -121 -361 0 -163 50
-291 159 -406 66 -71 31 -47 1181 -819 129 -86 341 -228 470 -315 661 -445
961 -642 1015 -667 91 -44 180 -73 301 -98 184 -38 483 -28 639 22 220 71 212
66 655 365 155 105 386 260 514 345 127 86 452 304 721 485 270 181 578 388
685 460 241 161 340 253 393 367 37 78 67 199 67 265 -1 112 -67 289 -136 365
l-34 38 40 52 c105 138 148 310 116 468 -21 100 -58 186 -114 259 l-41 54 38
46 c71 86 132 256 131 368 -1 65 -35 195 -71 267 -63 127 -136 188 -603 501
-571 383 -812 544 -1296 870 -228 153 -498 334 -599 402 -206 139 -304 190
-436 228 -135 39 -372 70 -460 59z m35 -1329 c36 -9 107 -36 157 -61 108 -52
195 -130 234 -209 45 -94 27 -252 -35 -304 -35 -29 -12 -28 62 3 211 89 485
88 685 -2 147 -67 257 -163 309 -271 27 -57 30 -71 26 -140 -4 -93 -35 -163
-114 -256 -65 -77 -165 -152 -469 -355 -126 -84 -285 -191 -353 -237 l-124
-84 -236 159 c-308 206 -960 644 -1327 890 -159 107 -296 200 -303 207 -11 10
23 37 185 145 109 74 272 184 363 245 265 179 337 217 488 259 138 38 318 42
452 11z"/>
<path d="M3510 4794 c-79 -16 -151 -38 -204 -65 -88 -44 -547 -352 -538 -361
5 -5 138 -95 296 -202 l289 -195 207 139 c233 156 295 206 350 279 91 121 63
239 -78 330 -89 57 -237 91 -322 75z"/>
<path d="M4400 4294 c-70 -11 -164 -41 -239 -76 -92 -44 -594 -375 -589 -389
2 -4 129 -93 283 -196 154 -102 297 -199 319 -215 l38 -27 267 179 c353 237
430 315 431 436 0 90 -79 182 -211 243 -94 44 -198 60 -299 45z"/>
</g>
</svg>
