<?xml version="1.0" standalone="no"?>
<!DOCTYPE svg PUBLIC "-//W3C//DTD SVG 20010904//EN"
 "http://www.w3.org/TR/2001/REC-SVG-20010904/DTD/svg10.dtd">
<svg version="1.0" xmlns="http://www.w3.org/2000/svg"
 width="635.000000pt" height="545.000000pt" viewBox="0 0 635.000000 545.000000"
 preserveAspectRatio="xMidYMid meet">
<metadata>
Created by potrace 1.15, written by Peter Selinger 2001-2017
</metadata>
<g transform="translate(0.000000,545.000000) scale(0.100000,-0.100000)"
fill="#000000" stroke="none">
<path d="M4855 5349 c-127 -73 -172 -170 -126 -274 12 -27 18 -52 14 -55 -40
-34 -180 -148 -189 -153 -6 -3 -32 0 -57 8 -73 22 -203 29 -302 16 -146 -19
-284 -61 -481 -147 -5 -3 -16 18 -23 45 -17 67 -64 135 -107 156 -64 30 -133
-13 -175 -112 -25 -59 -49 -180 -49 -250 l0 -58 -83 -66 c-45 -37 -133 -115
-195 -174 l-112 -107 -112 -9 c-207 -17 -435 -67 -608 -133 -100 -39 -273
-125 -348 -172 -29 -19 -55 -34 -59 -34 -9 0 4 138 17 183 9 31 15 37 39 37
68 0 148 99 137 170 -3 19 -15 47 -26 62 -26 35 -26 35 11 53 17 9 66 50 108
91 73 69 81 74 122 74 56 0 104 25 143 73 25 31 31 49 34 101 2 36 -1 81 -8
102 -12 36 -12 39 16 61 22 18 37 23 63 19 46 -7 96 16 115 53 61 118 -76 221
-170 127 -24 -24 -34 -43 -34 -64 0 -22 -8 -36 -29 -51 l-29 -21 -50 30 c-104
65 -224 46 -277 -44 -14 -24 -25 -52 -25 -63 0 -15 -20 -30 -83 -61 -239 -120
-377 -340 -286 -456 26 -34 70 -56 108 -56 l30 0 -6 -57 c-5 -54 -9 -62 -62
-116 -72 -75 -167 -123 -274 -138 -43 -6 -81 -9 -84 -5 -4 3 5 19 19 34 73 79
157 244 190 374 16 66 20 103 16 188 -4 93 -8 115 -36 173 -55 119 -159 197
-342 257 -36 11 -157 43 -270 71 -364 88 -489 140 -644 270 -30 26 -37 29 -33
14 22 -71 30 -134 29 -235 0 -130 -14 -208 -74 -415 -95 -328 -101 -353 -102
-475 0 -106 2 -120 28 -177 75 -165 292 -261 646 -286 34 -2 33 -3 -50 -51
-151 -87 -280 -239 -280 -329 0 -29 -5 -36 -42 -54 l-43 -20 77 -36 c103 -47
168 -94 168 -121 0 -49 76 -105 123 -90 41 12 67 45 67 83 -1 46 -26 79 -75
95 -60 21 -81 76 -51 135 22 42 90 83 195 117 l96 32 74 -152 c42 -83 75 -154
76 -158 0 -4 -74 -56 -165 -116 -186 -122 -395 -277 -550 -409 l-105 -89 -3
-174 c-4 -207 8 -343 48 -540 33 -164 92 -366 112 -385 7 -7 139 -44 293 -84
l280 -71 56 61 56 61 39 -64 c20 -34 57 -90 80 -123 l43 -60 -29 -17 c-19 -11
-32 -30 -39 -55 -9 -33 -8 -44 12 -85 l23 -47 -20 -56 c-12 -32 -25 -56 -31
-54 -5 1 -46 19 -90 39 -134 62 -120 72 -134 -87 -12 -130 -15 -141 -46 -188
-93 -138 -112 -245 -62 -348 33 -67 100 -130 175 -165 45 -21 72 -27 127 -27
96 1 171 35 247 116 l56 60 137 39 c75 21 139 41 142 44 3 3 -21 39 -55 80
l-60 74 78 36 c63 30 83 35 99 27 43 -24 110 -9 141 31 15 18 17 18 90 -16
251 -115 549 -175 873 -176 183 0 304 11 474 45 473 95 915 363 1238 749 108
130 228 331 280 469 l18 48 47 -6 c46 -6 48 -5 82 35 l36 41 5 -33 c3 -18 12
-102 18 -187 l13 -153 120 6 c104 6 146 14 296 58 96 27 178 53 182 57 4 3
-13 130 -37 281 -25 151 -45 280 -45 287 0 6 33 37 73 68 39 32 75 62 78 69
26 45 68 414 55 478 -12 63 -262 305 -495 481 l-134 101 -47 -17 -47 -17 -84
38 c-46 22 -127 56 -179 77 -52 21 -99 42 -103 45 -5 4 11 10 35 14 84 13 375
89 492 128 232 78 377 161 413 238 l18 39 60 1 c33 0 84 -3 113 -6 43 -6 52
-10 52 -26 0 -30 32 -77 66 -99 127 -78 292 30 229 151 -31 59 -112 97 -182
84 -20 -4 -52 -21 -72 -38 l-36 -32 -117 10 c-115 9 -117 10 -127 37 -15 43
-76 104 -138 137 -132 69 -313 102 -569 102 l-171 0 9 48 c5 26 9 95 10 154
l2 107 95 36 c96 37 283 85 332 85 18 0 33 -9 45 -27 39 -61 108 -95 189 -95
139 0 245 90 245 207 0 160 -193 243 -355 152 -50 -28 -105 -108 -105 -151 l0
-33 -109 -21 c-61 -12 -156 -38 -213 -58 -57 -19 -110 -38 -119 -40 -11 -4
-19 6 -28 38 -31 103 -114 208 -200 252 -18 10 -31 19 -29 21 1 1 43 35 92 75
l88 72 41 -19 c27 -11 63 -18 99 -17 72 1 138 39 183 103 26 37 30 51 30 110
0 55 -4 74 -24 103 -41 60 -84 82 -165 86 -40 1 -80 -2 -91 -9z m170 -59 c60
-37 81 -118 49 -187 -16 -32 -71 -83 -90 -83 -5 0 6 10 24 21 55 35 83 114 57
159 l-14 25 -1 -27 c0 -15 -6 -31 -13 -35 -8 -4 -16 -16 -20 -26 -4 -9 -18
-22 -33 -27 -30 -12 -174 -29 -170 -21 2 4 -5 15 -15 25 -19 19 -19 19 -20 -5
l0 -24 -10 25 c-13 31 -3 88 21 125 47 71 164 99 235 55z m-4617 -197 c23 -15
104 -75 204 -153 14 -11 38 -21 51 -22 14 -1 23 -7 20 -12 -4 -5 1 -7 10 -3 9
3 19 2 22 -4 4 -5 10 -7 15 -4 5 3 12 0 16 -6 4 -8 3 -9 -4 -5 -7 4 -12 3 -12
-3 0 -5 8 -12 18 -15 10 -3 24 -16 32 -27 22 -31 58 -70 64 -70 20 3 26 0 21
-9 -3 -5 -1 -10 4 -10 6 0 11 3 11 8 0 4 10 13 22 21 19 12 18 9 -5 -19 -35
-41 -55 -80 -74 -142 l-14 -50 -52 9 c-89 14 -246 9 -309 -10 -70 -21 -151
-84 -180 -140 -33 -63 -31 -165 4 -232 33 -63 117 -145 188 -184 53 -30 50
-42 -5 -21 -23 9 -26 8 -21 -5 3 -10 2 -13 -5 -10 -6 4 -8 13 -5 20 6 16 -16
37 -35 33 -8 -2 -13 2 -12 9 1 6 -4 14 -12 16 -10 4 -12 0 -10 -16 4 -21 4
-21 -15 3 -10 14 -24 25 -29 25 -6 0 -10 5 -8 10 1 6 8 9 15 8 8 0 4 9 -9 23
-12 13 -25 21 -28 18 -3 -3 1 -9 9 -14 12 -7 11 -12 -5 -31 -11 -12 -14 -19
-8 -15 9 5 11 2 6 -10 -4 -11 -8 -13 -11 -6 -2 7 -8 10 -12 7 -11 -7 -32 30
-23 39 3 3 1 6 -4 6 -12 0 -12 18 -1 36 4 6 1 11 -7 11 -8 0 -12 -4 -9 -9 3
-4 0 -8 -5 -8 -6 0 -11 19 -12 43 0 23 -2 59 -5 80 -2 24 0 36 7 32 5 -4 8
-20 5 -36 -3 -19 -1 -27 7 -22 7 4 8 0 3 -13 -5 -12 -4 -16 3 -9 6 6 6 27 0
59 -8 45 -4 99 16 224 2 13 10 33 17 45 8 12 22 45 32 72 10 28 22 59 26 70 5
11 12 42 15 68 2 27 7 52 9 55 2 4 7 25 10 47 4 22 9 53 12 68 2 16 1 26 -4
23 -5 -3 -5 25 0 62 5 37 9 77 10 90 3 27 10 27 46 5z m1852 -173 c37 -19 56
-37 48 -45 -2 -3 -26 7 -53 20 -26 14 -60 25 -75 25 -39 0 -92 -39 -114 -84
-17 -35 -18 -46 -8 -95 26 -123 150 -209 239 -164 58 29 78 64 78 138 0 83 18
69 23 -18 2 -49 -1 -69 -17 -95 -78 -123 -263 -83 -337 73 -48 102 -16 219 71
255 36 15 105 11 145 -10z m2240 -96 c69 -20 124 -48 173 -86 34 -28 53 -58
25 -42 -8 4 -10 3 -5 -2 5 -5 14 -9 20 -9 16 0 56 -76 73 -138 19 -72 19 -255
-1 -363 -17 -90 -43 -194 -50 -194 -7 0 4 79 14 98 5 10 18 63 27 117 20 118
15 308 -9 370 l-16 40 1 -50 c1 -84 -1 -101 -11 -87 -12 20 -18 -13 -11 -63 3
-22 0 -54 -7 -71 -7 -17 -10 -34 -7 -37 3 -3 2 -12 -2 -19 -5 -7 -10 -22 -11
-33 -2 -11 -6 -27 -10 -35 -3 -8 -8 -24 -10 -35 -1 -11 -7 -29 -13 -40 -5 -11
-22 -59 -38 -108 -16 -48 -31 -85 -34 -81 -9 9 -20 -34 -12 -47 5 -8 3 -9 -6
-4 -10 6 -12 4 -7 -9 5 -12 1 -19 -11 -23 -14 -3 -17 -12 -14 -34 3 -18 0 -29
-7 -29 -7 0 -9 -5 -5 -12 4 -6 3 -9 -2 -5 -5 3 -18 -13 -29 -36 l-20 -41 -6
30 -7 29 -1 -28 c-1 -25 -22 -60 -32 -54 -2 1 5 -7 16 -18 63 -63 48 -58 -30
9 -260 224 -583 381 -926 450 -125 26 -298 46 -399 46 l-55 1 115 110 c314
300 715 513 1040 553 69 8 246 -3 300 -20z m-3225 -31 c84 -44 117 -105 122
-223 5 -113 -20 -210 -57 -221 -14 -4 -65 -20 -115 -35 -179 -54 -376 -152
-523 -261 -72 -53 -74 -54 -110 -42 -107 34 -227 124 -268 200 -28 53 -25 154
6 200 70 105 238 144 445 104 44 -8 80 -15 81 -15 1 0 4 23 7 51 13 109 77
201 172 246 42 20 61 23 125 20 50 -2 88 -11 115 -24z m4339 21 c9 -3 13 -11
9 -17 -4 -6 0 -8 10 -4 9 3 19 1 23 -5 4 -7 3 -8 -4 -4 -19 11 -14 -6 8 -29
l20 -22 -46 -51 c-52 -57 -93 -74 -159 -66 -58 8 -89 33 -96 80 -3 21 -7 33
-8 25 0 -8 -4 -12 -7 -8 -12 12 40 70 80 88 40 18 137 26 170 13z m-3592 -154
c20 -44 33 -78 28 -75 -4 3 -10 -2 -13 -10 -8 -19 -67 -50 -67 -34 0 7 -3 10
-6 6 -4 -3 7 -24 24 -45 38 -48 29 -62 -42 -62 -49 -1 -52 -2 -78 -45 -15 -25
-32 -45 -37 -45 -6 0 -20 18 -31 39 -11 22 -25 43 -32 47 -10 6 -11 4 0 -7 34
-36 -7 -85 -64 -76 -31 5 -35 4 -29 -11 5 -14 4 -15 -7 -4 -22 22 -15 104 14
153 38 64 93 125 146 161 47 33 143 87 152 88 3 0 22 -36 42 -80z m-632 -372
c-18 -51 -48 -124 -68 -163 -87 -167 -229 -245 -423 -232 -135 10 -345 59
-333 78 3 5 0 9 -7 9 -7 0 -10 2 -8 5 3 2 41 -7 84 -20 97 -30 232 -55 300
-55 193 0 322 115 442 394 21 47 39 84 41 82 2 -3 -11 -46 -28 -98z m-150
-183 c-38 -56 -103 -112 -160 -139 -76 -36 -276 -26 -409 20 -9 3 2 16 30 38
119 90 287 182 439 240 l65 24 32 -70 33 -70 -30 -43z m1943 -78 c9 -8 17 -20
17 -26 0 -7 5 -9 10 -6 6 4 8 11 5 16 -4 5 1 9 9 9 24 0 30 -20 10 -35 -17
-13 -17 -14 -2 -15 9 0 22 -8 28 -17 10 -17 10 -16 8 2 -1 11 1 26 5 33 11 17
99 15 123 -3 10 -8 29 -15 41 -15 15 0 23 -7 25 -22 2 -18 10 -23 33 -23 17 0
39 6 50 13 23 15 104 16 125 1 33 -22 -81 -73 -133 -58 -45 13 -45 3 0 -11 21
-7 61 -26 88 -43 28 -16 56 -30 63 -30 7 0 11 -5 9 -12 -6 -14 21 -80 29 -72
3 3 -1 18 -9 34 -18 36 -11 63 10 34 16 -24 33 -19 33 9 0 14 10 21 34 26 19
3 41 4 48 1 7 -3 -2 -6 -19 -6 -28 -1 -33 -5 -32 -23 0 -13 3 -17 6 -10 6 14
43 16 43 2 0 -5 9 -10 19 -10 11 0 23 -9 26 -20 3 -11 15 -20 26 -20 22 0 24
-11 7 -28 -9 -9 -8 -12 5 -12 9 0 17 -7 17 -16 0 -8 4 -13 8 -10 4 2 14 0 22
-6 11 -7 6 -8 -19 -4 -18 3 -42 6 -53 6 -10 0 -17 3 -15 8 3 4 -16 7 -41 7
-26 0 -157 13 -292 27 -135 15 -277 29 -316 31 l-71 4 -7 -96 c-10 -161 -6
-400 9 -511 8 -58 15 -111 15 -117 0 -9 -14 -12 -39 -11 -28 1 -38 5 -34 15 3
7 0 13 -6 13 -6 0 -11 -5 -11 -11 0 -8 -4 -9 -13 0 -8 6 -17 8 -21 4 -4 -4 -4
1 0 12 4 11 13 25 19 30 7 6 15 18 18 28 5 14 0 13 -27 -8 l-34 -26 -89 183
c-48 100 -114 235 -145 298 l-57 115 24 25 c48 51 59 129 24 174 -26 33 -84
63 -138 72 -37 6 -41 5 -41 -15 0 -11 -4 -21 -10 -21 -5 0 -10 9 -10 20 0 18
-7 20 -60 20 -33 0 -60 -4 -60 -10 0 -5 6 -10 14 -10 19 0 26 -44 14 -88 -5
-20 -12 -49 -15 -64 -6 -32 -43 -68 -72 -71 -23 -1 -30 -33 -8 -40 6 -2 3 -3
-8 -1 -11 2 -32 4 -47 4 -18 0 -28 5 -28 15 0 9 -9 15 -24 15 -13 0 -34 8 -47
18 -13 9 -35 23 -49 30 -24 12 -24 12 3 -10 36 -31 37 -68 1 -68 -14 0 -23 4
-19 10 3 5 -6 3 -21 -5 -15 -7 -32 -11 -40 -8 -18 7 -13 43 6 43 13 0 13 1 0
10 -20 13 -31 12 -27 -1 5 -23 -22 -19 -38 5 -13 19 -14 29 -5 45 17 33 -2 25
-41 -16 -57 -60 -69 -84 -69 -134 0 -37 6 -55 27 -79 27 -33 99 -70 134 -70
22 0 24 -17 7 -72 -9 -30 -15 -37 -27 -32 -9 4 -24 7 -33 8 -10 0 -20 6 -23
14 -3 8 0 10 8 6 6 -4 -1 6 -18 22 -16 17 -47 58 -67 92 -29 48 -42 62 -61 62
-23 0 -23 2 -16 60 13 113 93 204 249 284 161 83 329 117 480 96 90 -12 174
-45 204 -79 11 -11 28 -21 38 -21 11 0 17 -4 13 -9 -3 -5 -1 -12 4 -15 5 -3
11 1 15 9 3 9 19 15 43 16 38 1 38 1 9 9 -16 5 -43 22 -60 38 -17 17 -41 33
-53 37 -13 3 -23 11 -23 16 0 6 -4 7 -10 4 -5 -3 -10 -2 -10 3 0 13 25 22 61
22 20 0 28 4 23 11 -5 8 6 9 37 4 50 -8 61 -13 54 -24 -2 -5 7 -6 22 -3 l25 5
-31 13 c-42 18 -39 25 12 23 60 -2 77 -8 70 -25 -3 -8 9 -1 27 16 30 28 33 29
58 15 15 -8 35 -21 45 -28z m2138 -2 c84 -30 117 -91 84 -154 -25 -50 -69 -71
-148 -71 -84 0 -140 25 -164 74 -20 43 -11 80 27 116 51 48 126 61 201 35z
m-443 -91 c26 -9 62 -27 80 -41 27 -20 33 -31 30 -56 -6 -61 -97 -100 -240
-101 -76 -1 -89 2 -102 19 -41 53 -26 153 27 186 27 17 42 19 95 14 35 -3 84
-13 110 -21z m-3209 -30 l33 -45 -27 -30 c-16 -15 -58 -43 -94 -61 -36 -18
-68 -34 -70 -35 -2 -1 18 -32 43 -68 26 -36 44 -65 40 -65 -4 0 -13 8 -20 18
-11 14 -11 10 0 -21 7 -21 12 -65 11 -98 -1 -61 2 -68 23 -47 7 7 12 8 12 2 0
-10 -170 -98 -176 -91 -3 2 -16 49 -30 103 -32 126 -54 270 -54 355 l0 66 68
5 c39 3 92 16 127 30 33 14 65 26 71 27 6 0 25 -20 43 -45z m-688 -271 c34
-49 122 -147 194 -218 l132 -131 -71 -39 c-39 -22 -74 -41 -78 -43 -7 -3 -137
251 -156 306 -11 31 -14 33 -44 27 -78 -16 -214 -68 -262 -100 -29 -19 -61
-51 -72 -70 -16 -30 -24 -35 -54 -35 -19 0 -45 -3 -57 -6 -20 -6 -23 -3 -23
22 1 101 157 254 353 344 34 16 65 29 68 30 4 0 35 -39 70 -87z m2509 31 c275
-28 544 -72 870 -142 l35 -8 -3 -74 c-2 -41 -7 -126 -12 -188 -9 -110 -11
-116 -72 -247 -35 -74 -65 -134 -68 -134 -3 0 -21 19 -40 42 l-34 42 35 -32
34 -32 39 97 c21 53 48 109 58 125 22 31 23 30 -67 46 -33 5 -138 23 -232 40
-95 17 -180 31 -189 31 -14 0 118 -143 439 -476 l59 -62 -15 -214 -14 -215
-129 -162 -129 -163 -100 6 c-157 10 -666 36 -707 36 l-38 0 0 136 c0 121 -12
382 -24 533 l-5 54 315 -5 c173 -3 314 -4 314 -2 0 2 -438 384 -543 473 l-28
23 5 -28 c6 -31 29 -237 30 -267 0 -19 59 -72 115 -103 68 -38 76 -44 62 -44
-24 0 -182 102 -191 124 -5 11 -20 104 -34 206 -21 150 -26 224 -26 391 0 113
3 209 7 212 7 8 48 5 283 -19z m-569 -488 l218 -458 11 -156 c13 -198 13 -188
-7 -198 -10 -4 -88 -26 -173 -48 l-155 -41 3 -32 c2 -18 16 -71 31 -118 19
-58 24 -85 15 -85 -6 0 -34 68 -61 153 -28 83 -102 278 -166 432 -64 155 -121
299 -129 322 -8 27 -20 44 -33 47 -17 5 -18 8 -5 16 13 8 12 10 -2 10 -10 0
-18 -3 -18 -6 0 -3 14 -53 32 -109 l31 -104 -71 -282 -70 -282 33 -71 c75
-161 85 -186 70 -186 -14 0 -71 96 -67 112 1 4 -11 4 -26 1 -15 -4 -42 -7 -59
-7 -18 0 -33 -3 -33 -6 0 -5 -53 -6 -70 -1 -3 0 -20 14 -39 30 -21 18 -29 31
-22 35 14 9 14 26 0 26 -5 0 -7 -5 -3 -12 5 -8 0 -9 -14 -6 -12 4 -22 2 -22
-4 0 -5 -10 -6 -21 -3 -16 5 -19 4 -14 -5 6 -10 1 -12 -18 -8 -16 3 -24 1 -20
-5 4 -6 -4 -7 -21 -3 -18 4 -25 3 -21 -4 6 -9 -30 -15 -65 -10 -8 1 11 -24 42
-56 81 -84 158 -180 151 -188 -3 -3 1 -6 10 -6 10 0 16 -3 15 -7 -2 -5 5 -19
14 -31 15 -22 17 -22 20 -5 3 15 5 15 10 -4 4 -16 2 -23 -7 -23 -11 0 -136
137 -277 304 l-25 30 23 105 c48 219 253 1159 270 1239 9 46 22 86 28 88 17 6
470 82 480 80 5 -1 107 -208 227 -460z m-930 165 c49 -84 86 -157 83 -163 -3
-5 -15 5 -26 24 -57 94 -112 167 -121 161 -5 -3 -7 -1 -4 5 4 5 3 21 -2 34
-16 44 -24 -430 -11 -699 l12 -253 -37 -174 -37 -174 140 -163 c138 -161 140
-164 114 -172 -15 -4 -76 -20 -136 -36 l-109 -29 -174 146 c-95 80 -173 151
-173 157 0 26 -40 452 -44 474 -7 30 -10 33 -27 26 -14 -5 -8 -118 26 -481 l6
-61 160 -134 c87 -74 159 -136 159 -139 0 -3 -58 -21 -129 -39 l-129 -33 -193
116 c-107 64 -199 125 -205 134 -12 18 -53 227 -78 402 -34 229 -54 551 -47
746 l1 41 153 90 c83 50 161 96 173 101 20 11 21 8 28 -65 3 -42 6 -106 6
-142 0 -36 3 -89 6 -117 6 -44 9 -51 25 -47 17 5 18 13 14 72 -2 36 -7 126
-10 198 l-5 133 103 52 c115 58 377 169 391 165 5 -2 48 -72 97 -156z m2633
92 c130 -48 335 -133 489 -202 26 -12 47 -27 47 -34 0 -33 -65 -347 -72 -347
-6 0 -272 105 -345 137 -9 3 -13 -4 -13 -19 0 -22 15 -30 168 -91 92 -37 172
-71 178 -75 8 -5 4 -41 -12 -126 -13 -65 -25 -121 -28 -123 -2 -3 -70 14 -150
36 -172 48 -178 49 -167 19 7 -18 31 -28 156 -60 81 -20 150 -39 152 -42 2 -2
-9 -73 -25 -158 l-30 -154 -102 -180 c-57 -98 -108 -185 -114 -192 -10 -10
-30 -8 -101 7 -103 22 -87 27 23 7 40 -7 70 -11 68 -8 -6 5 42 100 53 104 4 2
32 49 61 106 29 57 59 109 66 117 16 16 33 12 -325 80 -129 24 -238 48 -243
53 -8 8 -5 88 28 577 14 220 38 502 50 593 4 36 9 42 22 37 9 -3 84 -31 166
-62z m796 -333 c52 -41 162 -140 244 -220 l149 -145 -6 -130 c-5 -113 -26
-272 -43 -328 -3 -9 -15 -22 -26 -28 -12 -6 -18 -7 -14 -1 3 5 -30 30 -74 55
-44 25 -80 41 -80 36 0 -13 44 -301 84 -554 18 -115 32 -211 31 -213 -7 -8
-307 -94 -311 -89 -2 2 -9 214 -14 471 -5 257 -11 470 -14 474 -6 12 -18 322
-12 322 4 0 59 -35 124 -78 154 -103 142 -97 142 -69 0 19 -27 41 -147 123
-81 54 -151 101 -155 102 -4 2 -8 -22 -8 -53 0 -47 3 -56 15 -51 12 4 15 -5
13 -57 l-1 -62 -7 55 c-6 48 -7 42 -7 -40 -1 -52 2 -185 6 -295 l6 -200 -109
-130 c-173 -206 -199 -235 -210 -235 -5 0 -3 6 6 13 8 6 48 55 89 107 40 52
85 107 99 122 76 81 92 99 89 102 -6 4 -222 46 -240 46 -8 0 -23 -15 -32 -32
-10 -18 -27 -49 -38 -68 -60 -100 -140 -242 -137 -245 2 -1 26 -7 53 -13 l50
-11 -49 5 c-27 3 -55 8 -62 11 -16 6 -15 9 101 213 l83 145 102 535 c55 294
103 541 106 548 5 15 50 -15 204 -138z m-4434 -608 c9 -101 15 -184 13 -186
-2 -2 -50 -31 -107 -66 -57 -34 -100 -66 -95 -71 4 -4 40 -24 78 -44 121 -63
175 -96 175 -105 0 -10 -47 11 -190 85 -52 27 -104 53 -114 58 -17 7 -170 109
-190 127 -4 5 33 36 83 69 63 43 91 68 91 81 0 11 -2 20 -5 20 -12 0 -174
-113 -170 -119 2 -4 -1 -13 -7 -21 -8 -12 -9 -11 -4 3 3 10 3 17 -1 15 -51
-25 -63 -33 -60 -42 2 -6 11 -10 20 -10 9 1 15 -3 14 -8 -1 -6 4 -13 12 -16 9
-3 11 0 6 8 -5 9 -4 11 4 6 6 -4 9 -11 6 -16 -3 -5 39 -40 93 -77 l99 -68 12
-70 c7 -38 21 -116 32 -173 10 -57 19 -114 19 -127 0 -24 30 -42 50 -30 6 4 9
1 8 -5 -2 -6 29 -23 67 -36 123 -44 206 -76 202 -80 -1 -2 -77 18 -168 45
l-164 48 -133 -90 c-74 -48 -132 -90 -130 -92 2 -2 73 -22 158 -44 85 -22 162
-42 170 -45 8 -3 31 -8 50 -11 19 -4 47 -9 61 -12 28 -5 41 6 163 142 24 27
47 47 50 44 9 -9 -175 -209 -193 -209 -9 0 -128 29 -266 64 l-250 64 -19 49
c-32 84 -85 308 -106 450 -23 154 -36 458 -23 515 7 30 27 52 118 128 122 102
282 224 420 319 l90 62 7 -173 c4 -95 14 -255 24 -356z m1950 -521 c98 -43
162 -135 149 -218 -6 -41 -17 -54 -29 -34 -6 10 -141 91 -151 91 -4 0 -5 -7
-1 -15 7 -18 -3 -19 -26 -1 -22 16 -23 27 -3 20 8 -4 15 -3 15 0 0 8 -177 92
-227 108 -24 7 -43 16 -43 19 0 7 79 43 115 52 42 12 151 0 201 -22z m-465
-41 c301 -65 492 -173 896 -506 12 -10 19 -44 9 -44 -3 0 -20 9 -38 19 -72 42
-205 86 -386 126 -22 5 -22 5 7 -52 16 -32 67 -103 112 -158 89 -106 115 -154
95 -175 -8 -10 -6 -10 11 -1 28 14 44 37 19 28 -11 -4 -15 -3 -10 4 4 6 0 15
-7 20 -8 5 -9 9 -3 9 6 0 20 -10 32 -23 20 -22 27 -23 75 -14 99 17 212 48
226 62 13 12 7 22 -42 71 -31 31 -57 59 -57 61 0 2 34 64 75 137 73 128 77
133 105 130 17 -2 30 0 30 5 0 15 69 -23 71 -39 1 -11 3 -10 6 2 6 23 45 33
71 19 11 -6 22 -7 26 -3 4 3 4 -2 0 -13 -4 -14 2 -11 19 10 14 17 21 32 16 33
-5 2 -7 8 -4 13 10 15 -7 81 -19 76 -7 -3 -13 4 -13 15 -1 11 7 23 20 28 17 7
18 9 5 9 -10 1 -18 5 -18 11 0 6 9 6 23 1 16 -6 21 -15 19 -35 -3 -19 1 -26
14 -26 14 0 15 -3 6 -12 -18 -18 -15 -25 16 -26 34 -1 91 -23 75 -29 -7 -3
-13 -15 -13 -27 0 -12 -7 -31 -15 -42 -8 -12 -12 -24 -9 -26 3 -3 -7 -9 -21
-12 -14 -4 -23 -11 -20 -16 3 -6 1 -10 -4 -10 -6 0 -11 -7 -11 -16 0 -9 -11
-25 -25 -36 -22 -17 -23 -21 -10 -34 8 -9 15 -32 15 -52 1 -31 3 -34 13 -22
13 16 67 15 67 -1 0 -6 4 -8 8 -5 4 2 5 -21 1 -52 -3 -31 -5 -67 -4 -79 1 -14
-2 -20 -11 -16 -8 3 -11 10 -7 17 3 6 0 5 -8 -2 -12 -11 -12 -14 1 -22 13 -8
12 -11 -6 -16 -24 -6 -54 -53 -54 -82 0 -11 -6 -22 -12 -25 -10 -3 -10 -7 0
-20 9 -10 12 -32 9 -61 -4 -32 -2 -46 8 -50 10 -3 14 -23 13 -67 -1 -53 2 -65
22 -81 13 -11 20 -24 16 -33 -8 -22 14 -54 32 -47 11 4 13 1 7 -7 -6 -10 -2
-11 16 -7 49 14 -58 -45 -161 -88 -115 -49 -218 -81 -227 -72 -4 3 2 6 12 6
24 0 11 13 -18 17 -12 2 -34 5 -49 7 -15 2 -29 1 -33 -2 -10 -11 -35 -11 -35
0 0 7 -27 9 -77 5 -61 -4 -93 -1 -146 15 -38 10 -75 17 -83 14 -8 -3 -13 -2
-10 3 3 4 -14 18 -37 31 -23 13 -65 47 -94 75 -47 46 -53 56 -63 118 -7 37
-10 83 -8 102 2 20 -1 36 -7 36 -5 1 4 4 20 8 21 4 31 13 33 29 3 20 -1 22
-45 22 -61 1 -110 37 -93 69 36 69 42 59 -122 196 -157 132 -167 136 -168 70
l-1 -30 -35 40 c-121 135 -232 340 -264 485 -6 30 -14 64 -17 74 -5 18 -1 19
78 12 46 -4 122 -15 170 -26z m1222 -140 c14 -11 30 -20 35 -20 15 0 62 -67
62 -89 0 -11 -12 -28 -26 -38 -23 -14 -32 -15 -72 -4 -54 14 -68 31 -77 91 -6
38 -4 47 15 62 28 23 32 22 63 -2z m-1372 -235 c32 -54 56 -102 52 -108 -3 -5
-1 -7 4 -4 6 4 23 -10 38 -31 16 -20 42 -53 59 -72 l31 -35 -31 28 c-16 15
-34 27 -40 27 -5 0 -9 -21 -8 -47 1 -54 -25 -116 -56 -133 -10 -6 -40 -13 -65
-17 -25 -3 -44 -8 -41 -10 2 -3 33 -14 68 -26 l63 -22 6 -52 c4 -29 9 -60 13
-68 8 -21 -10 -65 -26 -64 -10 0 -10 2 0 6 6 2 12 18 12 33 0 31 -23 50 -59
50 -18 0 -21 6 -21 40 0 44 -11 54 -76 65 -26 4 -44 2 -49 -4 -4 -7 5 -11 24
-11 23 0 29 -4 25 -15 -8 -20 -31 -19 -52 1 -15 15 -17 15 -33 -5 -9 -11 -20
-21 -23 -21 -28 0 48 94 82 101 27 5 26 5 -15 27 -24 12 -49 35 -56 50 -18 35
-32 124 -17 102 9 -13 11 -12 8 4 -4 25 -28 33 -28 9 0 -49 -75 -86 -124 -61
-11 6 -21 6 -25 1 -3 -5 -12 -8 -18 -7 -7 1 -24 2 -38 3 -18 1 -25 7 -25 22 0
16 -5 20 -20 16 -27 -7 -28 33 -1 57 11 10 25 31 31 47 10 24 18 29 45 29 46
0 71 10 53 21 -7 5 -25 9 -40 9 -18 0 -29 7 -33 20 -9 27 -1 37 42 51 33 11
38 10 54 -10 24 -30 45 -26 52 8 6 26 13 32 64 46 32 9 74 24 93 34 19 10 36
16 38 15 2 -1 30 -46 63 -99z m794 -120 c152 -44 409 -184 364 -199 -70 -24
-243 -44 -252 -30 -3 5 11 10 31 12 20 1 47 5 61 8 14 3 32 6 40 8 8 1 18 11
22 22 4 10 8 13 8 6 1 -7 6 -10 11 -7 33 21 -136 113 -287 156 -62 18 -115 39
-118 47 -3 9 1 12 13 8 9 -3 58 -17 107 -31z m-1611 -483 l66 -63 -62 -82
c-33 -45 -65 -86 -69 -91 -4 -5 -27 7 -51 26 -24 19 -64 49 -90 66 l-47 32 24
58 c22 55 25 57 66 63 29 4 49 14 63 32 12 14 24 25 28 24 3 -1 36 -30 72 -65z
m631 23 c27 -17 71 -50 97 -74 40 -36 47 -48 42 -70 -4 -18 -3 -22 4 -12 8 11
11 9 17 -8 10 -31 -3 -75 -28 -99 -24 -22 -115 -42 -103 -23 4 6 12 9 17 6 5
-4 16 1 25 9 18 19 38 21 28 4 -4 -8 -3 -10 2 -5 5 5 9 14 9 20 1 7 5 11 11
10 6 -1 7 21 4 56 -6 64 -24 86 -107 137 -55 33 -168 45 -205 20 -13 -9 -28
-13 -33 -9 -4 5 -5 3 -1 -4 6 -12 -11 -29 -20 -20 -10 9 16 46 43 65 22 13
119 33 143 28 3 -1 27 -15 55 -31z m-977 -139 c83 -43 166 -101 273 -191 95
-81 254 -255 242 -265 -10 -10 -204 -60 -229 -60 -17 1 -17 2 -2 10 9 6 45 19
80 30 35 11 72 26 83 34 18 13 17 16 -33 73 -61 72 -82 90 -82 74 0 -6 -6 -11
-14 -11 -8 0 -16 -3 -18 -7 -1 -5 -22 -19 -46 -31 -24 -13 -54 -35 -68 -48
-13 -14 -28 -22 -34 -19 -5 3 21 33 58 67 37 35 73 68 81 76 11 11 10 17 -8
36 l-22 24 -72 -75 c-40 -41 -71 -81 -69 -89 2 -8 -32 12 -75 45 -91 69 -193
161 -149 134 29 -17 29 -17 19 1 -7 12 -7 32 -2 55 5 20 12 56 14 80 3 24 8
48 11 53 3 5 0 15 -6 23 -18 22 -7 19 68 -19z m473 8 c7 -9 42 -36 78 -62 88
-61 85 -57 70 -83 -6 -13 -12 -36 -11 -51 1 -26 -7 -32 -77 -67 l-77 -39 -73
68 -73 68 68 91 c38 50 72 91 75 91 4 0 12 -7 20 -16z m-594 -242 l32 -28 -25
-50 c-47 -96 -29 -191 45 -241 71 -48 149 -38 222 26 l44 39 39 -32 38 -32
-60 -56 c-128 -118 -278 -118 -399 0 -80 79 -101 164 -64 263 22 57 74 139 89
139 4 -1 21 -13 39 -28z"/>
<path d="M4100 4705 c-70 -20 -125 -53 -177 -107 -142 -146 -111 -359 65 -445
50 -25 68 -28 152 -28 86 0 101 3 162 32 163 77 245 226 203 369 -21 72 -89
143 -160 168 -73 24 -179 29 -245 11z m202 -15 c102 -29 188 -132 188 -226 0
-110 -78 -222 -195 -280 -54 -26 -69 -29 -160 -29 -112 1 -154 16 -211 77 -49
51 -64 90 -64 160 0 130 88 238 239 293 44 16 152 19 203 5z"/>
<path d="M4100 4500 c0 -5 -8 -10 -17 -11 -11 0 -13 -3 -5 -6 17 -7 15 -40 -4
-47 -53 -20 -91 8 -59 44 22 24 6 26 -35 5 -41 -21 -60 -53 -60 -100 0 -65 53
-105 138 -105 85 0 149 40 172 107 14 40 -7 86 -50 108 -33 17 -80 20 -80 5z"/>
<path d="M1109 4611 c-22 -23 -29 -39 -29 -70 0 -107 139 -97 156 11 5 30 2
41 -19 62 -35 35 -71 33 -108 -3z"/>
<path d="M567 4354 c-87 -47 -28 -156 77 -140 51 9 66 21 66 58 0 42 -17 68
-55 84 -42 17 -53 17 -88 -2z"/>
<path d="M1790 4577 c0 -35 -6 -49 -30 -72 l-31 -29 35 -18 c23 -12 38 -29 46
-53 14 -43 28 -41 55 7 18 34 24 37 77 43 32 4 58 10 58 14 0 4 -13 20 -30 36
-24 23 -30 37 -30 72 0 24 -2 43 -4 43 -2 0 -20 -7 -41 -16 -33 -14 -39 -14
-61 0 -36 24 -44 20 -44 -27z m50 9 c21 -12 29 -12 52 0 37 19 38 19 38 -22 0
-20 9 -49 21 -65 l20 -29 -50 0 c-48 0 -51 -2 -69 -36 l-19 -36 -21 36 c-12
20 -28 36 -37 36 -21 0 -19 13 5 35 13 12 20 31 20 57 0 42 3 44 40 24z"/>
<path d="M3276 3864 c-53 -52 122 -143 277 -144 63 0 97 12 97 35 0 13 -29 35
-46 35 -3 0 -4 -9 -1 -19 4 -18 2 -18 -17 -8 -11 7 -24 16 -27 21 -4 5 -15 6
-24 2 -9 -3 -26 -1 -38 6 -12 7 -29 11 -38 10 -8 -2 -28 9 -44 24 -27 25 -28
28 -10 34 17 6 17 7 -6 13 -44 12 -107 8 -123 -9z"/>
<path d="M3240 2146 c0 -75 3 -93 15 -93 10 0 12 4 5 12 -5 6 -5 16 0 25 9 14
11 11 10 -15 0 -3 7 -19 15 -35 11 -22 12 -30 3 -30 -8 0 -9 -3 -2 -10 9 -9
203 -21 600 -37 l160 -6 69 89 c38 49 84 107 102 128 18 22 33 45 33 53 0 10
-97 13 -505 12 l-505 0 0 -93z"/>
<path d="M1632 2011 l-73 -27 63 -46 c35 -26 86 -70 113 -98 71 -73 133 -113
164 -107 60 12 139 35 160 46 22 12 20 15 -62 104 -46 50 -90 93 -98 95 -8 2
-10 0 -4 -5 13 -10 18 -36 6 -29 -5 4 -17 -1 -25 -10 -12 -11 -16 -12 -16 -2
0 8 -3 9 -8 3 -9 -12 -88 -12 -99 0 -5 4 -2 5 6 0 9 -5 12 -4 7 3 -3 6 -16 9
-28 7 -12 -3 -30 5 -44 18 -13 12 -28 23 -33 23 -6 1 -17 2 -23 3 -7 1 10 12
37 25 67 33 47 31 -43 -3z"/>
<path d="M1350 1890 c-52 -21 -104 -41 -114 -44 -17 -6 -15 -9 15 -31 19 -13
39 -29 46 -35 7 -5 15 -10 19 -10 4 0 53 -30 110 -66 l104 -66 77 17 c87 18
133 34 133 45 0 21 -256 230 -280 229 -8 0 -58 -18 -110 -39z"/>
</g>
</svg>
