<?xml version="1.0" standalone="no"?>
<!DOCTYPE svg PUBLIC "-//W3C//DTD SVG 20010904//EN"
 "http://www.w3.org/TR/2001/REC-SVG-20010904/DTD/svg10.dtd">
<svg version="1.0" xmlns="http://www.w3.org/2000/svg"
 width="1898.000000pt" height="928.000000pt" viewBox="0 0 1898.000000 928.000000"
 preserveAspectRatio="xMidYMid meet">
<metadata>
Created by potrace 1.15, written by Peter Selinger 2001-2017
</metadata>
<g transform="translate(0.000000,928.000000) scale(0.100000,-0.100000)"
fill="#000000" stroke="none">
<path d="M0 6780 l0 -2500 2853 2 c1568 2 2860 7 2870 12 9 4 17 12 17 18 0 5
-4 7 -8 4 -5 -3 -9 1 -9 9 0 8 3 13 5 10 3 -3 11 3 19 13 8 9 12 11 8 4 -5 -9
2 -12 24 -10 16 1 27 6 25 10 -3 4 0 8 6 8 6 0 8 5 5 10 -3 6 -1 11 4 11 6 1
17 2 23 3 7 0 13 10 13 20 0 17 14 25 52 28 8 1 11 11 8 25 -3 19 -1 22 9 14
9 -7 16 -7 24 1 9 9 11 6 7 -10 -4 -23 10 -39 20 -22 4 6 10 8 15 5 5 -3 7 4
5 15 -3 14 0 18 8 13 22 -14 48 -11 42 5 -4 12 -2 12 8 4 8 -7 17 -9 20 -5 4
3 7 1 7 -6 0 -7 5 -9 10 -6 6 4 7 11 4 17 -5 7 -2 8 6 3 17 -10 81 -14 74 -4
-2 4 1 11 7 15 8 5 9 3 4 -5 -5 -9 0 -12 16 -11 37 3 40 1 30 -18 -7 -14 -6
-19 3 -19 8 0 12 13 11 33 -1 19 2 31 7 28 6 -4 8 -14 5 -24 -3 -10 4 -31 14
-47 21 -32 25 -48 8 -37 -6 3 -4 -5 6 -19 11 -17 22 -24 32 -20 10 4 14 2 10
-4 -3 -5 0 -10 8 -10 8 0 15 3 15 6 0 10 -38 31 -43 23 -2 -4 -3 -2 -1 4 1 6
-7 27 -18 45 -11 19 -15 29 -8 22 7 -6 19 -9 26 -6 8 3 14 0 14 -7 0 -6 -4 -8
-10 -5 -5 3 -10 2 -10 -3 0 -10 29 -26 43 -24 4 1 6 -1 5 -5 -3 -14 13 -53 23
-54 5 -1 13 -2 18 -3 5 0 13 -5 18 -10 4 -5 3 -6 -4 -2 -17 9 -28 -14 -13 -27
10 -9 11 -9 5 2 -6 10 -4 12 6 5 27 -16 46 -17 429 -21 394 -5 555 1 544 19
-3 5 -12 7 -18 5 -7 -3 -13 1 -13 8 0 7 6 11 14 8 9 -4 11 0 7 11 -4 10 -13
15 -20 12 -7 -3 -16 -1 -19 5 -4 5 -11 6 -17 3 -6 -4 -5 3 2 16 7 12 7 20 2
16 -6 -3 -12 -3 -15 1 -2 5 -2 2 0 -5 1 -7 -2 -10 -7 -7 -6 3 -10 13 -10 21 0
8 -7 14 -15 14 -8 0 -14 3 -14 8 4 22 -2 42 -11 37 -6 -4 -7 -11 -4 -17 4 -7
2 -8 -5 -4 -6 4 -9 11 -6 16 3 4 -2 10 -10 14 -8 3 -17 1 -21 -5 -4 -7 -10 -7
-18 0 -9 7 -16 7 -25 -2 -7 -6 -12 -7 -11 -2 6 27 -1 66 -10 60 -6 -3 -10 0
-10 7 0 10 -2 10 -9 -1 -5 -8 -10 -9 -12 -2 -2 5 -18 11 -35 13 -24 1 -30 6
-26 18 3 8 2 12 -3 8 -4 -4 -16 3 -27 15 -11 12 -16 15 -12 7 6 -12 5 -13 -7
-3 -14 11 -19 13 -39 13 -5 0 -10 7 -10 15 0 8 -5 15 -11 15 -5 0 -7 6 -3 13
4 6 4 9 -1 5 -4 -4 -15 -2 -23 5 -13 10 -14 9 -7 -2 6 -10 4 -12 -4 -7 -7 5
-10 15 -7 23 4 11 2 13 -9 9 -8 -3 -15 -1 -15 5 0 6 -4 7 -10 4 -6 -3 -10 -1
-10 6 0 7 -6 4 -14 -7 -14 -19 -14 -19 -13 1 1 11 -2 20 -8 21 -5 0 -23 6 -38
12 -28 12 -52 8 -43 -7 3 -4 -1 -8 -8 -8 -7 0 -13 6 -13 13 0 7 5 10 11 7 6
-4 6 -1 -1 8 -13 16 -68 25 -58 9 3 -5 -7 -3 -22 5 -29 15 -59 3 -46 -19 4 -6
-1 -5 -9 2 -9 8 -18 23 -20 35 -2 12 -9 23 -15 23 -24 3 -25 4 -13 20 11 12
11 15 0 12 -7 -2 -15 3 -18 11 -3 10 0 11 9 5 11 -6 12 -5 3 7 -6 8 -10 22 -9
31 2 10 -2 21 -7 25 -7 4 -8 1 -3 -8 6 -11 5 -12 -5 -2 -12 11 -11 15 4 26 16
12 17 17 6 36 -6 13 -8 21 -2 17 12 -7 31 15 42 51 l8 28 1 -33 c1 -21 5 -31
12 -26 6 3 9 16 7 28 -2 11 4 29 14 39 10 9 18 12 18 6 0 -5 5 -7 10 -4 6 4 7
12 3 18 -5 8 -2 8 9 0 19 -17 32 -4 15 15 -9 13 -9 14 1 8 7 -4 12 -2 12 6 0
9 3 9 10 -2 7 -11 10 -11 10 -2 0 7 5 10 10 7 6 -3 10 -1 10 5 0 6 5 8 13 4 7
-5 6 0 -3 11 -14 17 -14 18 5 8 15 -9 22 -8 33 5 7 10 11 11 7 5 -3 -7 -1 -13
4 -13 6 0 11 5 11 10 0 6 3 9 8 9 4 -1 10 0 15 1 12 4 26 7 37 9 6 0 19 10 31
22 l21 21 -7 -23 c-7 -21 -6 -22 8 -10 9 7 14 18 10 24 -3 6 -1 7 6 3 6 -4 9
-12 6 -17 -4 -5 -2 -9 4 -9 5 0 13 5 16 10 4 6 12 7 18 3 7 -4 21 -9 32 -10
11 -1 38 -5 60 -9 22 -3 71 -7 108 -9 59 -3 70 -7 88 -30 18 -22 23 -24 37
-13 12 10 14 10 8 1 -6 -12 4 -16 30 -12 4 0 10 -4 13 -9 3 -5 24 -12 46 -15
93 -13 109 -17 117 -29 4 -7 8 -9 8 -4 0 5 6 3 14 -3 10 -8 16 -9 21 -1 10 15
28 12 22 -4 -4 -11 -1 -13 11 -9 15 6 16 5 2 -13 -14 -18 -14 -18 2 -5 21 16
73 7 62 -11 -5 -7 -3 -8 7 -2 20 12 120 14 112 1 -4 -6 -1 -7 8 -1 8 4 23 9
34 10 11 1 30 5 43 8 13 3 22 0 22 -7 0 -8 4 -7 9 2 12 19 41 23 35 6 -4 -9 1
-13 12 -11 10 2 21 11 25 22 4 10 8 15 9 9 0 -5 7 -1 15 9 8 11 15 14 15 7 0
-7 5 -9 12 -5 6 4 8 3 4 -4 -3 -6 -1 -14 5 -18 7 -4 9 -3 5 4 -9 15 12 26 27
13 10 -7 13 -4 14 12 2 15 0 18 -6 8 -6 -9 -11 -10 -15 -2 -7 11 6 15 33 11 8
-1 18 4 22 12 7 11 9 11 9 0 0 -7 5 -10 11 -6 8 4 7 9 -2 14 -7 5 -14 17 -15
27 -3 17 -2 17 11 0 7 -10 16 -18 19 -18 6 1 7 -4 5 -14 -1 -3 -2 -17 -3 -32
-1 -16 -5 -35 -10 -43 -8 -12 -5 -12 10 1 10 9 27 15 36 14 9 -2 22 3 29 11
14 17 33 19 23 2 -4 -7 -3 -8 5 -4 6 4 9 12 6 17 -4 5 -1 9 4 9 6 0 13 0 16 0
3 0 25 9 49 20 24 10 48 15 52 12 4 -4 4 -1 0 6 -4 6 -2 12 4 12 6 0 8 5 5 10
-3 6 0 10 9 10 19 0 14 30 -7 42 -12 6 -17 5 -17 -4 0 -9 -3 -9 -8 -2 -11 17
-35 22 -57 11 -11 -5 -17 -6 -13 -2 4 5 3 14 -4 22 -9 11 -8 13 2 11 8 -2 14
2 15 9 0 6 4 15 8 20 5 4 7 2 5 -6 -1 -7 3 -16 10 -18 6 -3 10 1 9 9 -2 7 -2
10 0 5 3 -4 9 -5 14 -1 5 3 8 0 7 -8 -2 -7 3 -12 10 -10 6 1 11 -3 10 -9 -2
-6 2 -13 7 -15 11 -5 13 55 2 73 -4 6 -3 14 3 18 12 7 12 7 15 -45 3 -56 4
-57 16 -37 7 12 15 15 22 9 7 -5 20 -8 29 -7 10 2 21 -1 24 -6 3 -5 0 -8 -7
-7 -6 2 -13 -2 -16 -8 -2 -7 5 -10 21 -7 16 3 23 10 19 17 -4 8 -3 8 6 0 8 -7
25 -9 44 -4 18 4 35 7 40 8 4 1 12 2 18 2 5 0 8 4 5 8 -3 5 15 8 40 7 26 -1
44 2 44 9 0 6 5 4 10 -4 7 -11 10 -11 10 -2 0 7 4 11 9 8 5 -4 11 -1 13 6 2 6
12 12 21 14 9 1 15 -1 12 -5 -2 -4 3 -8 11 -8 9 0 13 6 9 15 -4 12 -3 13 9 3
17 -14 40 -5 30 11 -4 7 -2 8 5 4 6 -4 9 -12 6 -17 -4 -5 -2 -9 3 -9 17 0 22
13 9 29 -11 14 -10 14 5 2 10 -7 15 -17 12 -22 -3 -5 -1 -9 4 -9 11 0 33 24
29 31 -1 3 5 -3 14 -12 14 -16 16 -16 27 0 10 14 11 13 5 -4 -6 -18 -5 -18 10
-6 15 12 17 12 12 -1 -8 -20 36 -18 61 2 10 8 15 10 11 4 -3 -6 0 -11 8 -11 8
0 12 4 9 9 -8 13 10 10 25 -4 8 -7 11 -8 8 -3 -3 6 -2 17 4 25 5 8 9 10 9 4 0
-6 7 -11 15 -11 10 0 14 6 10 15 -4 12 -2 12 8 3 11 -9 20 -6 41 10 15 11 33
18 41 15 18 -7 20 10 3 18 -7 4 -3 4 10 2 16 -3 22 1 22 15 0 20 34 44 50 34
6 -3 7 1 4 9 -6 15 13 21 63 19 7 -1 10 3 7 8 -8 13 10 11 25 -3 8 -7 11 -8 8
-3 -3 6 8 17 24 24 36 16 96 7 96 -14 0 -11 -4 -12 -13 -4 -9 8 -11 5 -7 -9 4
-19 -16 -60 -44 -90 -25 -26 -12 -87 15 -74 10 5 24 8 32 7 8 -1 21 4 29 9 11
8 13 8 8 0 -4 -8 3 -11 23 -10 18 0 29 5 26 12 -2 6 2 11 9 11 7 0 11 -6 9
-12 -3 -8 5 -11 22 -11 15 1 29 8 32 16 3 13 2 12 -7 0 -10 -13 -11 -13 -11 0
0 13 -1 13 -10 0 -8 -13 -10 -13 -10 1 0 20 22 27 77 25 23 0 39 2 36 7 -2 4
11 8 29 8 18 1 48 2 66 4 18 1 35 -1 37 -6 3 -4 -7 -6 -22 -3 -15 3 -24 2 -20
-3 4 -4 73 -7 152 -8 79 0 147 -4 152 -9 5 -5 2 -6 -6 -1 -10 5 -12 4 -7 -4 4
-6 13 -8 19 -4 7 4 19 8 27 8 8 0 21 4 29 9 9 6 12 5 8 -1 -4 -6 3 -8 18 -5
14 2 25 8 25 13 0 5 10 9 23 9 18 0 19 -2 7 -11 -13 -9 -13 -10 0 -6 8 2 15 8
15 13 0 5 4 15 9 23 7 10 6 12 -4 6 -9 -6 -11 2 -8 33 3 41 -6 46 -14 7 -3
-16 -5 -15 -10 7 -3 15 -2 25 3 23 4 -3 10 -1 14 5 9 15 37 12 30 -2 -4 -7 0
-5 8 5 8 9 22 17 31 17 9 0 19 6 22 13 4 11 28 14 72 9 6 -1 12 -13 12 -26 0
-17 -16 -39 -52 -70 -29 -25 -56 -46 -61 -46 -4 0 -5 -5 -2 -10 4 -6 3 -10 -2
-9 -20 4 -29 -3 -30 -22 -1 -12 -8 -26 -15 -32 -14 -12 -57 -75 -75 -111 -18
-33 11 -73 49 -67 3 0 21 -13 38 -29 18 -17 36 -30 41 -30 6 0 22 -9 37 -19
15 -11 36 -21 47 -23 11 -2 23 -6 26 -11 7 -9 41 -17 97 -21 23 -2 46 -6 49
-10 3 -3 12 -1 18 4 7 6 24 11 39 12 16 2 26 8 26 18 0 13 1 13 10 0 7 -11 10
-11 10 -2 0 7 5 10 10 7 5 -3 10 -2 10 3 0 6 7 13 16 16 8 3 12 2 9 -4 -3 -6
-1 -10 4 -10 6 0 11 6 11 14 0 8 4 18 10 21 5 3 7 0 4 -8 -3 -8 1 -14 10 -14
8 0 15 7 15 16 2 38 5 50 13 45 4 -3 3 -14 -3 -25 -9 -17 -7 -19 13 -17 33 5
48 17 42 33 -4 8 -10 12 -16 9 -5 -3 -7 -12 -5 -18 3 -7 -1 -13 -8 -13 -11 0
-12 5 -2 21 6 12 11 24 10 27 -1 3 9 5 23 5 18 -1 41 13 76 46 28 26 56 48 61
48 18 0 46 31 40 46 -3 8 0 14 7 14 6 0 8 -4 5 -10 -3 -5 -2 -10 3 -10 9 0 96
100 104 118 2 5 26 23 53 42 28 18 64 45 80 60 17 15 64 48 106 74 42 25 96
67 120 92 24 25 55 56 68 67 13 12 40 37 59 55 19 17 36 32 38 32 15 0 161
111 199 151 51 54 159 137 240 184 27 15 86 66 132 111 47 47 113 101 152 124
80 46 166 121 174 151 8 29 -26 46 -108 53 -38 3 -84 8 -101 10 -36 5 -64 -8
-173 -83 -63 -44 -85 -66 -110 -113 -47 -84 -60 -88 -134 -41 l-62 38 -117 0
c-102 0 -120 -2 -145 -21 -39 -29 -86 -52 -115 -58 -38 -6 -33 29 8 62 19 15
60 59 90 99 29 39 71 82 91 94 74 45 108 94 81 117 -7 5 -56 12 -108 15 -52 2
-137 14 -189 25 -140 32 -179 30 -249 -15 -31 -21 -78 -54 -103 -73 -25 -19
-56 -42 -69 -50 -12 -8 -44 -31 -71 -50 -26 -19 -67 -46 -90 -60 -23 -14 -52
-34 -65 -45 -13 -12 -38 -29 -54 -39 -27 -15 -31 -16 -36 -2 -4 10 10 32 40
63 25 25 46 42 46 37 0 -21 28 35 34 68 8 46 57 87 113 94 71 10 81 14 112 45
21 20 31 40 31 60 0 31 -17 40 -26 14 -9 -22 -34 -18 -34 5 0 27 -31 26 -56
-1 -14 -16 -28 -20 -56 -17 -38 4 -38 3 -38 -34 0 -31 -4 -38 -20 -38 -18 0
-20 7 -20 69 0 61 -2 69 -17 66 -10 -2 -40 -4 -66 -4 -34 -1 -47 -5 -44 -13 3
-8 21 -12 51 -11 32 1 46 -3 46 -12 0 -16 -22 -25 -66 -25 -41 0 -74 29 -74
65 0 21 -5 25 -28 25 -20 0 -32 -8 -45 -29 l-17 -30 37 -3 c20 -2 38 -9 41
-15 3 -10 -15 -13 -67 -13 -39 0 -71 3 -71 6 0 3 14 25 31 50 33 49 32 51 -38
56 l-43 4 0 -58 c0 -51 -2 -58 -20 -58 -18 0 -20 7 -20 59 0 68 -12 82 -44 52
-12 -11 -36 -24 -54 -27 -29 -6 -32 -10 -32 -45 0 -32 -3 -39 -20 -39 -18 0
-20 7 -20 74 l0 73 -75 15 c-41 8 -75 10 -75 6 0 -4 9 -8 20 -8 11 0 20 -5 20
-11 0 -6 -9 -13 -20 -16 -17 -4 -20 -14 -20 -54 0 -43 3 -49 21 -49 27 0 19
-24 -10 -28 -36 -6 -51 15 -51 73 0 39 -4 54 -16 59 -42 16 -64 -11 -64 -80 0
-46 -3 -54 -19 -54 -16 0 -18 9 -20 81 -2 79 -1 81 21 79 61 -5 98 0 98 15 0
24 -83 20 -124 -7 -30 -20 -32 -24 -23 -48 17 -45 4 -60 -53 -60 -52 0 -64
-12 -31 -30 13 -7 28 -7 46 0 34 13 35 13 35 -4 0 -17 -22 -26 -64 -26 -35 0
-59 19 -74 60 -9 25 -10 25 -25 -13 -9 -21 -26 -41 -41 -46 -13 -6 -27 -15
-31 -20 -3 -6 -19 -11 -36 -11 -16 0 -29 -4 -29 -10 0 -5 -6 -10 -13 -10 -7 0
-33 -13 -58 -28 -24 -16 -66 -37 -94 -47 -27 -11 -76 -43 -108 -72 -33 -29
-66 -54 -73 -54 -8 -1 -19 -2 -26 -3 -20 -2 -17 35 9 86 30 59 82 89 142 81
27 -4 47 1 72 16 18 11 42 21 52 21 9 0 17 7 17 14 0 8 16 27 35 42 l35 26 0
99 c0 92 1 99 20 99 16 0 20 -7 20 -38 0 -38 0 -38 36 -34 26 3 41 -1 59 -18
l23 -22 36 35 c37 36 46 67 24 84 -7 5 -58 15 -113 22 -55 7 -134 18 -175 26
-122 23 -152 20 -235 -25 -43 -23 -76 -36 -80 -30 -3 6 1 10 9 10 23 0 25 64
3 87 -7 7 -59 20 -117 29 l-105 16 -139 -71 c-158 -81 -233 -140 -216 -171 5
-10 10 -44 10 -74 0 -49 -2 -56 -20 -56 -16 0 -19 8 -22 62 -2 52 -6 63 -22
66 -26 5 -36 -15 -36 -75 0 -46 -3 -53 -20 -53 -18 0 -20 7 -20 60 0 62 -5 68
-41 50 -15 -8 -19 -22 -19 -60 0 -63 -25 -70 -35 -11 -8 49 -35 46 -35 -4 l0
-33 -55 -1 c-39 0 -63 -6 -83 -21 -15 -11 -41 -23 -57 -26 -54 -9 -89 -23
-221 -89 -127 -65 -145 -74 -194 -107 -20 -13 -66 -25 -117 -31 -5 0 -30 -11
-56 -25 -27 -13 -55 -21 -62 -18 -8 3 -17 1 -20 -3 -8 -14 -46 -21 -39 -8 3 7
-2 3 -10 -7 -9 -11 -16 -16 -16 -10 0 5 -11 -4 -24 -19 -18 -21 -30 -27 -45
-22 -12 3 -21 11 -21 16 0 6 4 7 10 4 6 -3 10 -2 10 3 0 5 10 14 23 20 12 6
40 23 62 36 22 13 75 43 119 66 43 23 106 61 140 84 33 23 76 48 94 55 33 14
43 31 17 31 -22 0 -18 18 5 25 11 3 25 15 31 26 11 21 9 29 -30 127 -20 51
-20 52 -1 52 14 0 23 -13 36 -55 10 -30 21 -55 24 -55 3 0 14 25 24 55 12 40
22 55 35 55 16 0 14 -10 -19 -97 -20 -54 -36 -99 -35 -101 2 -3 118 58 157 82
13 8 18 24 18 62 l0 50 57 2 c31 1 62 -3 69 -9 9 -7 24 -3 52 15 63 39 60 90
-6 111 l-23 7 23 24 c13 13 27 24 32 24 5 0 51 42 102 94 101 101 171 157 229
182 l38 15 -7 74 c-10 115 -40 238 -237 998 -32 125 -59 230 -59 233 0 2 957
4 2127 4 l2128 0 -80 -46 c-44 -25 -107 -59 -139 -76 -77 -39 -117 -69 -109
-81 3 -6 1 -7 -6 -3 -15 10 -93 -28 -117 -56 l-19 -22 28 17 c27 17 27 17 37
-8 11 -30 13 -78 3 -88 -3 -4 -16 1 -27 10 -20 18 -21 18 -5 -2 9 -11 16 -35
17 -52 0 -52 1 -55 15 -47 9 6 9 4 -1 -8 -9 -11 -10 -18 -2 -23 5 -3 10 -16
11 -28 1 -21 2 -20 9 3 8 23 8 23 7 -7 -1 -25 -4 -30 -14 -21 -7 6 -13 20 -14
32 -1 19 -2 18 -8 -4 -7 -23 -8 -23 -13 -5 -4 13 -5 11 -3 -7 1 -15 -2 -25 -7
-22 -4 3 -8 16 -8 30 0 14 -4 23 -9 19 -6 -3 -8 -14 -6 -25 2 -11 1 -22 -3
-24 -4 -3 -8 11 -8 29 0 18 4 31 8 29 12 -8 5 19 -7 29 -6 5 -3 7 8 3 9 -3 17
-1 17 4 0 5 -8 11 -17 14 -11 3 -9 4 6 3 13 -1 25 4 27 11 1 7 1 9 -2 4 -2 -4
-18 -7 -34 -6 -17 1 -33 -2 -36 -7 -3 -5 0 -8 8 -7 9 2 13 -13 14 -52 2 -82 2
-83 17 -74 7 5 4 1 -6 -8 -11 -10 -14 -18 -8 -18 7 0 10 -4 6 -9 -3 -5 -1 -12
4 -16 6 -3 8 4 6 15 -2 11 0 18 6 15 5 -4 7 -10 4 -15 -3 -5 -1 -11 5 -15 6
-4 8 -11 4 -16 -3 -5 -9 -7 -14 -4 -12 7 -23 -13 -24 -44 -1 -16 -7 -26 -16
-26 -8 0 -19 -10 -26 -22 -6 -13 -14 -20 -18 -16 -4 4 -4 -1 0 -12 7 -17 9
-15 21 14 8 18 16 31 19 28 3 -3 -2 -19 -11 -37 -15 -30 -17 -31 -35 -15 -17
15 -18 15 -16 -2 1 -19 -30 -25 -51 -10 -7 5 -18 5 -25 1 -17 -11 -48 -13 -48
-3 0 9 -20 6 -40 -6 -8 -5 -45 -10 -83 -11 -38 -1 -81 -7 -96 -13 -14 -5 -62
-12 -106 -15 -44 -3 -93 -9 -110 -12 -16 -4 -35 -7 -42 -7 -7 0 -10 -4 -7 -9
3 -5 11 -5 17 -1 8 5 8 2 0 -9 -7 -8 -25 -14 -40 -13 -16 1 -35 -4 -43 -10
-30 -25 -56 -12 -52 26 1 3 -25 6 -56 7 -41 1 -51 -1 -37 -8 19 -8 19 -9 -2
-9 -12 -1 -24 5 -27 12 -4 8 -5 7 -5 -3 3 -35 -2 -39 -36 -36 -19 2 -35 0 -35
-4 0 -4 -9 -10 -20 -13 -11 -3 -20 -2 -20 2 0 10 -46 8 -56 -2 -4 -4 -12 -7
-18 -7 -6 0 -4 5 4 10 12 8 11 10 -7 10 -35 0 -27 14 21 38 51 26 63 28 46 6
-11 -12 -11 -15 1 -12 8 2 13 -3 11 -10 -1 -8 2 -11 8 -7 8 5 7 11 -1 21 -6 8
-8 14 -3 14 4 0 3 5 -3 11 -8 8 -33 1 -89 -26 -44 -21 -82 -43 -86 -49 -4 -6
-8 -7 -8 -3 0 5 -13 0 -29 -9 -17 -10 -27 -22 -24 -27 3 -6 1 -7 -5 -3 -11 6
-282 -129 -294 -148 -10 -15 6 -30 49 -49 32 -14 644 -120 992 -172 103 -15
104 -15 125 6 11 12 120 83 241 158 335 208 758 487 1170 768 269 185 494 333
503 333 6 0 12 4 14 8 2 4 19 18 39 30 l36 22 749 0 c412 0 755 -4 762 -9 10
-6 11 -17 1 -54 -10 -40 -31 -66 -163 -199 -83 -85 -164 -175 -179 -201 -97
-161 -172 -331 -161 -362 4 -9 -1 -24 -9 -33 -11 -12 -14 -26 -9 -44 8 -30 82
-119 93 -113 10 7 20 -24 12 -38 -3 -7 -3 -9 2 -5 5 5 15 -1 23 -13 8 -12 20
-18 29 -15 11 5 13 2 9 -9 -3 -9 -2 -14 3 -11 11 7 43 -28 34 -37 -3 -4 -1 -7
6 -7 13 0 41 -24 41 -35 0 -3 -6 -3 -12 1 -8 4 -10 3 -5 -2 5 -5 18 -9 30 -9
14 0 23 -7 24 -20 l3 -20 -10 20 c-8 18 -9 17 -7 -7 2 -15 7 -31 12 -35 4 -4
5 -3 1 4 -12 22 13 23 28 1 9 -12 16 -17 16 -11 0 6 -7 16 -15 23 -8 7 -15 18
-14 24 0 7 2 6 6 -2 2 -6 9 -10 14 -6 5 3 8 0 7 -8 -2 -7 2 -12 8 -11 7 1 10
-6 7 -17 -5 -18 5 -25 29 -21 4 0 5 -6 1 -15 -5 -13 -7 -13 -14 -2 -5 7 -9 8
-9 2 0 -17 12 -25 25 -14 8 7 11 3 10 -13 -1 -12 3 -28 9 -36 9 -12 8 -13 -4
-6 -8 4 -12 5 -8 0 4 -4 3 -17 -3 -29 -8 -14 -3 -12 15 8 15 17 26 23 26 15 0
-11 2 -11 10 1 9 14 7 -25 -5 -83 -2 -9 1 -15 6 -11 5 3 9 18 9 34 0 16 3 31
8 33 11 8 8 -67 -3 -75 -5 -4 4 -6 20 -5 21 1 30 -3 30 -13 0 -8 4 -20 8 -27
4 -6 3 -14 -2 -18 -18 -10 -8 -43 11 -40 10 2 18 -2 18 -10 0 -8 4 -16 9 -19
13 -9 1 36 -16 55 -12 14 -12 17 1 22 11 4 13 1 9 -10 -4 -11 -3 -14 6 -9 6 4
10 4 9 -1 -1 -4 1 -23 5 -41 5 -23 11 -31 19 -26 10 6 9 3 0 -9 -8 -9 -11 -21
-7 -27 4 -6 1 -9 -5 -8 -7 2 -14 -5 -15 -15 -3 -18 31 -40 48 -30 14 9 -4 22
-25 18 -11 -3 -17 -1 -14 3 4 4 13 7 19 7 7 1 11 7 9 14 -1 7 2 10 8 6 6 -3 8
-10 5 -15 -3 -5 -1 -11 5 -15 6 -4 4 -14 -5 -28 -9 -15 -11 -27 -5 -37 8 -12
10 -13 10 -1 0 8 2 12 5 9 3 -3 0 -18 -7 -32 -10 -22 -9 -32 2 -49 12 -19 11
-21 -2 -9 -12 10 -17 10 -27 -1 -6 -8 -8 -17 -4 -20 3 -4 -2 -7 -12 -7 -17 0
-17 1 -2 18 10 10 14 22 10 26 -13 13 -11 35 5 48 14 11 15 10 8 -7 -5 -15 -4
-17 4 -9 8 8 9 18 2 30 -5 11 -7 25 -4 33 3 9 0 12 -10 8 -9 -3 -20 -1 -25 4
-6 6 -9 -18 -8 -63 2 -79 -2 -98 -17 -98 -5 0 -6 5 -2 12 4 7 3 8 -5 4 -10 -7
-157 -11 -186 -6 -5 1 -23 1 -40 1 -16 -1 -66 3 -110 9 -44 6 -98 12 -120 14
-96 8 -201 19 -217 22 -10 2 -28 6 -40 9 -13 3 -56 8 -97 11 -40 2 -78 7 -82
10 -5 3 -31 8 -57 10 -60 7 -87 10 -137 17 -66 10 -136 17 -209 22 -37 3 -72
8 -77 11 -5 3 -28 7 -51 10 -24 2 -63 7 -88 10 -25 3 -56 7 -70 8 -14 1 -31 5
-39 10 -10 7 -12 6 -6 -4 6 -10 4 -11 -6 -4 -8 4 -21 9 -29 11 -8 1 -30 5 -47
8 -18 3 -34 5 -36 3 -2 -2 -12 4 -22 12 -14 11 -17 11 -11 2 7 -11 4 -12 -10
-4 -11 5 -32 10 -49 11 -37 1 -62 5 -195 25 -58 8 -130 18 -160 21 -30 3 -71
10 -90 15 -19 5 -84 16 -145 25 -60 8 -132 19 -160 25 -47 9 -116 21 -330 55
-49 8 -110 19 -135 25 -25 5 -94 16 -155 25 -60 9 -132 20 -160 25 -27 5 -122
21 -210 35 -256 41 -288 46 -332 56 -24 5 -66 12 -95 15 -29 3 -56 8 -61 11
-4 2 -30 8 -57 12 -41 7 -48 6 -39 -5 6 -8 22 -14 35 -14 13 0 28 -9 34 -20 6
-11 15 -18 21 -15 9 6 13 -9 9 -30 -1 -5 4 -5 11 2 6 6 18 9 25 6 17 -6 19
-24 2 -21 -7 2 -13 -6 -13 -16 0 -11 -5 -21 -12 -23 -7 -3 -11 3 -8 15 2 11
-2 19 -11 19 -9 0 -11 -4 -4 -12 5 -7 7 -15 3 -18 -9 -9 -25 -9 -20 1 3 4 -25
8 -61 10 -91 4 -473 68 -518 87 -46 19 -47 19 -34 -5 6 -11 10 -26 9 -33 -5
-42 3 -58 42 -78 23 -11 44 -29 46 -39 3 -11 13 -21 22 -24 60 -18 565 -98
756 -121 28 -3 59 -8 70 -10 11 -2 101 -15 200 -29 272 -38 420 -60 515 -76
30 -5 105 -16 165 -25 117 -16 446 -65 605 -89 477 -74 649 -101 800 -125 96
-16 225 -37 285 -46 61 -9 191 -30 290 -47 99 -17 209 -34 245 -39 62 -8 123
-18 235 -39 28 -6 95 -17 150 -25 55 -9 125 -20 155 -25 123 -22 288 -52 335
-61 28 -5 73 -14 100 -19 28 -6 108 -19 179 -30 71 -12 134 -24 140 -28 12 -7
9 -7 91 -17 33 -4 65 -10 70 -13 6 -4 21 -8 35 -9 14 -1 43 -6 65 -12 22 -5
60 -15 85 -21 24 -6 51 -16 59 -23 12 -10 13 -9 6 3 -8 13 -7 13 9 0 18 -14
206 -32 206 -19 0 7 54 14 190 25 141 11 203 33 247 84 21 26 69 96 128 190
89 141 229 362 284 449 85 133 143 198 206 227 48 22 58 23 230 18 99 -2 196
-6 215 -9 19 -2 67 -7 105 -9 77 -5 183 -14 260 -22 28 -3 88 -7 135 -9 47 -2
85 -4 85 -5 0 -2 35 -4 77 -5 42 -2 81 -6 87 -10 6 -3 11 -4 11 0 0 3 10 1 21
-6 15 -7 19 -8 15 0 -8 13 21 4 43 -13 11 -8 13 -8 8 1 -7 11 27 12 68 3 36
-8 35 -28 35 1115 l0 1115 -9490 0 -9490 0 0 -2500z m2890 2197 c0 -32 2 -33
30 -29 40 6 60 -13 60 -55 0 -58 -14 -73 -70 -73 l-50 0 0 95 c0 78 3 95 15
95 10 0 15 -10 15 -33z m-212 11 c17 -17 15 -53 -3 -68 -13 -11 -11 -18 11
-56 25 -42 25 -44 6 -44 -12 0 -24 11 -32 30 -7 17 -21 35 -31 41 -17 9 -19 6
-19 -31 0 -29 -4 -40 -15 -40 -12 0 -15 17 -15 90 l0 90 43 0 c24 0 48 -5 55
-12z m1279 -50 c16 -13 17 -71 3 -99 -8 -13 -21 -19 -45 -19 -32 0 -35 -2 -35
-30 0 -20 -5 -30 -15 -30 -12 0 -15 17 -15 94 l0 93 47 1 c26 1 53 -4 60 -10z
m3 -368 c15 -5 18 -8 9 -9 -9 -1 -20 -8 -23 -17 -4 -9 -2 -13 5 -8 7 4 10 1 7
-7 -3 -8 -11 -13 -17 -11 -7 1 -10 -2 -6 -8 3 -6 12 -7 18 -3 9 5 9 3 1 -8
-12 -15 -12 -88 0 -107 4 -7 1 -12 -6 -12 -8 0 -9 -3 -3 -8 12 -9 16 -54 4
-46 -5 3 -7 9 -4 14 3 5 1 11 -4 15 -11 6 -9 -9 8 -65 13 -41 5 -51 -40 -53
-25 -2 -36 -8 -39 -22 -5 -16 -14 -20 -43 -19 -20 1 -34 -3 -31 -8 3 -4 11 -5
17 -1 7 4 6 0 -2 -10 -7 -9 -19 -17 -25 -17 -7 0 -6 4 2 9 11 7 11 9 -2 14 -8
3 -17 3 -20 -1 -7 -11 20 -43 29 -34 4 4 2 -3 -6 -15 -7 -12 -18 -19 -24 -15
-5 3 -4 -2 4 -11 16 -20 25 -23 15 -4 -4 6 -3 9 1 4 15 -13 12 -75 -2 -70 -10
4 -11 9 -3 18 8 10 8 15 -1 21 -7 4 -9 3 -5 -4 3 -6 2 -14 -4 -17 -8 -5 -8
-11 0 -20 9 -11 7 -12 -10 -8 -11 3 -23 10 -26 15 -3 5 -13 3 -22 -4 -13 -11
-14 -11 -7 1 6 11 4 13 -8 8 -9 -3 -19 -1 -23 5 -5 7 -2 8 6 3 9 -6 11 -4 5 4
-4 7 -18 11 -31 8 -13 -2 -22 0 -21 6 1 5 -13 16 -31 24 -26 11 -32 11 -26 1
6 -10 3 -9 -9 1 -12 9 -17 10 -17 2 0 -7 -4 -9 -10 -6 -14 9 -12 -1 6 -37 12
-23 13 -33 4 -42 -8 -8 -9 -6 -4 8 5 13 4 17 -4 12 -6 -3 -14 -2 -17 4 -5 8
-11 7 -21 -1 -8 -6 -17 -9 -21 -5 -3 3 -1 6 6 6 7 0 10 4 6 10 -3 5 -12 7 -21
3 -8 -3 -24 3 -36 13 -12 11 -18 14 -14 7 7 -14 -109 50 -135 73 -9 8 -19 11
-22 7 -4 -3 -7 -1 -7 5 0 7 -9 12 -20 12 -11 0 -20 3 -20 8 0 4 -15 14 -32 22
-18 7 -33 12 -33 10 0 -1 -19 7 -42 19 -24 12 -43 18 -43 14 0 -5 -4 -3 -8 2
-4 6 -16 18 -28 28 -17 14 -21 14 -21 2 0 -8 5 -11 10 -8 6 3 7 1 4 -5 -11
-16 -42 -7 -44 14 -3 18 -2 18 6 -1 8 -16 10 -17 10 -3 1 25 -17 31 -28 10 -7
-13 -6 -23 2 -32 9 -10 9 -11 -1 -6 -14 8 -30 -23 -16 -33 5 -3 10 -12 12 -20
3 -12 1 -12 -14 0 -16 13 -16 12 -5 -10 7 -13 8 -21 3 -17 -6 3 -13 2 -16 -3
-3 -5 -16 -7 -29 -4 -18 4 -20 3 -7 -7 13 -10 13 -11 -1 -7 -9 3 -21 1 -26 -4
-5 -5 -10 2 -11 18 -3 33 -17 49 -27 32 -5 -7 -4 -10 1 -6 6 3 11 -4 11 -15 2
-21 2 -21 -13 1 -8 11 -16 29 -17 39 0 10 -7 19 -14 19 -9 0 -10 -4 -2 -13 7
-8 6 -14 -2 -20 -8 -5 -9 -3 -4 6 6 10 4 12 -8 7 -13 -5 -17 0 -18 21 -2 44
-3 48 -21 66 -13 12 -18 14 -18 4 0 -7 -6 -4 -13 7 -15 26 -19 101 -4 86 19
-19 27 -12 26 27 0 20 -3 32 -6 25 -3 -9 -11 -7 -26 7 -11 11 -27 20 -34 20
-7 0 -17 9 -23 20 -6 11 -16 20 -22 20 -6 0 -23 13 -39 29 -15 16 -36 31 -46
34 -10 3 299 5 687 5 388 0 716 -4 730 -8z m11725 -268 c18 -2 21 -10 21 -55
0 -68 31 -136 86 -187 78 -74 137 -94 188 -65 37 21 46 18 61 -16 7 -18 23
-45 37 -60 26 -31 27 -29 -27 -33 -8 -1 -16 -7 -19 -14 -2 -6 -8 -10 -13 -6
-5 3 -9 1 -9 -5 0 -5 -8 -8 -17 -6 -10 1 -30 -4 -44 -11 -15 -7 -29 -10 -33
-7 -3 4 -6 1 -6 -5 0 -6 -9 -9 -20 -7 -11 2 -18 0 -15 -6 4 -5 3 -9 -2 -10
-20 -2 -46 -8 -61 -15 -9 -4 -23 -8 -31 -10 -8 -1 -17 -6 -20 -11 -3 -5 -13
-8 -21 -8 -8 0 -21 -6 -28 -15 -12 -13 -12 -13 -6 0 6 12 5 13 -7 3 -12 -10
-18 -10 -29 0 -9 8 -11 9 -6 0 8 -15 -11 -27 -46 -29 -16 -1 -29 -2 -30 -4
-17 -13 -108 -18 -108 -6 0 7 -3 7 -8 1 -4 -5 -18 -11 -32 -12 -14 -1 -56 -5
-95 -8 -118 -9 -480 -20 -549 -16 -5 1 -3 8 4 16 7 9 22 12 38 9 35 -7 181 64
283 139 43 30 90 62 105 72 16 9 64 61 107 114 43 53 131 152 195 219 l115
124 11 -34 c7 -21 18 -34 31 -36z m-8415 -1482 l0 -50 50 0 50 0 0 50 c0 43 3
50 20 50 19 0 20 -7 20 -110 0 -103 -1 -110 -20 -110 -17 0 -20 7 -20 50 l0
50 -50 0 -50 0 0 -50 c0 -43 -3 -50 -20 -50 -19 0 -20 7 -20 110 0 103 1 110
20 110 17 0 20 -7 20 -50z m2116 42 c34 -22 37 -68 7 -103 -12 -15 -11 -22 12
-54 30 -45 31 -55 7 -55 -11 0 -27 16 -40 39 -19 33 -39 51 -58 51 -2 0 -4
-20 -4 -45 0 -38 -3 -45 -20 -45 -19 0 -20 7 -20 110 l0 110 53 0 c28 0 57 -4
63 -8z m-1661 -62 c4 -7 13 -6 25 0 25 14 63 13 78 -2 7 -7 12 -40 12 -80 0
-54 -3 -68 -15 -68 -12 0 -15 13 -15 59 0 40 -5 63 -15 71 -27 23 -45 -5 -45
-71 0 -52 -2 -59 -20 -59 -18 0 -20 7 -20 64 0 50 -4 65 -16 70 -30 11 -44
-13 -44 -75 0 -52 -2 -59 -20 -59 -18 0 -20 7 -20 79 l0 79 55 1 c30 0 57 -4
60 -9z m1119 -12 c9 -12 16 -33 16 -46 l0 -23 26 20 c15 12 40 21 55 21 24 0
29 4 29 25 0 18 5 25 20 25 18 0 20 -7 20 -80 0 -73 -2 -80 -20 -80 -17 0 -20
7 -20 42 l0 42 -17 -24 c-29 -44 -72 -80 -94 -80 -13 0 -19 5 -16 13 3 9 -8
11 -42 9 -37 -3 -50 1 -66 18 -29 32 -27 96 4 121 33 27 86 25 105 -3z m722
14 c37 -24 43 -87 13 -126 -16 -20 -29 -26 -60 -26 -76 0 -114 75 -68 134 16
21 29 26 62 26 23 0 47 -4 53 -8z m763 -218 c17 -4 31 -11 31 -15 0 -12 -131
-97 -168 -110 -16 -5 -52 -36 -81 -69 -29 -33 -56 -60 -61 -60 -14 0 -92 -37
-135 -65 -58 -36 -86 -47 -124 -47 -38 0 -47 7 -56 43 -6 23 -1 31 30 55 30
22 50 29 101 32 54 4 65 8 81 30 38 55 72 81 117 93 37 9 46 16 46 33 0 25 33
60 70 75 29 11 104 14 149 5z m341 -293 c11 -1 11 -4 2 -13 -7 -7 -12 -18 -12
-26 0 -16 -76 -116 -116 -153 -16 -15 -42 -30 -59 -33 -16 -4 -40 -17 -52 -28
-13 -12 -23 -18 -23 -15 0 20 -125 -68 -195 -137 -90 -89 -141 -118 -161 -92
-14 20 7 122 25 118 8 -2 10 5 6 18 -9 29 8 46 88 86 65 32 107 37 107 14 0
-15 46 -5 81 18 19 12 30 22 24 22 -5 0 1 7 13 16 12 8 37 47 54 86 31 68 35
72 93 99 33 15 71 26 85 24 14 -2 32 -4 40 -4z m-932 -100 c2 -24 -7 -38 -49
-75 -42 -38 -58 -46 -89 -46 l-38 0 15 38 c7 20 16 44 19 53 6 19 64 46 109
52 17 2 30 5 30 6 1 0 2 -12 3 -28z m1681 -40 c5 -14 11 -35 13 -45 2 -13 18
-23 51 -33 32 -9 64 -30 98 -62 45 -44 49 -51 39 -70 -13 -24 -87 -81 -105
-81 -7 0 -44 -29 -83 -65 -92 -85 -125 -99 -216 -90 -39 4 -78 9 -86 10 -8 1
-47 8 -86 15 -45 8 -86 10 -110 4 -22 -4 -45 -8 -52 -7 -7 1 -30 -16 -50 -37
-44 -45 -71 -60 -114 -63 -18 -2 -40 -7 -48 -12 -8 -4 -12 -5 -8 0 4 4 3 14
-3 22 -10 11 -15 11 -27 1 -13 -10 -14 -10 -8 0 4 7 1 12 -8 12 -9 0 -16 3
-16 8 1 17 48 61 90 83 25 13 47 27 50 30 13 16 47 26 65 18 32 -12 45 -10 52
9 33 100 117 186 257 263 50 28 116 66 146 85 45 28 64 34 102 33 40 -2 48 -6
57 -28z m-8799 -765 c0 -5 3 -6 7 -3 3 4 12 -1 20 -11 8 -9 12 -11 8 -4 -9 17
0 15 16 -5 8 -9 9 -14 3 -10 -16 9 -25 -18 -12 -31 8 -8 4 -14 -14 -21 -14 -5
-34 -22 -45 -36 -20 -28 -44 -33 -112 -22 -18 3 -30 3 -27 0 3 -3 0 -13 -6
-22 -8 -10 -3 -8 12 4 l25 20 -19 -22 c-11 -13 -25 -23 -33 -23 -8 0 -12 -4
-9 -8 3 -4 -5 -8 -17 -9 -49 -1 -58 -3 -51 -14 5 -8 1 -8 -13 0 -11 6 -22 8
-24 6 -3 -2 -4 8 -3 23 1 15 -3 35 -8 46 -7 13 -7 16 1 12 10 -7 16 6 12 27
-1 5 3 6 8 3 5 -3 12 1 15 10 3 8 10 12 16 9 5 -3 10 0 10 7 0 9 3 9 10 -2 9
-13 10 -13 10 0 0 13 1 13 10 0 8 -12 10 -12 10 5 0 17 2 17 10 5 8 -13 10
-13 10 1 0 9 7 20 16 23 10 4 13 2 8 -7 -4 -6 2 -4 13 6 11 9 26 17 34 17 8 0
20 9 27 20 9 15 22 20 47 18 19 -1 35 -6 35 -12z"/>
<path d="M11790 8340 c-85 -44 -198 -96 -250 -116 -52 -20 -112 -45 -132 -56
-48 -23 -72 -68 -63 -116 7 -37 40 -92 55 -92 5 0 48 23 97 52 111 64 393 220
495 273 89 45 95 61 47 106 -21 20 -41 29 -63 28 -18 0 -94 -32 -186 -79z"/>
<path d="M16490 6040 c14 -9 7 -14 -12 -11 -13 2 -9 -6 9 -20 9 -8 14 -9 10
-3 -4 7 0 17 8 24 14 11 14 9 5 -16 -6 -16 -11 -30 -11 -31 4 -15 -1 -23 -11
-18 -7 4 -4 -1 7 -10 l20 -17 -20 4 c-12 2 -19 -2 -17 -9 1 -7 -4 -13 -12 -13
-9 0 -13 -10 -12 -30 2 -25 0 -27 -13 -17 -12 10 -13 9 -3 -9 9 -18 8 -24 -5
-35 -9 -8 -14 -9 -10 -3 3 6 0 11 -7 11 -8 0 -11 -8 -8 -20 4 -15 2 -18 -9
-12 -12 7 -12 6 -1 -7 10 -13 10 -18 1 -24 -8 -5 -9 -3 -4 6 6 9 4 11 -4 5 -9
-5 -10 -10 -2 -18 18 -18 13 -31 -6 -16 -11 10 -14 10 -9 2 4 -8 2 -13 -4 -13
-6 0 -8 -4 -5 -10 3 -5 1 -10 -4 -10 -6 0 -10 -3 -10 -7 4 -23 -3 -33 -23 -34
-19 -1 -20 -2 -4 -6 17 -5 17 -6 -4 -16 -13 -7 -22 -15 -21 -20 1 -4 -6 -21
-14 -37 -9 -17 -13 -30 -10 -30 3 0 0 -6 -7 -14 -7 -8 -14 -13 -16 -11 -7 7
-38 -31 -35 -41 3 -7 -1 -15 -8 -20 -8 -5 -10 -3 -4 6 5 9 4 11 -4 6 -6 -4 -9
-12 -5 -17 3 -6 -3 -18 -13 -27 -10 -9 -17 -26 -15 -36 3 -15 0 -18 -18 -13
-18 5 -19 3 -8 -10 10 -12 10 -17 -2 -27 -8 -6 -16 -18 -18 -26 -2 -8 -8 -16
-13 -18 -5 -2 -9 -12 -9 -22 0 -10 -6 -21 -12 -23 -10 -4 -10 -6 -1 -6 7 -1
10 -8 7 -16 -6 -14 -8 -13 -21 2 -8 10 -11 12 -8 5 4 -7 -1 -23 -12 -35 -18
-21 -18 -21 2 -7 19 14 19 14 6 -3 -8 -10 -20 -16 -27 -13 -9 3 -11 0 -7 -11
4 -11 3 -14 -6 -9 -6 4 -11 4 -10 -1 3 -11 -19 -63 -26 -63 -4 0 -3 5 1 12 5
7 3 8 -5 3 -7 -4 -11 -18 -8 -31 2 -13 0 -24 -6 -24 -6 0 -7 -3 -4 -7 4 -3 1
-13 -6 -21 -10 -13 -9 -14 3 -8 8 5 3 -3 -12 -18 -16 -15 -28 -36 -28 -46 0
-11 -7 -20 -16 -20 -8 0 -12 -4 -9 -10 3 -5 2 -10 -3 -10 -4 0 -16 -17 -26
-37 -10 -21 -26 -43 -36 -50 -11 -8 -17 -22 -15 -34 3 -15 0 -19 -11 -15 -8 3
-13 2 -10 -3 3 -4 -5 -19 -17 -32 -12 -13 -21 -25 -19 -26 6 -7 -31 -52 -39
-47 -5 3 -6 -10 -4 -28 4 -24 3 -27 -3 -14 -8 19 -9 18 -16 -5 -5 -13 -8 -27
-7 -31 1 -5 -4 -7 -10 -5 -6 1 -14 -4 -17 -12 -3 -9 0 -11 9 -6 11 6 -33 -47
-61 -75 -3 -3 -6 -12 -6 -20 0 -8 -10 -35 -22 -60 -12 -25 -22 -50 -22 -56 0
-5 -14 -23 -32 -40 -17 -16 -28 -23 -24 -16 4 6 4 12 1 12 -12 0 -35 -29 -35
-44 0 -14 48 -16 455 -16 398 0 455 2 455 15 0 8 9 24 20 35 11 11 17 20 13
20 -5 0 -2 4 6 9 7 5 15 21 16 35 2 15 15 42 29 61 14 18 26 36 26 39 0 12 56
125 87 172 17 28 35 63 39 78 3 14 11 30 18 34 11 7 34 48 93 164 18 36 37 68
41 70 9 3 150 287 177 356 13 32 16 59 12 100 -5 50 -10 61 -44 89 -20 17 -41
29 -45 27 -4 -3 -8 -1 -8 4 0 5 -6 9 -12 10 -11 0 -61 16 -133 42 -11 4 -23 8
-27 10 -69 22 -143 60 -143 73 0 8 -8 24 -18 35 -14 15 -15 22 -6 28 7 4 10 3
5 -4 -3 -6 -3 -13 2 -16 4 -3 9 37 10 87 1 51 4 103 7 116 6 34 -19 76 -46 78
-19 2 -20 0 -9 -7z"/>
<path d="M4318 3088 c-8 -7 -23 -19 -33 -26 -11 -6 -40 -26 -65 -42 -25 -16
-47 -31 -50 -32 -10 -5 -110 -159 -110 -170 0 -5 -11 -38 -26 -73 -14 -35 -27
-81 -28 -102 -2 -21 -7 -61 -11 -89 -5 -34 -3 -58 5 -73 6 -13 14 -57 16 -99
3 -63 7 -79 24 -92 12 -9 25 -35 31 -58 5 -23 30 -70 55 -104 37 -50 45 -68
40 -91 -7 -33 12 -67 36 -67 20 0 22 -8 9 -28 -5 -8 -17 -11 -33 -7 -14 4 -48
-1 -78 -11 -43 -14 -61 -15 -94 -6 -23 6 -62 8 -86 6 -47 -6 -140 -42 -140
-55 0 -16 146 -121 214 -154 113 -54 184 -69 321 -70 128 0 245 25 245 51 0 8
6 11 15 8 10 -4 13 -2 10 7 -3 9 -23 15 -50 16 -58 2 -79 17 -63 47 13 24 12
76 -2 90 -6 6 -10 18 -10 29 0 26 76 113 130 148 l47 30 -34 34 c-42 42 -43
75 -3 99 17 10 30 25 29 34 -3 38 0 41 29 27 44 -23 41 3 -6 47 -28 25 -47 36
-59 32 -15 -5 -15 -4 -3 4 12 9 12 15 1 35 -18 34 -5 54 20 31 17 -15 19 -15
25 0 9 23 -4 49 -21 43 -10 -5 -16 6 -21 39 -3 24 -19 63 -35 87 -29 43 -37
77 -18 77 5 0 7 5 4 10 -9 15 7 12 46 -7 46 -22 45 -20 19 -48 -23 -25 -23
-26 -7 -60 9 -20 24 -38 32 -41 20 -8 47 15 40 35 -3 11 0 10 10 -3 12 -16 18
-17 27 -8 16 16 -1 63 -27 77 -44 22 -48 27 -34 36 45 28 81 -14 81 -92 -1
-28 6 -72 14 -97 12 -33 14 -63 9 -115 -8 -75 8 -89 20 -18 4 22 17 52 31 66
13 14 24 28 24 30 0 39 25 164 36 176 11 12 11 26 2 78 -10 52 -9 64 2 71 12
7 11 11 -1 26 -9 11 -9 15 -1 10 25 -15 11 11 -27 48 -43 42 -44 66 -4 66 21
0 23 3 14 14 -6 8 -25 19 -41 26 -17 7 -30 18 -30 26 0 26 -160 120 -186 110
-8 -3 -13 -2 -10 3 9 14 -35 20 -85 12 -25 -4 -54 -4 -65 0 -31 12 -101 10
-116 -3z m300 -302 c28 -14 72 -67 72 -85 0 -7 -13 -8 -32 -3 -36 7 -66 7
-113 -1 -16 -3 -38 -1 -48 4 -16 9 -16 12 -2 39 9 17 15 33 14 37 -2 22 71 28
109 9z"/>
<path d="M4630 1908 c0 -14 7 -31 15 -38 19 -16 20 -89 0 -126 -8 -15 -12 -30
-10 -32 7 -8 98 49 167 105 70 56 100 92 76 94 -7 0 -38 2 -68 3 -30 1 -83 6
-117 11 -63 8 -63 8 -63 -17z"/>
</g>
</svg>
