<?xml version="1.0" standalone="no"?>
<!DOCTYPE svg PUBLIC "-//W3C//DTD SVG 20010904//EN"
 "http://www.w3.org/TR/2001/REC-SVG-20010904/DTD/svg10.dtd">
<svg version="1.0" xmlns="http://www.w3.org/2000/svg"
 width="2000.000000pt" height="2000.000000pt" viewBox="0 0 2000.000000 2000.000000"
 preserveAspectRatio="xMidYMid meet">
<metadata>
Created by potrace 1.15, written by Peter Selinger 2001-2017
</metadata>
<g transform="translate(0.000000,2000.000000) scale(0.100000,-0.100000)"
fill="#000000" stroke="none">
<path d="M9465 19544 c-291 -16 -687 -64 -984 -120 -1171 -221 -2134 -651
-2682 -1194 -244 -242 -392 -475 -474 -743 -57 -189 -56 -176 -62 -1174 l-5
-921 -827 -5 c-868 -4 -879 -5 -1096 -52 -194 -43 -444 -150 -605 -260 -502
-342 -838 -893 -1207 -1980 -261 -769 -367 -1433 -349 -2185 13 -590 89 -1145
252 -1852 125 -543 230 -858 399 -1203 405 -828 1013 -1257 1850 -1306 185
-10 2205 -12 2222 -1 10 6 13 251 16 1072 3 1062 3 1065 25 1163 71 311 192
566 399 840 350 466 927 852 1428 956 55 11 116 24 135 28 19 4 951 10 2070
13 2205 7 2034 2 2270 59 426 101 905 415 1240 811 30 36 57 67 60 70 25 23
181 247 235 335 137 225 256 507 301 716 18 80 19 181 19 2319 l0 2235 -28
128 c-69 323 -180 567 -370 820 -341 453 -894 812 -1627 1057 -530 178 -1115
300 -1700 356 -157 14 -743 26 -905 18z m790 -699 c499 -41 1074 -157 1560
-315 647 -212 1090 -493 1354 -860 108 -149 167 -280 213 -468 25 -106 33
-343 36 -1126 2 -423 0 -527 -10 -524 -7 3 -21 -4 -30 -14 -14 -14 -15 -18 -4
-18 8 0 18 5 21 10 18 29 24 -3 22 -119 -1 -71 -5 -127 -9 -124 -5 2 -8 20 -8
39 0 19 -4 34 -8 34 -5 0 -8 15 -7 33 1 17 -3 35 -9 39 -7 5 -5 8 4 8 9 0 16
9 17 19 1 17 -2 18 -30 10 -18 -5 -33 -9 -35 -9 -2 0 0 -5 4 -11 4 -8 9 -7 16
2 8 11 9 10 5 -3 -3 -9 -3 -19 1 -22 3 -4 7 -14 8 -22 1 -9 -1 -13 -4 -9 -4 4
-7 11 -7 16 0 5 -4 9 -10 9 -5 0 -10 -4 -10 -9 0 -5 -4 -13 -8 -18 -5 -4 -7
-1 -5 7 2 8 -2 14 -9 15 -6 0 -15 4 -20 9 -5 6 -2 6 6 1 11 -6 13 -4 8 8 -3 9
-2 19 3 22 6 4 10 12 10 18 0 7 -8 0 -18 -16 -10 -15 -21 -25 -24 -21 -3 3 -5
-3 -4 -13 0 -11 -6 -18 -16 -18 -10 0 -49 -33 -88 -73 -39 -39 -75 -72 -79
-72 -5 0 -15 -8 -22 -17 -10 -11 -10 -14 -1 -9 6 4 12 3 12 -2 0 -15 -28 -34
-39 -28 -5 4 -24 -7 -41 -24 -29 -28 -30 -34 -5 -31 6 1 1 -6 -9 -14 -23 -18
-40 -20 -30 -3 12 20 -14 1 -103 -74 -24 -21 -49 -38 -54 -38 -6 0 -8 -4 -4
-9 3 -5 -5 -11 -17 -13 -16 -2 -22 -9 -21 -23 1 -11 0 -14 -3 -8 -4 10 -13 9
-37 -3 -17 -9 -37 -22 -44 -29 -14 -15 -102 -75 -271 -187 -143 -94 -244 -154
-357 -211 -33 -16 -67 -35 -75 -41 -13 -11 -162 -82 -280 -134 -229 -102 -480
-188 -832 -286 -35 -10 -58 -22 -58 -30 0 -8 -7 -17 -16 -20 -26 -10 -64 -7
-64 5 0 8 -4 8 -12 1 -7 -5 -42 -13 -78 -17 -36 -4 -94 -13 -130 -21 -230 -49
-602 -99 -950 -128 -383 -31 -507 -36 -975 -41 -697 -8 -1041 -26 -1410 -74
-718 -94 -1331 -249 -1985 -504 -403 -157 -893 -399 -1250 -617 -74 -46 -153
-94 -175 -107 -43 -25 -223 -144 -351 -232 -102 -70 -372 -272 -499 -375 -146
-117 -355 -296 -355 -304 0 -4 -7 -83 -15 -177 -30 -348 -11 -848 45 -1215 39
-252 79 -470 110 -610 11 -52 25 -115 30 -140 76 -390 217 -822 348 -1070 56
-105 138 -223 189 -271 78 -74 214 -148 343 -187 128 -39 190 -43 575 -40
l370 3 6 410 c4 226 9 428 13 450 4 22 16 99 27 170 25 155 83 385 139 550 47
135 49 140 115 285 26 58 54 123 63 145 9 22 20 42 23 45 4 3 17 27 28 53 14
31 25 46 32 41 8 -5 9 -3 4 6 -4 7 -3 15 2 19 5 3 16 20 25 36 33 67 72 132
97 165 15 19 31 46 37 60 6 14 28 45 48 68 20 24 36 50 36 58 0 8 4 14 8 14 8
0 112 126 112 136 0 4 18 26 88 103 78 86 158 166 164 163 5 -1 7 2 6 6 -4 11
169 180 237 233 90 71 106 84 147 120 22 19 56 44 77 55 20 10 54 33 75 51 22
18 45 33 51 33 6 0 27 14 45 30 30 27 49 35 73 31 5 -1 6 3 3 8 -4 5 11 20 31
32 21 13 40 26 43 29 3 4 17 10 32 13 15 4 33 13 40 20 14 13 360 187 373 187
4 0 21 6 38 14 31 13 62 25 72 26 3 0 26 10 51 21 26 11 56 17 68 14 14 -4 17
-3 8 3 -15 10 220 79 256 74 13 -2 21 1 18 6 -3 6 11 12 32 15 20 3 74 14 119
25 45 11 84 18 87 15 2 -3 13 0 23 6 11 5 48 12 84 15 35 2 136 11 224 20 136
13 356 16 1475 16 723 0 1311 -4 1305 -8 -5 -4 -16 -17 -23 -30 -23 -41 -5
-48 126 -47 89 0 119 -3 119 -12 0 -7 -5 -9 -11 -5 -6 5 -60 8 -119 7 -60 0
-111 3 -114 7 -2 5 -9 6 -14 2 -5 -3 -8 0 -7 8 2 8 -6 12 -22 12 -14 -1 -29 4
-33 12 -4 8 -17 14 -27 14 -18 0 -20 -7 -20 -60 0 -33 4 -60 9 -60 5 0 7 14 6
30 -1 17 1 32 5 35 4 3 6 -9 5 -26 -2 -24 2 -33 16 -36 13 -4 19 -15 19 -37 1
-32 22 -71 33 -59 4 3 1 13 -6 21 -16 20 -19 76 -2 62 6 -5 16 -6 20 -2 5 4 5
1 1 -6 -4 -7 -12 -10 -17 -7 -13 9 -11 -9 3 -23 7 -7 8 -12 3 -12 -4 0 0 -9 9
-19 14 -15 15 -24 7 -39 -7 -13 -7 -23 2 -32 10 -12 9 -12 -4 -2 -18 14 -30 6
-22 -14 3 -8 10 -11 17 -7 6 4 5 -1 -3 -10 -7 -9 -10 -17 -6 -17 4 0 2 -6 -4
-14 -9 -10 -8 -16 4 -26 12 -10 16 -9 21 5 7 16 8 16 18 -1 14 -26 16 -43 5
-50 -5 -3 -6 -10 -3 -16 4 -7 2 -8 -4 -4 -7 4 -12 2 -12 -5 0 -7 -3 -9 -6 -6
-4 4 -2 13 5 20 9 11 7 17 -6 28 -15 12 -16 12 -10 -3 3 -10 2 -20 -4 -23 -5
-4 -7 -10 -5 -14 3 -4 -1 -8 -8 -8 -13 0 -15 6 -18 52 -2 21 -7 25 -35 25 -32
0 -33 -1 -33 -41 0 -39 1 -40 29 -36 29 5 30 3 33 -36 2 -33 7 -41 20 -39 25
4 48 -50 27 -64 -5 -3 -8 0 -7 8 2 7 -3 12 -10 10 -6 -1 -11 4 -10 10 2 7 -3
12 -10 10 -8 -1 -11 2 -7 8 4 6 -8 10 -29 10 -35 0 -36 -1 -36 -40 l0 -41
-180 3 c-99 2 -180 2 -180 1 0 -15 16 -33 29 -33 14 0 14 2 1 10 -12 7 -10 9
7 7 12 0 19 -5 17 -9 -3 -5 68 -7 158 -6 116 2 163 6 163 15 0 6 3 15 7 19 4
3 6 -3 3 -14 l-4 -21 591 -1 c326 0 594 -2 596 -5 3 -3 -375 -5 -840 -5 -697
0 -845 2 -845 13 0 8 6 14 13 14 7 0 11 -4 8 -9 -3 -4 2 -8 11 -8 9 0 14 4 11
8 -2 4 11 8 29 8 18 0 31 -4 29 -8 -3 -4 0 -8 6 -8 7 0 10 6 7 13 -2 6 -24 13
-48 15 -138 8 -169 6 -169 -13 0 -8 5 -15 11 -15 5 0 8 4 5 8 -3 5 1 9 8 9 8
0 12 -6 9 -13 -4 -11 -210 -14 -1086 -18 -1072 -5 -1143 -6 -1162 -18 -10 -6
-45 -13 -115 -22 -42 -6 -326 -82 -355 -95 -11 -5 -36 -15 -55 -21 -44 -16
-76 -29 -170 -69 -41 -17 -83 -31 -93 -31 -10 0 -16 -4 -13 -9 3 -5 -11 -16
-32 -25 -20 -8 -60 -28 -87 -43 -28 -16 -57 -29 -65 -31 -8 -2 -24 -12 -36
-23 -11 -10 -24 -19 -28 -19 -4 0 -22 -11 -40 -25 -18 -14 -36 -25 -40 -25 -8
0 -69 -42 -77 -54 -4 -5 -19 -8 -34 -8 -15 0 -22 -4 -16 -7 7 -4 -5 -19 -29
-37 -23 -16 -57 -44 -77 -61 -20 -18 -42 -33 -49 -33 -7 0 -14 -4 -16 -8 -1
-4 -57 -57 -123 -117 -66 -60 -129 -120 -140 -132 -11 -13 -42 -47 -70 -76
-75 -79 -125 -138 -125 -147 0 -5 -9 -14 -20 -20 -11 -6 -20 -16 -20 -23 0 -7
-8 -22 -17 -33 -24 -27 -63 -82 -63 -89 0 -3 -14 -19 -30 -35 -17 -16 -30 -36
-30 -45 0 -8 -3 -15 -7 -15 -5 0 -21 -25 -37 -56 -16 -31 -35 -58 -43 -61 -7
-3 -13 -14 -13 -24 0 -10 -7 -19 -15 -19 -8 0 -15 -5 -15 -11 0 -5 5 -7 11 -3
6 3 0 -13 -14 -37 -13 -24 -33 -60 -43 -79 -11 -19 -22 -36 -26 -38 -5 -2 -8
-10 -8 -17 0 -24 -77 -175 -85 -167 -5 4 -5 2 -2 -4 8 -14 -22 -106 -37 -116
-6 -4 -8 -8 -4 -8 4 0 -2 -24 -13 -52 -12 -29 -22 -60 -24 -68 -2 -8 -11 -42
-19 -75 -21 -75 -44 -184 -64 -300 -12 -74 -16 -224 -21 -820 l-6 -730 -800 0
-800 0 -115 24 c-173 36 -410 127 -433 167 -4 8 -15 14 -24 14 -16 0 -107 63
-120 83 -5 7 -17 17 -28 24 -11 6 -18 17 -17 25 2 7 0 10 -4 5 -4 -4 -18 3
-31 15 -19 17 -21 24 -10 37 10 14 10 14 -4 3 -16 -12 -25 -4 -123 108 -37 42
-117 154 -159 222 -55 88 -155 289 -182 363 -10 28 -21 55 -25 60 -17 26 -41
106 -34 116 4 7 3 9 -3 6 -6 -4 -25 41 -47 111 -21 64 -46 144 -57 177 -10 33
-28 98 -39 145 -10 47 -31 130 -45 185 -32 126 -99 448 -145 695 -32 172 -71
485 -96 780 -17 194 -23 639 -10 795 42 542 121 922 299 1450 142 420 249 689
367 925 274 546 576 821 997 907 84 17 251 18 3341 18 l3252 -1 0 348 0 348
-2090 0 -2090 0 5 823 c3 452 7 856 10 898 4 73 52 247 77 276 6 7 7 13 3 13
-4 0 5 17 21 37 15 20 21 33 13 28 -11 -7 -11 -5 1 11 8 10 17 21 20 24 3 3
34 43 70 90 105 139 358 371 472 433 13 7 48 29 78 48 594 384 1711 710 2660
778 204 14 680 12 885 -4z m2008 -6706 c-3 -10 0 -19 6 -19 7 0 11 -20 11 -50
0 -43 -3 -50 -20 -50 -11 0 -20 -4 -20 -10 0 -6 -27 -10 -60 -10 -53 0 -60 2
-60 20 0 11 5 20 10 20 15 0 12 40 -2 41 -7 0 -3 5 10 11 12 6 22 15 22 20 0
4 6 8 14 8 8 0 27 11 43 24 31 27 53 24 46 -5z m-1132 -224 c40 1 45 -1 45
-20 0 -12 -6 -22 -13 -22 -9 0 -10 4 -2 14 13 15 12 15 -33 17 -42 3 -63 -11
-46 -31 6 -8 7 -13 2 -11 -5 2 -9 -1 -9 -7 0 -5 3 -9 7 -8 8 3 5 -18 -5 -34
-4 -6 -3 -14 2 -17 5 -4 14 6 20 21 10 25 11 25 5 3 -8 -36 -6 -62 7 -85 4 -5
5 -25 4 -43 -3 -34 9 -52 19 -27 3 8 1 17 -5 20 -5 4 -6 12 -2 18 13 21 14 49
1 41 -6 -4 -8 -3 -4 4 3 6 2 13 -3 16 -10 6 -10 24 0 41 4 6 5 18 4 28 -3 15
-1 16 11 6 12 -10 18 -6 16 12 -1 3 5 6 12 6 7 0 13 -6 13 -13 0 -7 -3 -12 -6
-11 -3 1 -6 -2 -6 -8 0 -5 3 -9 6 -8 3 1 6 -4 6 -12 0 -8 -5 -11 -10 -8 -5 3
-7 0 -5 -8 3 -8 1 -23 -5 -34 -6 -11 -11 -36 -13 -55 -1 -19 -5 -46 -9 -60 -4
-14 -7 -30 -7 -37 -1 -7 -6 -11 -12 -10 -5 1 -10 -2 -11 -8 0 -5 -3 -14 -6
-20 -3 -5 -5 -54 -4 -107 0 -53 -2 -94 -5 -92 -3 3 -5 49 -6 102 -1 102 -8
136 -28 125 -7 -4 -7 -1 1 9 7 8 11 18 8 21 -3 4 -2 4 3 1 7 -5 8 -9 11 -35 0
-5 5 -8 10 -5 12 8 8 30 -9 52 -12 14 -12 16 -1 10 9 -6 12 -5 9 5 -3 8 -10
13 -15 12 -6 -1 -10 6 -9 15 0 9 -3 18 -9 20 -5 1 -10 -7 -10 -17 0 -11 -3
-22 -6 -25 -3 -4 -5 5 -5 18 1 14 5 28 8 31 11 11 -3 35 -16 28 -8 -4 -8 -2 1
7 6 7 9 20 6 29 -4 9 -3 13 1 9 7 -6 13 -28 15 -52 2 -16 16 4 16 22 0 9 6 16
13 15 6 -2 12 1 12 5 0 16 -13 22 -25 12 -8 -6 -11 -2 -11 15 0 13 2 23 6 22
3 -1 6 3 7 8 0 6 -3 9 -7 8 -7 -2 -6 26 0 35 2 1 3 6 4 11 0 5 4 13 8 17 4 4
2 14 -5 23 -10 13 -10 14 3 5 8 -6 35 -10 61 -9z m-300 -99 c-6 -7 -6 -18 -2
-25 11 -17 19 -3 17 31 -2 30 9 29 17 -2 3 -11 1 -23 -4 -26 -6 -4 -6 -10 0
-18 6 -8 6 -17 0 -26 -9 -13 -9 -13 -7 0 2 9 -1 17 -7 18 -5 1 -10 -8 -11 -20
-1 -31 7 -43 17 -27 6 10 8 8 8 -6 0 -11 2 -29 5 -40 2 -11 5 -22 5 -25 1 -3
5 2 10 10 6 8 7 19 3 25 -9 13 -9 164 -1 159 4 -2 6 -39 4 -81 -3 -77 -3 -77
16 -52 24 30 24 46 2 28 -16 -12 -17 -12 -7 1 6 8 10 35 9 60 -1 25 0 39 2 32
3 -6 9 -9 14 -6 6 4 6 10 0 18 -8 9 -7 13 2 13 7 0 13 -11 13 -23 0 -12 -3
-22 -7 -21 -4 1 -6 -2 -5 -8 0 -5 4 -9 7 -8 3 1 6 -4 6 -12 0 -8 -3 -13 -6
-12 -3 1 -6 -2 -6 -8 0 -5 4 -9 8 -7 4 1 3 -6 -2 -17 -6 -10 -7 -22 -3 -26 4
-5 1 -4 -7 0 -11 6 -13 4 -8 -8 3 -9 3 -16 -1 -14 -4 1 -7 -2 -7 -8 0 -5 3 -9
7 -8 4 2 4 -7 2 -20 -3 -12 -6 -27 -6 -34 -1 -7 -6 -11 -11 -10 -5 1 -12 -4
-15 -12 -2 -8 0 -11 5 -8 5 3 10 0 10 -8 0 -8 -5 -13 -11 -12 -6 1 -10 -8 -10
-20 1 -12 -3 -21 -9 -20 -5 1 -12 -4 -15 -12 -3 -8 0 -11 6 -7 7 4 9 -1 6 -16
-3 -13 -6 -28 -6 -35 -1 -7 -6 -11 -12 -10 -6 1 -10 -4 -8 -10 1 -7 -4 -12
-10 -10 -7 1 -12 -4 -10 -11 1 -8 -2 -11 -8 -7 -5 3 -10 -1 -10 -10 0 -9 4
-14 8 -11 4 2 8 -6 8 -19 0 -14 -2 -22 -5 -19 -4 3 -6 10 -6 15 0 5 -4 9 -10
8 -5 0 -9 -8 -8 -17 2 -10 0 -12 -3 -4 -4 9 -9 10 -19 2 -22 -19 -40 25 -22
53 8 12 13 31 11 42 -2 10 1 25 7 31 6 8 4 16 -8 25 -15 12 -16 12 -10 -3 3
-10 2 -20 -2 -22 -5 -3 -7 -17 -6 -31 2 -14 -1 -23 -7 -19 -5 3 -9 0 -7 -7 6
-44 -2 -69 -21 -69 -21 0 -26 16 -10 40 5 9 5 19 -1 26 -7 8 -6 14 1 19 6 4 7
12 2 18 -12 18 -9 52 6 50 10 -3 17 10 10 20 -1 1 4 11 10 23 9 16 8 26 -3 42
-11 15 -12 26 -5 44 10 21 10 20 5 -6 -5 -25 -4 -28 8 -17 16 13 17 27 3 49
-6 10 -11 10 -22 1 -7 -6 -12 -15 -9 -19 3 -5 1 -11 -4 -14 -10 -7 -9 20 2 30
3 4 2 16 -4 26 -8 14 -8 23 0 31 5 5 7 17 2 26 -11 23 -8 46 7 47 6 1 14 3 17
4 3 1 10 3 15 4 6 0 9 6 8 11 -2 6 -6 9 -9 8 -3 -1 -6 5 -6 12 0 9 5 11 11 7
19 -14 71 -7 68 8 -2 10 3 8 17 -4 14 -13 18 -23 12 -30z"/>
<path d="M9420 18174 c-91 -7 -193 -18 -226 -23 -34 -6 -78 -11 -98 -11 -21 0
-56 -4 -79 -9 -23 -5 -76 -15 -117 -21 -260 -42 -506 -98 -815 -187 -66 -19
-131 -38 -145 -42 -23 -7 -22 -9 25 -41 85 -57 141 -107 186 -167 23 -32 50
-64 58 -71 9 -7 14 -14 12 -15 -3 -2 40 -98 49 -107 3 -3 6 -9 6 -15 1 -5 10
-41 20 -80 12 -47 18 -107 18 -185 0 -146 -15 -214 -75 -337 -14 -29 -22 -53
-17 -53 5 0 6 -5 3 -10 -4 -6 -11 -7 -17 -4 -6 4 -8 -1 -3 -16 6 -18 4 -22 -8
-17 -9 3 -23 -6 -36 -24 -12 -16 -17 -29 -11 -29 5 0 10 4 10 9 0 13 37 1 52
-17 10 -12 10 -14 1 -8 -7 4 -13 2 -13 -3 0 -6 -5 -10 -12 -9 -7 2 -13 -6 -14
-18 0 -11 5 -21 12 -21 8 0 14 9 14 20 0 14 5 17 17 13 10 -4 14 -4 10 0 -14
14 26 44 58 44 26 0 34 5 37 23 3 13 1 32 -2 43 -7 18 -2 19 76 19 46 0 84 -4
84 -8 0 -5 5 -5 12 -1 13 8 296 7 309 -2 5 -3 6 -10 3 -16 -4 -7 -9 -6 -14 2
-5 8 -9 7 -13 -5 -4 -9 -3 -13 3 -10 6 3 10 1 10 -4 0 -6 -7 -11 -15 -11 -8 0
-15 4 -15 10 0 5 -7 6 -17 3 -11 -4 -14 -3 -9 5 10 17 -21 27 -39 12 -8 -7
-15 -20 -14 -29 0 -12 2 -12 8 3 5 13 10 16 14 9 4 -6 0 -19 -9 -27 -11 -12
-12 -16 -2 -16 10 0 9 -3 -2 -10 -22 -14 -30 -12 -24 8 4 10 2 13 -3 7 -7 -9
-53 -16 -53 -8 0 2 9 13 20 25 11 12 20 29 19 37 0 14 -1 14 -6 1 -9 -21 -30
-40 -37 -33 -3 4 1 14 9 23 13 14 13 17 0 17 -8 0 -12 -4 -9 -8 8 -13 -19 -23
-66 -24 -52 -2 -68 4 -49 17 11 8 11 9 -1 5 -8 -2 -20 3 -27 12 -9 12 -12 13
-13 2 0 -7 11 -22 25 -33 14 -11 25 -24 25 -30 0 -7 -12 -1 -27 13 -14 13 -23
19 -20 13 4 -7 0 -15 -9 -18 -23 -9 -34 -7 -34 4 0 5 7 7 15 4 11 -5 14 0 13
19 -1 14 -6 23 -10 21 -5 -3 -6 -10 -3 -15 4 -5 2 -9 -4 -9 -5 0 -12 8 -14 18
-4 16 -5 16 -6 0 0 -10 -5 -18 -11 -18 -5 0 -6 8 -3 17 6 15 5 16 -9 3 -9 -8
-12 -16 -7 -18 5 -2 9 -8 9 -13 0 -4 -7 -6 -15 -3 -18 7 -20 30 -2 37 6 3 3 5
-8 4 -16 -1 -20 -8 -20 -31 1 -17 -2 -45 -6 -62 -3 -18 -3 -38 2 -45 5 -8 3
-17 -4 -21 -9 -6 -9 -8 0 -8 6 0 15 5 18 10 11 18 35 11 35 -10 0 -17 7 -20
50 -20 49 0 50 1 50 30 0 17 5 30 11 30 5 0 7 -5 3 -11 -4 -8 0 -8 15 0 11 7
20 15 20 19 -4 25 2 82 9 82 4 0 7 -15 6 -32 -1 -27 0 -28 3 -5 2 15 8 25 13
22 12 -7 2 -58 -13 -67 -9 -6 -9 -8 1 -8 6 0 12 -4 12 -10 0 -5 -6 -7 -14 -4
-10 4 -12 -2 -9 -20 5 -24 10 -26 54 -26 42 0 49 3 50 20 3 44 0 41 37 39 15
0 15 -1 -2 -8 -21 -8 -33 -51 -15 -51 6 0 9 9 6 20 -3 12 0 20 8 20 8 0 11 -7
8 -19 -3 -10 0 -22 5 -25 6 -4 8 2 5 14 -4 15 0 20 13 20 16 0 17 -2 4 -10 -9
-6 -10 -10 -3 -10 23 0 24 20 1 29 -13 6 -16 10 -8 11 12 0 12 2 2 9 -11 6
-10 11 3 25 12 12 13 16 3 17 -7 0 -4 4 7 9 17 7 17 9 3 9 -12 1 -15 6 -11 17
4 11 8 12 13 4 6 -10 8 -10 12 0 5 17 58 2 58 -17 0 -8 6 -13 13 -10 11 4 13
-6 8 -56 -1 -4 -10 -3 -21 3 -10 6 -23 10 -27 9 -22 -4 -32 3 -26 17 3 9 9 11
12 6 3 -5 16 -12 29 -16 17 -6 22 -3 22 11 0 13 -3 14 -8 6 -7 -10 -12 -10
-27 0 -12 10 -14 16 -7 21 7 4 12 2 12 -3 0 -6 4 -11 10 -11 5 0 7 7 3 16 -3
8 -11 13 -19 10 -7 -3 -15 -2 -17 2 -2 4 -3 2 -1 -4 1 -7 -6 -21 -17 -33 -12
-12 -15 -21 -8 -21 7 0 9 -3 6 -7 -4 -3 -2 -12 4 -19 6 -8 9 -20 6 -28 -7 -17
18 -15 35 2 19 19 32 14 17 -5 -11 -16 -11 -16 1 -5 8 7 15 17 15 23 0 5 5 8
10 7 5 -2 9 -7 7 -13 -2 -5 0 -6 5 -2 4 5 8 12 8 15 0 4 4 13 8 20 5 7 2 14
-7 18 -18 7 -22 34 -5 34 5 0 7 -6 3 -12 -5 -9 -2 -8 9 1 16 12 17 10 13 -23
-4 -24 -1 -36 7 -37 7 0 53 1 102 2 50 1 133 2 186 2 85 0 95 2 96 19 1 11 -3
16 -9 12 -7 -5 -8 -2 -2 7 14 23 14 81 -1 102 -12 17 -13 15 -8 -24 3 -24 2
-40 -3 -36 -4 4 -9 18 -10 30 -1 12 -5 29 -8 37 -5 12 0 16 24 15 16 0 28 -4
26 -10 -2 -5 1 -20 5 -32 5 -13 4 -25 -1 -28 -14 -8 -1 -32 19 -38 10 -2 20
-16 23 -30 4 -19 1 -24 -10 -19 -10 3 -13 1 -8 -6 3 -6 2 -13 -4 -17 -6 -4
-10 7 -10 27 0 26 3 30 11 18 9 -12 10 -12 7 -1 -3 8 -10 17 -17 19 -9 3 -12
-8 -10 -39 2 -26 0 -43 -6 -41 -6 2 -9 7 -8 11 1 4 -5 8 -13 8 -7 0 -12 -3 -9
-5 3 -3 -2 -13 -10 -22 -14 -15 -14 -19 2 -31 16 -12 17 -12 5 2 -17 22 9 47
27 26 6 -8 9 -16 6 -19 -3 -3 5 -13 17 -24 23 -19 23 -19 5 2 -9 11 -14 24
-10 27 9 10 25 8 19 -2 -3 -4 3 -16 13 -25 15 -13 18 -14 18 -1 0 8 -4 12 -8
9 -4 -2 -10 0 -14 6 -3 5 1 10 11 10 14 0 15 2 3 17 -8 10 -9 14 -2 10 6 -4
14 -3 17 2 7 10 -20 9 -30 -2 -14 -14 -26 -7 -14 8 7 8 19 15 26 15 22 0 6 51
-23 76 -25 21 -25 22 -6 33 23 12 66 -10 45 -23 -7 -4 -12 -2 -12 3 0 6 -7 11
-16 11 -12 0 -9 -6 10 -21 14 -11 23 -25 20 -31 -5 -7 -2 -8 7 -2 18 12 52 12
61 -1 4 -5 11 -6 15 -1 4 5 2 11 -4 13 -7 3 -13 17 -13 33 0 16 -3 30 -7 33
-5 2 -2 2 6 0 15 -4 31 13 31 32 -1 6 -6 2 -13 -7 -9 -11 -18 -14 -28 -7 -11
7 -10 9 6 10 11 0 15 3 8 5 -7 3 -21 1 -32 -5 -13 -7 -21 -8 -24 -1 -3 6 -4 5
-3 -2 2 -7 11 -11 21 -10 16 3 17 1 6 -12 -7 -8 -9 -20 -5 -27 4 -7 2 -10 -7
-7 -8 3 -14 9 -15 14 0 5 -6 20 -13 34 -11 23 -11 23 -7 3 2 -13 0 -23 -5 -23
-5 0 -9 7 -9 15 0 8 -5 15 -11 15 -6 0 -9 -7 -5 -15 3 -8 1 -15 -4 -15 -9 0
-10 6 -10 38 0 4 6 8 13 8 6 1 17 3 22 4 14 3 77 1 100 -4 11 -3 22 -5 25 -5
3 -1 6 -34 7 -74 0 -46 -2 -65 -7 -52 -8 18 -9 18 -9 2 -1 -15 -4 -16 -22 -7
-43 24 -82 -3 -56 -37 6 -9 4 -15 -6 -19 -9 -3 -14 -14 -12 -26 6 -27 15 -36
16 -15 3 38 5 42 16 42 6 0 15 4 20 8 4 5 1 7 -7 5 -9 -2 -14 3 -12 11 2 8 -3
18 -10 22 -8 6 -2 8 17 8 17 0 24 -3 18 -6 -18 -7 -16 -20 2 -20 8 0 12 4 9 9
-3 4 0 8 5 8 6 0 11 -6 11 -12 0 -8 3 -9 8 -3 12 17 116 13 127 -5 14 -23 16
-72 2 -63 -7 3 -5 -2 4 -13 9 -10 15 -32 14 -49 -2 -16 0 -34 3 -40 4 -5 7
-21 8 -35 1 -14 2 -25 3 -25 2 0 5 -11 7 -25 4 -19 2 -22 -8 -12 -12 12 -16
26 -23 72 -1 14 -4 25 -5 25 -1 0 -3 16 -4 36 0 20 -7 43 -14 52 -9 10 -9 17
-3 22 14 8 9 42 -9 58 -10 10 -11 9 -4 -3 5 -8 10 -24 11 -35 3 -16 1 -17 -9
-7 -7 7 -13 18 -13 24 0 6 -8 12 -18 14 -17 2 -17 1 -3 -15 9 -10 13 -21 9
-25 -5 -4 -3 -6 2 -4 6 2 10 -1 10 -7 0 -5 -3 -9 -7 -8 -4 2 -5 -7 -2 -20 3
-12 6 -27 8 -34 1 -7 11 -22 21 -33 11 -12 20 -31 22 -43 3 -37 8 -54 20 -68
6 -8 9 -22 7 -32 -1 -11 1 -16 4 -12 4 4 7 10 8 13 2 18 17 41 23 37 4 -2 8 2
8 10 0 8 -5 13 -11 12 -6 -1 -10 8 -10 20 1 13 -3 20 -7 17 -13 -8 -5 31 10
49 7 9 11 21 10 29 -3 26 1 39 11 33 6 -4 8 -11 4 -16 -3 -5 -2 -8 3 -7 4 2 8
-1 8 -7 0 -5 -4 -8 -10 -7 -5 2 -7 0 -2 -4 4 -4 -1 -16 -10 -26 -12 -13 -14
-21 -6 -29 6 -6 10 -17 9 -23 -2 -6 -1 -8 1 -3 3 4 10 4 16 0 7 -3 3 3 -7 15
-11 12 -17 24 -14 27 7 8 39 -31 42 -52 5 -27 -6 -39 -16 -17 -5 12 -6 5 -3
-20 5 -33 3 -37 -9 -27 -18 15 -34 -5 -17 -22 9 -9 11 -7 6 8 -7 20 -6 20 9 1
9 -11 16 -14 16 -7 0 7 5 9 11 5 8 -5 8 -1 0 14 -14 26 10 50 28 28 8 -10 9
-16 1 -21 -5 -3 -10 -1 -10 6 0 7 -3 9 -6 6 -4 -4 -2 -13 4 -20 7 -8 10 -17 7
-20 -3 -4 -2 -4 3 -1 4 3 8 10 8 15 3 22 5 23 14 9 6 -9 10 -10 10 -3 0 6 -5
15 -10 18 -6 4 -7 13 -1 23 5 9 9 20 10 25 1 4 4 7 9 6 4 -1 6 -5 4 -10 -1 -5
1 -8 5 -8 21 3 26 -2 13 -12 -13 -9 -13 -10 2 -6 24 8 30 -4 13 -29 -9 -15
-11 -25 -5 -29 6 -4 9 -3 8 2 -1 4 4 19 12 33 8 14 15 32 15 40 0 8 6 25 13
38 7 12 10 22 6 22 -4 0 0 8 9 18 10 10 14 21 11 25 -3 3 -2 12 2 19 5 7 9 22
10 33 2 11 5 33 9 50 3 16 4 27 0 24 -7 -7 -16 -44 -19 -79 -1 -14 -6 -23 -11
-20 -5 3 -8 12 -7 22 2 9 -2 19 -8 23 -6 3 -7 11 -4 17 4 6 10 5 16 -3 8 -11
9 -10 5 2 -3 9 0 23 6 30 10 11 9 11 -4 1 -9 -6 -19 -8 -23 -4 -4 4 -6 2 -4
-5 3 -10 -1 -13 -17 -13 -3 0 -1 10 5 23 10 20 9 19 -9 -3 -21 -26 -21 -71 1
-97 6 -7 7 -13 3 -13 -5 0 -1 -8 8 -17 18 -21 19 -31 4 -58 -6 -11 -11 -23
-12 -27 0 -14 -19 -3 -22 11 -1 8 -4 24 -7 36 -4 15 -1 22 9 22 10 0 13 -8 10
-25 -2 -13 -1 -22 2 -18 12 12 12 40 1 53 -18 22 -38 -4 -31 -39 4 -23 3 -29
-6 -24 -6 4 -8 13 -5 19 4 7 -4 1 -19 -12 -16 -15 -23 -29 -19 -40 5 -14 4
-14 -12 -2 -16 13 -15 17 16 48 18 19 31 35 28 36 -2 1 2 12 11 24 9 13 19 20
24 15 5 -4 4 0 -1 8 -5 8 -9 18 -10 23 -1 4 -3 9 -4 12 -8 15 -5 33 8 55 8 14
11 22 7 17 -5 -4 -17 1 -27 10 -11 10 -18 12 -16 6 3 -10 -1 -13 -18 -13 -4 0
5 15 19 34 15 18 24 36 21 39 -3 3 1 4 10 3 8 -1 19 -6 23 -11 4 -4 3 -5 -3
-2 -14 8 -37 -17 -26 -28 4 -5 1 -5 -7 0 -9 5 -12 3 -9 -6 3 -8 18 -14 34 -14
16 0 34 -3 39 -7 6 -4 11 2 12 13 1 12 -3 17 -9 13 -7 -4 -8 -2 -4 5 4 6 12 9
17 6 5 -4 9 -1 9 6 0 7 3 10 6 7 3 -4 1 -15 -5 -26 -10 -19 -7 -20 80 -21 98
-1 116 -6 100 -25 -6 -7 -8 -15 -6 -18 3 -3 6 -31 6 -62 1 -42 5 -56 16 -56 8
0 12 4 8 9 -3 5 -1 12 5 16 5 3 10 11 10 16 0 6 -4 8 -8 5 -14 -8 -8 40 7 58
12 15 8 21 -12 17 -5 -1 -5 3 -2 9 5 8 12 6 24 -4 15 -14 19 -14 33 0 11 11
18 13 23 5 3 -6 3 -10 -2 -9 -4 2 -8 -1 -8 -7 0 -5 3 -9 6 -8 4 1 6 -8 5 -20
-1 -15 4 -21 14 -19 12 3 13 1 2 -10 -7 -7 -18 -13 -25 -13 -7 0 -12 -5 -12
-12 0 -6 -4 -15 -9 -20 -5 -4 -6 -3 -3 3 4 7 1 17 -7 23 -11 9 -15 7 -21 -6
-5 -10 -9 -20 -9 -23 -1 -3 -5 -11 -10 -19 -6 -10 -5 -12 2 -7 17 11 15 -32
-2 -50 -8 -8 -22 -14 -30 -14 -12 0 -16 -10 -16 -39 0 -34 3 -39 20 -36 13 2
20 -2 20 -11 0 -9 -5 -12 -11 -8 -8 4 -8 1 -1 -12 6 -11 9 -40 7 -65 -2 -25 1
-52 6 -60 7 -12 9 -12 9 1 0 13 1 13 10 0 9 -13 10 -13 10 0 0 13 1 13 10 0
10 -16 12 -12 14 35 1 17 6 37 11 44 5 10 4 12 -3 7 -13 -8 -17 6 -5 18 18 18
10 34 -18 32 -16 -1 -29 1 -29 6 0 4 12 8 26 8 14 0 23 4 19 9 -3 5 -1 13 5
16 6 4 9 1 8 -5 -2 -7 5 -14 15 -15 14 -3 17 4 17 39 0 28 4 43 13 43 8 0 11
-13 9 -42 l-4 -41 71 0 72 1 -3 38 c-1 21 -5 40 -9 43 -4 2 -5 14 -3 27 4 20
4 20 -5 2 -5 -11 -5 -25 0 -31 9 -11 2 -24 -13 -24 -12 0 -7 61 5 78 13 17 37
-3 32 -28 -2 -11 1 -22 6 -25 5 -4 7 -11 3 -16 -3 -5 0 -8 8 -7 8 2 13 -6 12
-20 -1 -21 9 -22 12 -1 3 22 5 23 14 9 6 -10 4 -21 -8 -35 -15 -17 -15 -18 0
-7 13 10 17 10 22 0 5 -13 1 29 -6 47 -1 6 2 11 7 13 6 1 11 -2 11 -8 1 -5 3
-13 4 -17 1 -5 2 -11 1 -16 0 -4 5 -6 11 -5 7 2 12 -4 10 -12 -2 -9 10 -2 27
14 l31 30 -20 21 c-11 12 -17 25 -13 28 3 4 8 22 9 40 3 44 3 44 13 28 5 -8 8
-23 5 -34 -2 -11 -1 -17 3 -13 3 3 13 0 22 -6 9 -7 13 -9 9 -4 -4 5 -3 16 1
25 6 11 4 23 -5 36 -8 10 -14 14 -14 8 0 -7 4 -14 10 -18 5 -3 7 -12 4 -20 -4
-8 -10 -12 -16 -9 -5 3 -7 8 -4 11 3 3 1 13 -3 22 -6 11 -4 23 5 36 18 24 18
41 0 26 -11 -9 -16 -9 -22 0 -4 8 -3 9 5 5 6 -4 14 0 18 10 5 14 8 13 19 -7 7
-13 15 -23 18 -21 3 1 6 0 6 -3 0 -3 0 -8 0 -11 0 -4 -7 -1 -15 6 -10 9 -15 9
-15 1 0 -6 5 -11 11 -11 5 0 8 -4 5 -9 -3 -5 1 -14 9 -21 12 -10 13 -16 3 -29
-12 -14 -11 -14 5 -2 15 12 17 10 17 -23 0 -20 4 -36 9 -36 5 0 7 14 6 30 -1
17 1 32 4 35 4 2 7 -10 7 -28 l-1 -32 222 0 c150 -1 219 3 215 10 -4 6 0 6 9
-1 8 -6 35 -10 62 -9 36 1 47 -3 48 -14 1 -9 2 -28 3 -43 3 -26 0 -28 -31 -28
-25 0 -33 -4 -33 -17 0 -16 14 -18 143 -20 l143 -2 -1 42 c0 23 -4 47 -7 53
-4 6 3 10 16 10 12 0 23 -6 23 -13 0 -10 -3 -10 -16 0 -12 10 -14 9 -8 -6 4
-10 7 -24 7 -30 0 -7 5 -6 11 3 9 13 10 13 6 0 -2 -8 -10 -14 -16 -13 -6 2 -9
-7 -7 -20 1 -12 7 -20 12 -17 5 3 8 8 7 11 -1 3 5 6 13 6 10 0 11 -4 4 -11
-15 -15 -13 -49 3 -40 10 6 10 4 0 -7 -7 -7 -13 -30 -13 -51 l0 -39 483 3 482
3 -3 -42 -4 -42 44 -3 c29 -2 42 -7 40 -16 -1 -8 2 -11 8 -7 6 3 8 11 5 16 -4
5 5 10 19 10 35 2 39 3 55 13 9 6 12 5 8 -1 -4 -6 36 -10 113 -9 l120 0 0 395
c0 407 -10 590 -37 675 -9 27 -35 71 -62 102 -25 29 -68 80 -95 114 -27 33
-69 73 -92 88 -24 15 -43 32 -44 37 0 6 -21 21 -47 35 -26 14 -56 33 -65 42
-22 22 -228 128 -358 185 -246 107 -414 160 -845 266 -581 144 -1134 194
-1665 151z m-490 -1380 c0 -8 -4 -12 -10 -9 -16 10 -11 -1 7 -16 11 -10 14
-10 9 -1 -4 7 -2 12 4 12 6 0 8 5 4 12 -5 8 -2 9 9 5 10 -3 17 -3 17 1 0 6 70
7 198 3 13 -1 22 -7 22 -16 0 -8 4 -15 8 -15 4 0 8 -11 8 -25 0 -34 -16 -32
-17 3 l-1 27 -8 -30 c-7 -29 -8 -30 -9 -4 -1 21 -7 28 -28 32 -36 7 -43 0 -9
-9 37 -9 35 -39 -4 -39 -16 0 -32 6 -35 14 -3 9 0 11 10 7 8 -3 15 0 15 5 0 6
-9 9 -20 6 -19 -5 -25 4 -20 28 1 6 -2 6 -7 2 -4 -5 -8 -14 -8 -19 0 -6 -5
-13 -12 -15 -7 -3 -9 4 -6 19 3 13 2 20 -2 16 -4 -4 -8 -22 -7 -40 1 -27 -1
-30 -9 -15 -6 9 -7 27 -4 38 5 15 4 19 -5 14 -7 -5 -10 -19 -6 -37 3 -18 2
-27 -4 -23 -6 3 -11 16 -11 28 -1 16 -3 17 -6 5 -3 -13 -14 -16 -43 -15 -21 0
-37 4 -35 7 2 3 -3 14 -11 25 -8 10 -14 14 -14 8 0 -7 4 -14 9 -17 5 -3 7 -15
4 -27 -5 -18 -8 -15 -19 17 -8 22 -14 40 -14 41 0 1 12 4 28 6 15 2 28 5 30 6
1 0 2 -6 2 -15z"/>
<path d="M6800 17240 c-8 -5 -11 -10 -7 -10 4 0 2 -6 -5 -14 -7 -8 -17 -13
-21 -13 -5 1 -25 -18 -45 -42 -20 -25 -30 -41 -22 -36 9 5 7 -1 -5 -16 -35
-42 -62 -102 -47 -107 13 -4 17 -42 4 -42 -20 0 -32 -57 -31 -148 l1 -97 10
60 c5 33 7 70 5 82 -3 15 2 23 16 27 12 3 16 9 11 17 -4 8 -3 10 5 5 6 -4 9
-12 6 -17 -4 -5 -1 -9 4 -9 6 0 11 6 11 13 0 8 3 8 8 2 9 -14 38 -12 35 1 -1
6 4 11 12 11 8 0 13 -5 12 -11 -1 -5 3 -10 8 -11 6 0 16 -4 24 -9 11 -7 13 -5
8 10 -6 16 -5 17 5 4 7 -8 20 -15 28 -15 9 0 16 -10 17 -25 1 -22 1 -22 -4 -2
-2 12 -8 22 -13 22 -10 0 -3 -27 11 -46 5 -6 7 -13 4 -16 -3 -2 2 -5 10 -5 8
0 12 4 9 8 -10 17 19 20 34 4 16 -17 16 -17 -2 -11 -14 5 -16 3 -8 -6 15 -19
19 -84 5 -81 -13 3 -11 -22 2 -34 4 -4 5 -3 2 3 -9 16 13 32 46 32 27 0 28 -1
10 -22 -18 -21 -18 -21 3 -3 11 9 24 14 28 10 10 -11 -7 28 -24 55 -8 12 -21
22 -28 22 -7 0 -12 6 -10 13 4 24 -14 58 -30 55 -9 -2 -20 -7 -23 -12 -4 -4
-6 4 -6 18 0 14 4 26 9 26 5 0 6 -4 3 -10 -3 -5 -1 -10 4 -10 15 0 14 12 -8
62 -30 70 -54 188 -52 261 1 37 0 67 -1 67 -2 0 -10 -5 -18 -10z"/>
<path d="M10765 16340 c4 -19 -2 -20 -101 -20 -95 0 -104 -2 -104 -19 0 -17
12 -18 220 -18 208 0 220 1 220 18 0 15 -8 19 -40 19 -33 0 -40 3 -40 20 0 18
-7 20 -79 20 -74 0 -80 -1 -76 -20z"/>
<path d="M10027 11836 c5 -15 3 -17 -8 -11 -12 7 -12 6 -1 -7 9 -11 10 -18 2
-23 -6 -3 -8 -11 -4 -16 3 -5 7 -32 8 -59 3 -44 2 -49 -12 -38 -13 11 -14 11
-6 -2 5 -8 10 -28 10 -45 1 -16 2 -32 4 -35 6 -17 6 -79 0 -75 -10 6 -7 -21 3
-31 15 -15 6 -26 -10 -13 -16 12 -17 12 -7 -1 13 -17 13 -57 0 -80 -7 -12 -6
-13 5 -2 21 19 34 14 15 -6 -15 -18 -15 -19 11 -16 16 1 30 3 33 4 3 1 8 2 11
2 3 -1 5 11 4 26 -1 15 4 34 12 44 11 12 12 18 2 24 -7 4 -10 3 -6 -3 4 -6 0
-16 -9 -23 -13 -12 -14 -10 -10 14 3 15 11 35 18 44 12 15 11 16 -4 4 -15 -12
-16 -11 -14 12 1 14 9 33 17 43 13 17 13 17 -4 4 -17 -13 -18 -12 -13 13 3 15
11 35 18 44 12 15 11 16 -4 3 -11 -8 -18 -9 -18 -3 0 6 4 13 8 16 10 6 9 43
-3 69 -4 11 -1 27 11 45 15 24 16 25 1 13 -15 -12 -17 -11 -14 5 1 11 6 24 9
29 4 6 3 17 -3 25 -7 13 -9 13 -9 0 0 -13 -1 -13 -10 0 -8 13 -10 13 -10 1 0
-11 -4 -9 -15 5 -15 18 -15 18 -8 0z"/>
<path d="M5855 5680 c-4 -6 -10 -8 -15 -5 -5 3 -7 -3 -5 -15 2 -11 -1 -22 -6
-26 -5 -3 -8 0 -7 7 2 7 -4 13 -12 14 -8 1 -13 7 -12 15 2 8 0 11 -4 7 -11
-11 -14 -38 -4 -32 5 3 12 0 16 -7 4 -7 4 -10 -1 -6 -4 4 -14 3 -22 -4 -11 -9
-13 -8 -11 3 2 9 -4 13 -16 11 -10 -2 -16 1 -12 6 3 5 -1 9 -8 9 -7 0 -13 -6
-13 -13 0 -7 3 -11 7 -9 4 2 7 -2 7 -10 0 -13 -3 -12 -18 1 -10 9 -16 21 -12
27 3 6 1 7 -6 3 -9 -6 -8 -14 5 -34 17 -26 17 -27 -2 -11 -10 9 -26 14 -34 11
-13 -5 -13 -3 0 14 14 17 13 18 -1 7 -9 -7 -18 -10 -22 -7 -3 3 -4 -2 -2 -13
1 -10 9 -16 16 -15 8 2 10 0 6 -4 -12 -13 -37 -13 -34 -1 1 6 -5 11 -13 12 -8
1 -13 7 -12 15 2 8 0 11 -4 7 -10 -10 -14 -37 -6 -34 4 1 8 -1 10 -5 2 -8 -5
-8 -25 -1 -7 3 -11 8 -9 12 3 4 -6 7 -19 7 -13 0 -21 -4 -19 -8 3 -5 10 -6 15
-2 5 3 8 0 7 -7 -2 -7 2 -13 9 -14 23 0 22 -11 -2 -11 -13 0 -22 3 -19 7 2 4
-3 10 -12 13 -12 5 -15 2 -10 -9 3 -9 2 -14 -3 -11 -5 3 -14 0 -20 -8 -7 -8
-18 -13 -25 -12 -22 3 -46 27 -39 39 3 6 1 7 -6 3 -9 -6 -9 -13 3 -30 12 -19
12 -23 1 -23 -8 0 -13 5 -12 11 1 5 -4 11 -10 12 -7 1 -14 2 -15 4 -10 7 -37
6 -32 -1 3 -5 10 -7 15 -3 5 3 8 0 7 -8 -2 -7 3 -12 10 -10 8 1 11 -2 7 -8 -4
-7 -16 -3 -34 9 -21 15 -28 17 -28 6 0 -8 4 -12 8 -10 3 3 13 -3 20 -13 12
-15 12 -16 -2 -5 -12 10 -18 10 -28 0 -10 -9 -12 -9 -9 3 2 10 -3 14 -16 12
-10 -2 -16 1 -12 6 3 5 -1 9 -9 9 -11 0 -12 -4 -4 -14 13 -15 -2 -18 -17 -3
-7 7 -11 6 -11 -4 0 -8 4 -13 8 -10 4 2 11 -1 15 -8 4 -7 4 -10 -1 -6 -4 4
-14 3 -22 -4 -11 -9 -13 -8 -11 3 2 9 -4 13 -16 11 -10 -2 -16 1 -12 6 3 5 -1
9 -9 9 -11 0 -12 -4 -4 -14 13 -15 -2 -18 -17 -3 -7 7 -11 6 -11 -4 0 -8 4
-13 8 -10 4 2 11 -1 15 -8 4 -7 4 -10 -1 -6 -4 4 -15 2 -23 -4 -15 -13 -49
-21 -37 -10 4 4 11 7 16 7 5 0 8 4 7 10 -2 5 -9 8 -17 7 -7 -2 -11 1 -7 6 3 5
-1 9 -9 9 -11 0 -12 -4 -4 -14 13 -15 -2 -18 -17 -3 -7 7 -11 6 -11 -4 0 -8 4
-13 8 -10 4 2 11 -1 15 -8 4 -7 4 -10 -1 -6 -4 4 -15 2 -23 -4 -17 -14 -44
-20 -37 -8 3 5 1 11 -5 15 -6 4 -7 11 -4 17 4 6 2 8 -4 4 -6 -3 -9 -15 -7 -26
2 -11 -1 -23 -7 -26 -6 -4 -8 -2 -4 4 3 6 2 13 -4 17 -6 4 -7 11 -4 17 4 7 2
8 -5 4 -6 -4 -8 -12 -5 -18 5 -7 2 -8 -7 -2 -20 12 -40 14 -33 3 3 -5 10 -7
15 -3 5 3 8 0 7 -8 -2 -7 3 -12 10 -10 8 1 11 -2 7 -9 -5 -8 -10 -8 -18 0 -18
18 -31 12 -16 -6 13 -16 12 -17 -3 -4 -10 7 -15 18 -11 25 4 7 1 6 -9 -1 -8
-7 -18 -10 -22 -6 -12 13 -33 11 -33 -3 0 -10 4 -11 12 -4 9 7 14 6 18 -4 4
-11 1 -13 -10 -9 -10 4 -14 2 -9 -5 3 -6 1 -14 -5 -18 -7 -4 -9 -3 -6 3 4 6 0
16 -8 23 -8 7 -12 17 -8 24 3 6 2 7 -3 3 -5 -5 -9 -14 -9 -19 0 -6 -6 -13 -14
-16 -8 -3 -11 0 -8 5 3 5 0 10 -7 10 -7 0 -13 -6 -13 -13 0 -7 4 -11 8 -9 3 3
13 -3 20 -13 7 -9 9 -14 5 -10 -5 4 -16 2 -24 -5 -10 -7 -13 -8 -9 -1 4 7 0
17 -8 24 -8 7 -12 17 -8 24 3 6 2 7 -3 3 -5 -5 -9 -14 -9 -20 0 -5 -6 -12 -14
-15 -8 -3 -11 0 -8 5 3 5 0 10 -7 10 -7 0 -13 -6 -13 -13 0 -7 4 -11 8 -9 3 3
13 -3 20 -13 7 -9 9 -14 5 -10 -5 4 -16 2 -24 -5 -10 -7 -13 -8 -9 -1 4 7 0
17 -8 24 -8 7 -12 17 -8 24 3 6 2 7 -2 3 -11 -10 -16 -39 -6 -32 4 2 8 -2 8
-10 0 -8 -3 -13 -5 -10 -3 3 -12 -1 -21 -8 -14 -11 -14 -10 -2 6 9 12 10 17 2
17 -7 0 -10 4 -7 8 3 5 -1 9 -9 9 -11 0 -12 -4 -4 -14 9 -9 8 -13 0 -13 -7 0
-10 -4 -6 -9 3 -5 1 -12 -4 -16 -6 -3 -8 4 -6 16 3 17 2 19 -10 9 -8 -7 -12
-17 -8 -24 3 -6 2 -7 -3 -3 -5 5 -9 13 -9 19 0 6 -8 12 -18 14 -9 1 -15 -2
-11 -7 3 -5 11 -7 17 -3 7 3 3 -2 -8 -11 -11 -9 -19 -19 -18 -23 1 -4 0 -9 -3
-11 -2 -2 -1 6 1 19 3 18 2 20 -10 10 -8 -7 -13 -16 -10 -20 3 -5 0 -12 -6
-16 -7 -4 -10 -3 -6 2 3 5 -1 18 -9 29 -14 19 -15 18 -9 -15 6 -33 5 -34 -9
-15 -8 11 -12 24 -8 30 3 5 -1 5 -9 -1 -8 -6 -22 -10 -31 -9 -22 4 -22 1 -1
-16 9 -8 14 -9 10 -3 -3 6 0 11 8 11 10 0 12 -4 5 -12 -5 -7 -6 -16 -2 -21 4
-4 0 -3 -9 4 -9 6 -19 9 -22 5 -4 -3 -7 0 -7 7 0 9 -5 7 -14 -6 -16 -21 -17
-1 -2 26 7 12 7 13 -5 2 -8 -7 -14 -17 -14 -22 0 -6 -4 -9 -10 -7 -5 1 -9 6
-7 10 1 5 -2 6 -8 2 -6 -3 -8 -10 -5 -15 3 -5 1 -11 -5 -15 -6 -4 -7 -11 -4
-17 4 -6 2 -8 -4 -4 -6 3 -9 16 -7 28 3 11 1 17 -3 14 -4 -4 -7 -12 -7 -17 0
-5 -4 -8 -10 -6 -5 1 -9 6 -7 10 1 5 -2 6 -8 2 -6 -3 -8 -10 -5 -15 3 -5 1
-11 -5 -15 -6 -4 -7 -11 -4 -17 4 -6 2 -8 -4 -4 -6 3 -9 16 -7 28 3 11 1 17
-3 14 -4 -4 -7 -12 -7 -17 0 -5 -4 -8 -10 -6 -5 1 -9 6 -7 12 2 5 0 6 -5 2 -4
-5 -8 -13 -8 -18 0 -5 -4 -8 -10 -6 -5 1 -9 6 -7 10 1 5 -2 5 -8 2 -8 -5 -6
-13 5 -25 12 -14 13 -20 4 -26 -7 -4 -10 -3 -6 3 4 6 0 14 -9 17 -12 4 -15 2
-10 -9 3 -8 0 -14 -7 -12 -7 1 -11 -3 -10 -9 1 -6 -5 -11 -12 -11 -9 0 -11 4
-6 11 6 7 3 17 -7 26 -14 13 -15 12 -9 -3 5 -14 2 -16 -18 -13 -16 3 -23 1
-19 -6 4 -6 1 -8 -7 -6 -8 3 -13 11 -11 17 1 7 -2 10 -8 6 -6 -3 -7 -12 -3
-18 13 -20 12 -36 -3 -48 -8 -6 -14 -8 -14 -4 0 4 -6 3 -12 -2 -15 -12 -62 9
-50 22 4 5 1 5 -6 1 -7 -4 -10 -12 -7 -17 4 -5 2 -9 -3 -9 -17 0 -22 13 -10
29 10 13 10 14 -2 4 -15 -14 -24 -46 -10 -38 5 3 12 1 15 -5 5 -8 11 -8 20 0
10 8 15 8 21 -2 4 -7 3 -10 -1 -5 -5 4 -17 -1 -27 -10 -11 -10 -18 -13 -16 -8
2 6 -1 10 -7 10 -5 0 -9 -4 -7 -8 1 -5 -2 -6 -8 -2 -6 3 -8 11 -5 16 4 5 1 9
-5 9 -6 0 -9 4 -6 8 3 5 -1 9 -9 9 -11 0 -12 -4 -4 -14 6 -7 8 -13 4 -13 -4 0
-2 -6 4 -14 8 -10 9 -16 1 -21 -6 -4 -9 -3 -8 2 2 4 -1 8 -7 8 -5 0 -9 -3 -8
-6 1 -3 -5 -6 -12 -6 -11 0 -12 4 -4 13 6 8 6 14 0 18 -12 8 -25 -30 -15 -45
4 -8 3 -9 -5 -5 -7 5 -10 20 -7 38 2 16 2 27 -2 23 -4 -4 -7 -11 -7 -16 0 -5
-4 -8 -10 -6 -5 1 -9 6 -7 10 1 5 -2 5 -8 2 -8 -5 -5 -14 7 -27 18 -20 17 -21
-2 -11 -11 5 -27 9 -35 8 -8 -1 -22 4 -30 9 -13 10 -13 9 -1 -6 7 -10 17 -15
22 -12 5 3 8 2 7 -3 -2 -4 2 -8 7 -8 6 0 9 4 7 8 -1 5 3 5 9 2 8 -5 8 -10 0
-18 -12 -12 -43 -19 -37 -8 3 4 -4 12 -15 19 -15 10 -19 10 -17 0 2 -7 -2 -12
-9 -13 -19 0 -26 -14 -15 -28 9 -10 8 -14 -3 -14 -7 0 -14 3 -13 6 0 3 0 13
-1 21 -1 13 -3 13 -10 1 -6 -9 -6 -23 0 -35 10 -20 10 -20 -5 -2 -9 10 -13 23
-9 29 3 6 1 7 -6 3 -6 -4 -9 -19 -7 -33 3 -14 2 -23 -1 -19 -3 3 -12 1 -20 -6
-11 -9 -13 -8 -11 3 2 8 -4 13 -14 11 -17 -3 -19 13 -3 38 7 13 6 13 -7 2 -19
-15 -18 -58 2 -54 11 3 11 0 0 -12 -13 -17 -25 -22 -16 -7 3 5 -1 14 -9 21 -8
7 -13 16 -10 20 3 5 1 11 -4 15 -6 3 -8 -3 -5 -15 2 -11 6 -30 9 -41 2 -12 1
-18 -3 -15 -4 4 -8 12 -8 17 -3 22 -5 23 -14 9 -6 -9 -5 -20 3 -30 10 -13 10
-13 -5 -2 -17 14 -18 28 -3 52 7 12 6 13 -7 3 -8 -7 -19 -9 -24 -5 -4 4 -3 0
4 -9 12 -16 7 -29 -10 -29 -5 0 -6 6 -2 13 4 6 4 9 -1 5 -4 -4 -15 -2 -24 4
-9 7 -5 0 8 -14 13 -15 28 -25 34 -21 6 4 7 1 3 -6 -5 -7 -11 -10 -14 -7 -3 3
-13 -1 -22 -9 -14 -13 -16 -12 -17 8 -2 15 0 18 6 8 5 -7 11 -9 14 -4 3 5 -2
14 -12 20 -13 8 -18 8 -19 0 -3 -35 -10 -51 -25 -53 -10 -1 -15 1 -13 4 2 4
-8 16 -23 27 -23 17 -24 17 -11 1 19 -25 21 -43 4 -57 -8 -6 -14 -8 -14 -4 0
5 -8 1 -18 -8 -17 -15 -18 -15 -19 6 -2 15 0 18 6 8 6 -9 11 -10 15 -2 4 6 11
9 16 6 5 -3 11 -1 15 5 3 5 1 10 -5 10 -6 0 -9 4 -5 9 3 5 0 13 -7 17 -7 4
-10 4 -6 -1 13 -13 -13 -37 -27 -25 -8 7 -12 5 -13 -5 -1 -8 -3 -22 -4 -30 -1
-8 -11 -23 -22 -32 -12 -10 -18 -14 -14 -9 4 5 2 16 -5 25 -11 14 -10 14 6 2
9 -7 17 -12 18 -10 5 20 4 61 -1 64 -4 3 -7 -5 -6 -18 1 -13 -5 -22 -14 -22
-10 0 -15 -9 -14 -27 1 -15 -3 -25 -8 -22 -4 3 -6 9 -4 13 3 4 1 13 -5 21 -6
11 -9 12 -9 2 0 -7 -5 -10 -10 -7 -8 5 -7 12 2 23 12 15 11 16 -5 3 -15 -12
-16 -16 -4 -30 8 -9 17 -23 21 -31 6 -12 5 -12 -6 1 -7 9 -19 14 -27 11 -8 -3
-11 0 -7 6 3 6 1 14 -6 18 -7 4 -10 4 -6 -1 4 -4 2 -15 -5 -23 -10 -13 -9 -14
3 -7 8 4 12 5 8 0 -4 -4 -3 -14 3 -21 7 -8 6 -14 -2 -20 -7 -4 -9 -3 -6 3 4 6
-2 18 -13 28 -11 10 -20 15 -20 10 0 -4 -8 -1 -17 6 -17 13 -17 12 -3 -5 17
-22 21 -44 9 -52 -5 -3 -6 -10 -3 -16 4 -7 2 -8 -5 -4 -9 6 -9 11 0 22 9 11 9
14 0 14 -7 0 -10 4 -6 9 3 5 0 13 -7 17 -7 4 -10 4 -6 -1 4 -4 3 -14 -3 -21
-7 -9 -7 -19 1 -36 9 -20 9 -21 -2 -6 -7 9 -18 25 -25 35 -10 14 -11 14 -7 2
3 -10 0 -20 -5 -24 -6 -3 -9 -10 -7 -14 3 -4 -1 -8 -9 -8 -13 0 -13 3 0 17 14
15 14 18 -2 31 -15 11 -16 11 -6 -1 10 -11 10 -17 -3 -31 -16 -18 -11 -44 7
-34 15 10 10 -1 -7 -15 -12 -11 -15 -11 -12 1 2 8 -5 14 -17 14 -15 0 -20 -6
-19 -23 1 -12 -1 -20 -4 -17 -9 9 -32 -17 -25 -29 4 -6 1 -6 -9 2 -12 10 -17
10 -27 -1 -6 -8 -8 -16 -5 -20 5 -5 -21 -2 -36 3 -3 1 -9 2 -13 1 -5 -1 -6 3
-2 9 5 8 11 8 20 0 9 -7 16 -6 24 4 9 10 9 16 1 21 -8 5 -6 14 7 28 12 15 13
18 2 9 -9 -6 -19 -8 -23 -4 -4 4 -6 0 -4 -8 2 -9 -3 -14 -12 -12 -8 2 -12 0
-7 -4 4 -4 0 -15 -9 -25 -17 -19 -10 -44 8 -33 7 5 8 2 3 -6 -6 -10 -12 -8
-27 9 -10 13 -18 17 -18 10 0 -7 8 -22 18 -33 13 -16 13 -18 1 -8 -21 15 -32
4 -16 -17 10 -14 10 -14 -4 -4 -9 7 -19 9 -23 5 -4 -4 -13 -7 -19 -7 -7 -1
-11 -7 -9 -15 2 -8 0 -12 -4 -7 -4 4 -18 -3 -32 -15 -13 -13 -27 -22 -30 -20
-4 1 -7 -2 -7 -7 0 -5 -3 -13 -7 -17 -4 -3 -6 3 -3 14 2 12 -1 24 -6 28 -7 4
-6 10 0 18 8 9 7 13 -2 13 -10 0 -13 -14 -12 -44 1 -24 -1 -46 -6 -48 -4 -3
-6 6 -3 19 2 14 0 28 -6 31 -6 4 -7 11 -4 17 4 7 2 8 -5 4 -9 -6 -9 -11 -1
-21 8 -9 8 -15 0 -20 -5 -3 -10 -1 -10 6 0 7 -3 9 -6 6 -4 -4 -1 -14 6 -22 11
-13 11 -16 0 -13 -17 4 -20 -21 -6 -42 9 -13 8 -13 -5 -3 -9 7 -19 9 -23 5 -4
-4 -13 -7 -19 -7 -7 -1 -11 -7 -9 -14 1 -7 -2 -10 -7 -7 -5 4 -11 3 -14 -1 -2
-5 -2 -3 -1 4 2 7 -1 15 -7 19 -7 4 -7 10 0 18 8 9 7 13 -3 13 -8 0 -12 -12
-11 -33 2 -18 0 -32 -4 -31 -3 1 -6 -2 -6 -8 0 -5 4 -9 9 -7 5 2 4 -3 -2 -11
-7 -8 -8 -18 -4 -23 4 -4 0 -3 -10 4 -18 14 -18 33 0 55 9 11 10 17 2 22 -6 4
-9 1 -8 -7 2 -7 -3 -12 -10 -10 -8 1 -11 -1 -8 -6 2 -4 1 -14 -4 -22 -5 -9 -4
-20 3 -29 10 -12 9 -13 -2 -6 -11 6 -13 4 -8 -9 4 -10 3 -15 -3 -11 -5 3 -7
20 -6 39 3 23 -1 33 -11 33 -9 0 -10 -4 -4 -10 6 -6 6 -19 1 -32 -6 -15 -4
-27 3 -34 9 -10 9 -12 -3 -9 -8 2 -14 -2 -15 -9 0 -7 -6 -18 -14 -25 -12 -11
-12 -10 -5 2 5 8 9 18 10 23 1 4 2 8 3 10 2 1 4 13 7 27 l4 25 -13 -23 c-7
-12 -16 -20 -20 -16 -4 4 -2 12 3 19 7 8 5 12 -4 12 -14 0 -16 -13 -5 -32 4
-5 4 -19 2 -30 -2 -11 -5 -25 -5 -32 -1 -7 -6 -11 -12 -10 -6 1 -10 -4 -9 -10
2 -7 -2 -12 -9 -10 -7 1 -12 -3 -13 -10 0 -7 -7 -18 -15 -25 -12 -11 -12 -11
-2 4 8 10 9 19 3 22 -5 4 -13 -3 -16 -15 -4 -11 -9 -18 -12 -16 -2 3 0 14 5
24 7 12 7 25 1 34 -7 11 -9 9 -9 -9 0 -13 -4 -21 -9 -18 -11 7 -9 25 4 46 7
13 6 13 -7 2 -16 -13 -18 -28 -7 -47 9 -15 3 -43 -17 -73 -10 -15 -19 -30 -19
-34 0 -3 -3 -9 -6 -13 -4 -3 -6 5 -5 17 1 14 -4 22 -12 20 -8 -1 -11 2 -7 8 3
6 11 7 17 4 6 -4 8 -2 4 4 -3 6 -1 14 5 18 7 4 9 3 5 -4 -3 -6 -2 -13 2 -16 5
-3 14 6 20 19 8 17 8 25 1 25 -6 0 -8 4 -4 9 3 5 1 12 -4 16 -6 3 -8 -5 -5
-19 3 -21 1 -24 -16 -21 -11 2 -19 -1 -17 -8 1 -7 -4 -11 -11 -9 -8 1 -11 -1
-8 -6 3 -5 -3 -24 -13 -43 -10 -19 -17 -47 -16 -62 1 -15 -1 -30 -5 -32 -4 -3
-7 4 -6 15 0 11 -3 19 -8 19 -5 0 -13 5 -17 13 -6 9 -9 6 -9 -10 0 -13 -4 -21
-9 -17 -5 3 -8 18 -5 33 3 18 2 23 -5 13 -9 -15 -9 -25 4 -55 8 -18 9 -18 21
-1 12 16 13 16 11 -3 0 -11 -5 -20 -10 -19 -5 1 -12 -4 -15 -12 -3 -9 0 -11 9
-6 8 5 11 4 6 -1 -5 -5 -14 -9 -20 -9 -5 0 -12 -6 -15 -14 -3 -8 0 -11 7 -7
15 10 14 1 -3 -13 -10 -9 -13 -7 -12 6 1 10 7 28 13 39 10 18 10 24 -2 34 -12
10 -16 8 -23 -10 -4 -12 -12 -21 -17 -21 -6 0 -10 -7 -10 -17 0 -9 -7 -17 -15
-17 -8 0 -15 -9 -15 -20 0 -11 -5 -20 -12 -20 -17 0 -28 -14 -28 -36 0 -10 -4
-18 -10 -17 -5 2 -9 7 -7 11 1 5 -2 6 -8 2 -8 -5 -8 -11 0 -20 8 -9 8 -15 0
-20 -5 -3 -10 -23 -10 -43 0 -24 3 -32 9 -24 4 7 6 25 3 39 -3 17 -1 24 6 19
6 -4 9 -14 6 -24 -5 -14 -3 -14 10 2 16 20 12 41 -6 30 -7 -4 -8 -2 -4 5 4 6
12 8 18 5 7 -5 8 -2 3 7 -7 12 -6 12 7 1 14 -11 17 -10 22 5 8 26 7 38 -3 38
-5 0 -13 3 -17 7 -3 4 3 6 14 3 17 -3 20 1 16 23 -3 21 -2 23 6 12 8 -12 10
-13 10 -1 0 8 3 11 6 8 4 -4 1 -13 -5 -21 -8 -9 -8 -16 -2 -20 13 -9 22 23 15
57 -3 18 -1 26 6 22 5 -3 14 4 19 17 6 13 10 16 10 8 0 -8 -6 -23 -14 -33 -7
-11 -11 -25 -8 -33 3 -7 -9 -35 -26 -60 -17 -26 -28 -51 -24 -57 3 -6 1 -7 -5
-3 -10 6 -23 -10 -34 -39 -1 -5 -7 -9 -12 -7 -5 2 -6 -4 -3 -12 4 -9 2 -18 -4
-22 -6 -4 -5 -12 3 -22 12 -16 11 -16 -6 -2 -17 13 -19 13 -14 0 3 -8 -3 -26
-13 -39 -22 -27 -25 -46 -6 -35 6 4 8 3 4 -1 -4 -5 -14 -10 -22 -11 -13 -2
-12 2 0 27 13 25 13 29 1 29 -17 0 -15 25 3 43 11 10 12 7 6 -13 l-6 -25 20
25 c11 13 17 28 14 33 -3 5 -9 4 -13 -2 -4 -7 -6 7 -6 31 1 24 6 50 11 58 7
13 6 13 -7 2 -10 -8 -15 -24 -12 -48 1 -19 -1 -32 -6 -29 -5 3 -12 0 -16 -6
-5 -8 -3 -9 6 -4 8 5 11 3 8 -6 -3 -8 -11 -13 -17 -11 -7 1 -10 -2 -7 -7 4 -5
1 -13 -4 -16 -8 -5 -7 -12 3 -23 12 -15 12 -21 0 -47 l-13 -30 5 31 c4 20 1
35 -8 42 -11 9 -14 8 -14 -3 0 -8 4 -12 9 -9 4 3 8 -2 8 -11 0 -10 -5 -13 -12
-9 -7 5 -8 3 -3 -5 4 -7 3 -23 -3 -34 -6 -12 -13 -30 -16 -40 -3 -10 -11 -15
-16 -12 -6 4 -9 1 -8 -7 2 -7 -3 -12 -10 -10 -8 1 -11 -2 -7 -8 3 -6 11 -8 16
-5 5 4 9 -1 9 -10 0 -9 -5 -13 -10 -10 -6 4 -10 3 -9 -2 1 -4 0 -11 -1 -15 -1
-5 -4 -12 -5 -18 -1 -5 -3 -11 -5 -12 -7 -10 -7 -37 1 -32 5 3 9 -2 9 -11 0
-9 -4 -14 -9 -11 -4 3 -7 -15 -6 -39 2 -25 0 -43 -4 -41 -4 3 -7 -6 -7 -19 0
-13 3 -22 6 -20 4 2 7 -11 7 -30 0 -19 -3 -32 -7 -30 -3 2 -6 -7 -6 -20 0 -13
4 -21 8 -19 4 3 8 -2 8 -11 0 -9 -4 -14 -8 -11 -5 3 -9 -1 -9 -9 0 -8 5 -13
10 -12 5 1 11 -8 13 -21 2 -13 0 -21 -5 -18 -11 7 -8 -20 4 -31 4 -4 5 -3 1 4
-3 6 -2 14 3 17 14 9 21 -21 7 -33 -9 -7 -17 -7 -26 2 -12 10 -12 9 -2 -4 6
-9 8 -20 4 -25 -4 -4 1 -2 11 5 16 13 18 12 13 -13 -3 -16 -1 -24 5 -20 6 3 8
-5 5 -20 -3 -15 0 -25 6 -23 6 1 12 -5 13 -13 2 -8 7 -24 11 -34 6 -15 4 -17
-7 -11 -8 5 -11 4 -6 0 4 -5 14 -10 22 -11 12 -2 13 2 4 18 -6 11 -8 22 -6 25
3 2 10 -5 16 -16 13 -23 4 -74 -10 -65 -5 3 -6 11 -3 17 4 7 4 9 -1 5 -4 -4
-15 -2 -24 4 -9 7 -6 1 7 -13 12 -14 19 -30 15 -34 -5 -5 0 -3 10 4 10 8 17 9
17 3 0 -6 -4 -13 -9 -16 -10 -7 -9 -31 2 -42 3 -4 5 3 2 14 -2 12 0 24 6 27 8
6 12 -7 12 -47 0 -9 4 -16 10 -15 14 3 16 -24 3 -43 -6 -8 -1 -6 12 4 25 22
30 11 6 -15 -10 -11 -12 -19 -4 -24 6 -3 9 -3 8 2 -2 4 2 8 7 8 5 0 9 -3 8 -7
-2 -5 3 -7 10 -5 7 1 12 -7 11 -20 -1 -12 3 -21 9 -20 6 1 12 -4 13 -10 1 -7
3 -16 4 -20 1 -5 2 -12 1 -17 -1 -5 6 -3 15 5 16 12 17 12 11 -3 -3 -10 -3
-17 1 -15 4 1 7 -3 7 -8 0 -6 -4 -9 -9 -7 -5 2 -4 -4 4 -12 14 -17 25 -22 15
-7 -3 5 -1 12 4 15 8 5 26 -40 23 -56 -1 -5 4 -7 11 -5 6 1 11 -4 9 -11 -1 -8
2 -11 7 -7 12 7 33 -29 23 -40 -4 -3 0 -5 8 -3 8 2 14 -3 12 -10 -1 -8 2 -11
7 -8 5 4 14 -2 20 -11 6 -10 11 -13 11 -6 0 6 -5 15 -10 18 -6 4 -8 11 -4 16
3 6 12 3 19 -8 7 -10 11 -21 8 -26 -2 -4 -1 -6 4 -5 4 2 8 -1 8 -7 0 -5 -4 -9
-9 -7 -5 2 -5 -3 1 -10 6 -7 11 -17 11 -21 0 -5 2 -11 5 -13 2 -3 4 3 3 13 0
10 4 19 9 21 6 1 10 -7 10 -17 0 -11 4 -23 8 -28 5 -4 7 -3 5 2 -2 6 2 10 7
10 6 0 8 -4 7 -10 -9 -26 -10 -45 -2 -50 4 -3 7 3 5 12 -1 10 1 25 6 34 9 17
-12 45 -24 33 -4 -4 -4 3 -2 15 2 12 0 19 -5 16 -10 -6 -62 54 -55 65 3 4 -2
13 -10 20 -8 7 -15 9 -15 4 0 -5 -9 2 -20 16 -11 14 -19 21 -18 15 2 -5 0 -11
-4 -12 -18 -6 -20 -2 -7 14 8 9 9 14 3 10 -6 -3 -10 5 -10 23 0 21 3 27 11 20
7 -5 14 -8 17 -5 2 3 5 -2 5 -10 0 -11 -4 -12 -14 -4 -8 7 -13 8 -13 1 0 -11
30 -38 39 -35 3 1 5 -5 3 -14 -2 -8 1 -12 6 -9 11 7 35 -19 38 -41 2 -8 11
-24 20 -35 17 -18 19 -18 31 -2 11 15 12 13 10 -12 -1 -19 2 -28 10 -27 7 2
12 -3 10 -10 -1 -6 4 -11 10 -10 7 2 12 -3 10 -10 -1 -6 3 -11 9 -10 6 1 11
-7 10 -18 -1 -21 -18 -27 -25 -8 -2 8 1 9 10 3 12 -7 12 -5 0 9 -17 22 -17 22
-17 -12 0 -17 4 -29 10 -28 6 1 10 -4 9 -10 -2 -7 3 -12 10 -10 6 1 11 -4 9
-11 -1 -8 2 -11 7 -8 9 6 29 -13 29 -27 0 -5 3 -11 5 -14 3 -3 4 3 3 14 -2 10
2 24 8 32 8 11 8 13 -1 7 -9 -5 -11 -2 -6 10 5 15 7 15 15 0 5 -9 14 -14 19
-10 5 3 8 2 7 -3 -2 -4 2 -8 7 -8 5 0 9 4 7 8 -1 5 2 6 8 2 7 -4 8 -11 1 -18
-10 -13 11 -52 22 -40 4 3 2 11 -3 18 -7 8 -5 12 3 12 8 0 14 -6 14 -14 0 -17
-37 -50 -38 -35 -3 21 -4 27 -12 40 -5 7 -13 9 -19 6 -6 -4 -8 -2 -4 4 3 6 2
13 -2 16 -13 8 -8 -42 6 -56 7 -7 12 -8 12 -4 0 5 10 -3 21 -18 12 -15 24 -25
26 -22 3 3 15 -6 25 -20 11 -14 23 -23 25 -20 3 3 14 -5 24 -17 11 -12 18 -17
17 -12 -2 6 1 11 6 12 5 1 13 7 17 15 7 10 9 10 10 -2 0 -8 2 -25 5 -38 3 -16
0 -21 -8 -16 -7 4 -8 3 -4 -5 13 -20 25 -2 22 33 -3 22 1 33 10 33 9 0 11 -4
4 -12 -5 -7 -7 -14 -4 -17 10 -11 15 -60 4 -53 -15 9 -12 -1 4 -14 11 -10 13
-6 12 22 -2 28 1 33 20 33 12 0 22 -5 21 -10 -1 -6 4 -10 10 -9 7 2 12 -3 10
-10 -1 -6 3 -11 9 -10 7 1 10 -5 7 -16 -4 -17 -33 -26 -33 -9 0 4 5 8 11 8 5
0 7 5 3 11 -5 8 -9 8 -14 -1 -5 -8 -10 -9 -14 -2 -3 6 -1 12 5 14 7 2 6 8 -4
16 -12 11 -15 8 -13 -17 0 -16 4 -27 7 -25 4 2 10 -3 13 -12 3 -8 10 -13 15
-10 5 3 12 -1 15 -9 3 -8 11 -14 18 -13 7 2 12 -2 13 -9 0 -6 3 -14 6 -17 3
-4 5 11 4 32 -1 27 2 39 12 39 9 0 10 -4 4 -10 -7 -7 -6 -17 1 -31 12 -23 12
-23 -5 -46 -10 -13 -10 -13 4 -2 10 7 16 24 14 41 -1 18 3 28 11 28 9 0 10 -4
4 -12 -5 -6 -5 -17 0 -25 5 -9 5 -20 -2 -28 -9 -10 -8 -12 3 -10 8 2 13 -3 11
-12 -3 -12 0 -12 15 1 10 9 25 14 33 11 12 -4 11 -1 -3 15 -14 16 -14 20 -3
20 8 0 14 -5 13 -11 -1 -6 5 -10 13 -8 11 3 10 -2 -4 -17 -14 -16 -16 -24 -7
-34 6 -8 7 -18 3 -23 -4 -4 1 -2 11 5 16 12 22 8 18 -12 -1 -5 3 -6 8 -3 5 4
13 2 16 -4 5 -8 11 -8 19 -1 7 6 16 8 20 4 4 -4 4 1 1 12 -6 18 -5 18 5 2 12
-18 5 -41 -10 -32 -5 3 -11 1 -14 -4 -11 -18 27 -4 40 14 11 14 14 15 14 4 0
-8 -5 -20 -10 -27 -6 -6 -7 -10 -3 -7 3 3 13 -1 22 -9 9 -8 21 -16 26 -18 6
-2 9 -7 7 -13 -2 -5 0 -7 4 -3 4 4 13 3 20 -3 9 -7 17 -4 28 13 11 15 16 18
16 7 0 -8 -3 -19 -8 -24 -4 -6 -5 -9 -3 -7 3 1 18 -10 34 -25 16 -16 27 -23
26 -18 -1 6 1 18 6 28 7 17 8 17 20 0 7 -10 11 -26 9 -37 -2 -10 -1 -16 3 -12
4 3 15 -2 25 -11 11 -10 18 -13 17 -8 -1 6 1 18 6 28 7 17 8 17 20 0 7 -10 11
-26 9 -37 -2 -10 -1 -16 3 -12 4 3 15 -2 26 -11 11 -10 18 -13 15 -8 -4 6 0
18 7 28 12 17 13 17 20 0 5 -10 9 -21 9 -25 1 -3 5 -10 10 -15 5 -4 6 -3 3 3
-4 7 7 11 32 10 34 -1 38 -3 30 -18 -14 -27 -10 -34 7 -12 12 15 15 16 10 2
-2 -9 2 -22 10 -28 8 -7 14 -9 14 -5 0 4 6 2 14 -4 14 -12 15 -10 7 28 -1 2
-7 -2 -15 -8 -17 -15 -28 -1 -15 19 6 11 9 12 9 2 0 -7 4 -11 9 -8 5 3 14 -1
21 -9 7 -8 17 -15 23 -15 5 0 2 10 -9 23 -19 22 -19 22 2 4 11 -9 24 -14 29
-10 4 5 4 1 -1 -7 -13 -23 -13 -38 1 -50 9 -7 15 -8 19 -1 4 6 14 7 24 4 16
-6 16 -5 -1 14 -14 16 -14 20 -3 20 8 0 14 -5 13 -11 -1 -6 3 -10 10 -9 8 2
10 -4 6 -14 -4 -11 -3 -14 5 -9 7 4 12 3 12 -3 0 -13 -15 -22 -24 -14 -11 11
-37 12 -30 1 3 -5 9 -7 12 -4 3 3 14 -2 25 -11 11 -10 18 -13 15 -8 -4 6 1 19
9 30 15 20 15 20 10 -2 -5 -25 17 -51 28 -33 3 5 11 10 17 10 6 0 5 -7 -3 -17
-8 -10 -9 -14 -2 -10 6 4 14 3 18 -3 4 -6 13 -5 25 2 10 7 17 15 15 18 -2 4 3
7 11 7 11 0 9 -7 -8 -26 -13 -14 -16 -20 -8 -13 21 18 34 15 19 -5 -13 -16
-12 -17 3 -4 10 7 16 16 14 20 -3 4 6 7 19 7 13 0 21 -4 19 -8 -3 -5 -11 -6
-17 -2 -7 3 -4 -1 5 -9 10 -8 15 -16 13 -19 -3 -3 1 -11 10 -18 8 -7 15 -9 15
-5 0 5 10 0 22 -11 12 -10 18 -13 14 -6 -4 7 -1 15 8 18 9 3 14 9 11 13 -2 4
2 8 10 8 13 0 13 -3 0 -17 -14 -15 -13 -19 7 -36 12 -10 19 -14 16 -9 -4 6 1
19 9 30 15 20 15 20 10 -2 -3 -14 2 -28 15 -40 11 -9 18 -13 16 -8 -2 6 1 10
7 10 5 0 9 -4 7 -10 -2 -5 0 -6 5 -2 4 5 9 13 9 18 3 22 5 23 14 9 6 -9 5 -20
-3 -30 -10 -13 -10 -13 5 -2 9 7 15 22 13 33 -2 11 0 17 6 14 5 -4 7 -10 4
-15 -3 -4 2 -13 10 -20 12 -10 13 -8 10 10 -2 13 -1 19 3 16 4 -4 7 -13 7 -19
0 -7 14 -12 32 -11 18 0 30 -3 27 -8 -3 -5 -10 -6 -15 -2 -5 3 -8 2 -7 -3 2
-4 -1 -8 -7 -8 -5 0 -9 4 -7 8 1 5 -2 6 -8 2 -8 -5 -8 -11 1 -21 6 -7 15 -12
19 -9 5 3 11 1 15 -5 4 -6 13 -5 25 2 10 7 17 15 15 18 -2 4 2 7 9 7 8 0 12
-7 8 -15 -4 -11 -1 -13 8 -7 10 6 12 4 7 -8 -3 -9 -1 -19 5 -23 6 -4 8 -3 5 2
-3 6 -2 16 4 24 6 11 9 11 10 3 3 -28 4 -32 13 -40 5 -4 6 -3 3 3 -4 7 0 15 9
18 12 4 15 2 11 -9 -4 -8 -1 -17 5 -21 6 -4 8 -3 5 3 -4 6 0 18 7 29 13 17 13
16 11 -9 -2 -15 0 -29 5 -32 4 -2 7 5 6 17 -1 13 6 22 17 24 11 1 14 -2 10 -9
-12 -20 -12 -37 0 -34 7 1 11 -3 10 -9 -1 -6 5 -11 12 -11 11 0 12 4 4 14 -9
9 -8 13 0 13 7 0 10 4 6 9 -3 5 0 13 6 17 7 4 9 3 5 -4 -3 -6 -1 -14 5 -17 5
-4 8 -13 5 -21 -3 -8 0 -13 7 -11 7 1 11 -4 9 -11 -1 -8 2 -11 8 -7 6 3 8 10
5 15 -3 5 0 12 7 17 19 11 39 13 32 2 -3 -5 -9 -7 -13 -5 -4 3 -8 -5 -8 -17
-2 -15 0 -18 6 -9 4 7 14 14 22 15 8 2 21 7 29 12 13 8 13 7 1 -8 -7 -9 -17
-15 -21 -12 -5 3 -12 1 -15 -5 -4 -6 -1 -9 7 -8 7 2 12 -2 11 -8 -1 -6 5 -11
12 -11 10 0 12 4 5 12 -6 7 -2 15 13 25 20 12 21 12 8 -3 -16 -20 -1 -23 18
-4 10 10 12 9 9 -2 -2 -7 3 -16 11 -19 8 -2 11 0 8 5 -3 5 1 10 9 10 11 0 9
-7 -8 -26 -13 -14 -19 -23 -14 -19 5 4 15 3 21 -2 9 -7 16 -6 24 4 7 8 20 12
28 9 10 -4 14 -2 10 4 -3 5 0 10 8 10 13 0 12 -3 -1 -18 -9 -10 -20 -16 -25
-14 -4 3 -10 1 -13 -4 -7 -10 20 -9 30 2 15 15 26 6 13 -10 -13 -16 -12 -17 3
-4 10 7 15 18 11 25 -4 7 -1 6 9 -1 8 -7 18 -10 22 -6 11 12 35 12 33 0 -1 -6
3 -11 10 -12 6 0 15 -4 20 -9 5 -6 2 -6 -7 -1 -9 5 -8 0 4 -13 l19 -22 23 21
c14 13 24 17 29 10 6 -11 -1 -15 -19 -12 -5 1 -4 -4 2 -12 7 -8 10 -16 7 -19
-3 -2 2 -5 10 -5 12 0 12 3 2 16 -10 12 -9 14 6 8 10 -4 21 -7 23 -7 3 0 3 -4
-1 -9 -3 -5 -1 -12 4 -15 13 -8 8 19 -7 36 -9 12 -9 15 3 15 7 0 13 -5 12 -11
-1 -5 3 -10 10 -11 6 0 15 -4 20 -9 4 -5 3 -7 -3 -3 -6 3 -11 0 -11 -8 0 -8 4
-12 8 -9 4 2 11 -1 14 -7 5 -7 16 -2 33 13 l26 23 -16 -26 c-13 -20 -13 -26
-3 -26 8 0 13 5 12 11 -1 6 7 9 17 8 18 -3 19 -2 5 15 -12 16 -12 17 2 6 9 -7
20 -9 25 -5 4 4 2 -1 -5 -10 -10 -13 -10 -18 -2 -18 7 0 9 -5 5 -12 -4 -7 -4
-10 1 -6 4 4 14 3 22 -4 11 -9 13 -8 11 3 -2 9 4 13 16 11 10 -2 16 1 12 6 -3
5 1 9 9 9 12 0 12 -3 2 -16 -10 -12 -9 -14 6 -8 13 5 17 3 14 -5 -2 -7 -10
-12 -16 -10 -7 1 -9 -3 -6 -9 5 -8 10 -8 18 0 15 15 30 14 21 -1 -4 -7 -3 -8
5 -4 9 6 9 11 1 21 -8 10 -8 15 1 21 8 4 9 3 5 -5 -4 -6 0 -14 9 -17 11 -5 13
-10 5 -19 -7 -8 -5 -12 5 -12 8 0 12 4 9 8 -2 4 0 10 6 14 6 4 7 11 4 17 -4 6
-2 8 4 4 6 -3 8 -19 6 -34 -5 -26 -4 -26 10 -7 8 11 12 24 9 29 -4 5 -1 6 6 2
9 -6 9 -11 1 -21 -7 -9 -6 -16 5 -25 8 -7 15 -9 15 -5 0 4 6 2 14 -4 10 -8 16
-9 21 -1 3 5 11 10 16 10 6 0 8 -4 4 -9 -3 -5 -1 -12 4 -15 10 -7 9 13 -2 31
-4 6 -2 15 4 19 8 4 9 3 5 -5 -4 -6 0 -14 8 -17 9 -3 14 -10 11 -14 -3 -5 0
-12 6 -16 7 -4 9 -3 5 4 -3 6 -2 13 4 17 6 4 7 11 4 17 -4 6 -2 8 4 4 6 -3 9
-15 7 -26 -2 -12 0 -18 4 -15 5 2 14 -1 20 -9 7 -8 18 -13 25 -12 22 3 46 27
39 39 -3 6 -1 7 6 3 9 -6 9 -13 -3 -30 -12 -19 -12 -23 -1 -23 8 0 12 4 9 8
-2 4 1 11 8 16 23 13 36 11 33 -6 -1 -9 -9 -15 -16 -13 -8 2 -10 0 -6 -4 12
-12 37 -13 34 -2 -3 13 31 19 39 7 3 -5 10 -9 16 -9 6 0 5 7 -3 18 -12 15 -12
16 2 5 9 -7 19 -9 23 -5 4 4 6 0 4 -8 -2 -9 5 -14 19 -15 12 0 25 -3 29 -7 15
-16 26 -7 13 10 -12 15 -12 16 2 5 9 -7 19 -9 23 -5 4 4 6 0 4 -8 -2 -10 4
-15 20 -14 13 1 21 -3 19 -10 -3 -6 -10 -10 -16 -8 -7 1 -10 -2 -6 -8 5 -8 11
-8 20 0 9 7 16 6 24 -4 7 -8 18 -13 25 -12 22 3 46 27 39 39 -3 6 -1 7 6 3 9
-6 8 -14 -5 -34 -17 -26 -17 -27 2 -11 10 9 26 14 34 11 13 -5 13 -3 0 14 -14
17 -13 18 1 7 9 -7 19 -10 23 -6 4 4 4 1 1 -8 -4 -10 1 -15 16 -16 18 -2 19 0
7 15 -11 15 -11 15 3 5 9 -7 20 -9 24 -5 5 4 5 2 2 -4 -7 -12 32 -51 48 -49
21 3 45 17 40 24 -2 4 2 8 9 8 7 0 13 -6 13 -13 0 -7 -4 -11 -8 -9 -3 3 -13
-3 -20 -13 -12 -15 -12 -16 2 -5 12 10 18 10 29 0 10 -10 11 -9 5 2 -5 9 -3
12 6 9 8 -3 13 -11 11 -18 -2 -10 0 -11 11 -2 10 9 17 9 27 -1 9 -8 11 -9 6 0
-3 6 -2 14 4 18 6 4 7 11 4 17 -4 6 -2 8 4 4 6 -3 9 -15 7 -26 -2 -11 1 -22 6
-26 5 -3 8 0 7 8 -2 8 4 12 16 10 10 -2 16 1 12 6 -3 5 1 9 9 9 8 0 13 -5 12
-11 -1 -5 5 -10 13 -11 8 0 15 -5 15 -12 0 -6 3 -14 6 -18 4 -3 5 8 4 25 -1
17 0 28 4 25 3 -4 6 -11 6 -17 0 -6 10 -13 23 -15 13 -1 21 1 18 5 -3 5 1 9 9
9 8 0 13 -5 12 -11 -1 -5 5 -11 13 -11 8 0 14 -7 12 -14 -1 -7 2 -10 7 -7 5 4
8 16 6 28 -3 11 -1 17 3 14 4 -4 7 -12 7 -17 0 -5 5 -8 10 -7 6 2 9 7 7 12 -2
5 3 4 11 -2 8 -7 18 -8 22 -4 5 4 5 1 1 -6 -4 -7 -13 -9 -19 -5 -7 3 -3 -3 7
-15 13 -15 23 -19 31 -12 7 6 16 5 25 -3 9 -8 11 -9 6 0 -3 6 -2 14 4 18 6 4
7 11 4 17 -4 6 -2 8 4 4 6 -3 9 -15 7 -26 -2 -11 1 -23 7 -26 6 -4 8 -2 4 4
-3 6 -2 13 4 17 6 4 7 12 3 18 -5 8 -2 8 9 0 8 -7 19 -9 23 -5 5 4 5 1 1 -6
-4 -7 -11 -10 -15 -8 -4 3 -8 -1 -8 -8 0 -9 6 -10 23 -2 12 6 21 13 19 17 -2
3 2 6 10 6 10 0 12 -4 5 -12 -8 -9 -4 -12 15 -12 22 0 24 2 13 16 -11 14 -11
14 3 4 9 -7 18 -11 21 -8 2 3 5 -2 5 -10 0 -8 -4 -12 -8 -9 -4 2 -11 -1 -15
-8 -4 -7 -4 -10 1 -6 4 4 14 3 22 -4 11 -9 13 -8 11 3 -2 9 4 13 16 11 10 -2
16 1 12 6 -3 5 1 9 9 9 8 0 12 -3 10 -7 -3 -4 5 -16 17 -26 12 -11 18 -13 14
-7 -4 8 -1 13 9 13 9 0 14 4 11 8 -3 5 1 9 8 9 7 0 13 -6 13 -13 0 -7 -4 -11
-8 -8 -4 2 -11 -1 -15 -8 -4 -7 -4 -10 1 -6 4 4 14 3 22 -4 11 -9 13 -8 11 3
-2 9 4 13 16 11 10 -2 16 1 12 6 -3 5 1 9 9 9 8 0 12 -3 10 -7 -3 -4 5 -16 17
-26 12 -11 18 -13 14 -7 -4 8 -1 13 9 13 9 0 14 -4 10 -9 -3 -5 -1 -12 4 -15
10 -7 9 13 -1 30 -4 6 -1 11 7 11 8 0 12 -4 9 -8 -2 -4 0 -10 6 -14 6 -4 7
-11 4 -17 -4 -6 -2 -8 4 -4 6 3 9 15 7 26 -2 12 0 18 6 15 5 -4 7 -11 4 -16
-4 -5 1 -9 10 -9 9 0 14 4 11 8 -3 5 1 9 9 9 8 0 11 -5 7 -11 -12 -19 -10 -33
4 -33 10 0 11 4 2 14 -8 11 -6 12 13 9 13 -3 28 -5 32 -5 5 -1 6 -5 2 -10 -3
-5 -1 -12 4 -15 14 -9 7 19 -9 40 -14 17 -13 18 1 7 9 -7 19 -9 23 -5 4 4 6 2
4 -3 -2 -6 -1 -10 2 -10 3 0 19 -8 34 -19 16 -10 25 -13 22 -7 -4 6 0 11 9 11
9 0 14 4 11 8 -3 5 1 9 9 9 13 0 13 -3 -1 -18 -12 -13 -12 -19 -3 -25 7 -4 10
-3 5 4 -3 5 0 12 6 15 17 6 39 -3 33 -13 -3 -5 -1 -11 4 -14 14 -9 7 19 -9 40
-14 17 -13 18 1 7 9 -7 19 -9 23 -5 4 4 6 2 4 -3 -2 -6 2 -10 7 -10 6 0 9 4 7
9 -2 5 3 4 11 -2 8 -7 18 -8 22 -4 5 4 5 1 1 -6 -4 -7 -11 -10 -15 -8 -4 3 -8
-1 -8 -8 0 -9 6 -10 23 -2 12 6 21 13 19 17 -2 3 2 6 10 6 8 0 13 -3 12 -6 -1
-3 1 -6 4 -6 4 0 17 -9 30 -20 12 -11 19 -14 15 -7 -4 7 -1 12 9 12 9 0 14 4
11 8 -3 5 1 9 8 9 7 0 13 -6 13 -13 0 -7 -4 -12 -8 -11 -4 1 -7 -1 -8 -5 -1
-10 1 -11 21 -3 10 4 16 10 14 14 -3 4 15 7 39 7 36 0 42 -3 40 -18 -2 -10 1
-21 7 -24 6 -4 8 -2 4 4 -3 6 -2 13 4 17 6 4 7 11 4 17 -4 7 -2 8 5 4 6 -4 9
-12 6 -17 -4 -5 1 -9 10 -9 9 0 14 -4 10 -9 -3 -5 -1 -12 4 -15 10 -7 9 13 -1
30 -4 6 -1 11 7 11 8 0 12 -4 9 -8 -2 -4 0 -10 6 -14 6 -4 7 -11 4 -17 -4 -6
-2 -8 4 -4 6 3 9 15 7 26 -2 12 0 18 6 15 5 -4 7 -11 4 -16 -4 -5 0 -9 8 -9 8
0 20 -7 27 -15 9 -11 16 -13 23 -6 7 7 15 7 26 -2 12 -9 13 -9 7 1 -4 6 -3 12
1 12 5 0 15 -6 22 -12 11 -10 13 -10 7 0 -5 7 -1 12 9 12 9 0 14 -4 10 -9 -3
-5 -1 -12 4 -15 10 -7 9 13 -1 30 -4 6 -1 11 7 11 8 0 12 -4 9 -8 -2 -4 0 -10
6 -14 6 -4 7 -11 4 -17 -4 -6 -2 -8 4 -4 6 3 9 15 7 26 -2 12 0 18 6 15 5 -4
7 -11 4 -16 -4 -5 -1 -9 6 -9 7 0 20 -7 30 -16 13 -12 19 -12 25 -3 4 7 3 10
-4 5 -6 -3 -13 -2 -17 4 -3 5 1 10 10 10 9 0 14 4 11 8 -2 4 6 8 19 8 17 0 22
-5 20 -18 -2 -10 1 -21 7 -24 6 -4 8 -2 4 4 -3 6 -2 13 4 17 6 4 7 11 4 17 -4
7 -2 8 5 4 6 -4 9 -12 6 -17 -4 -5 1 -9 10 -9 9 0 14 -4 10 -9 -3 -5 -1 -12 4
-15 10 -7 9 13 -1 30 -4 6 -1 11 7 11 8 0 13 -3 12 -6 -1 -3 2 -6 8 -6 5 0 9
4 7 8 -1 5 2 6 8 2 6 -3 7 -11 4 -17 -5 -7 -2 -8 7 -2 18 11 119 13 113 2 -3
-5 -10 -6 -15 -2 -5 3 -8 2 -7 -3 2 -4 -2 -8 -7 -8 -5 0 -9 3 -8 6 1 3 -5 6
-13 6 -12 0 -11 -3 2 -18 14 -16 19 -16 38 -4 19 13 25 13 46 -2 13 -9 20 -11
16 -5 -4 7 -1 12 9 12 9 0 14 -4 10 -9 -3 -5 -1 -12 4 -15 10 -7 9 13 -1 30
-4 6 -1 11 7 11 8 0 12 -4 9 -8 -2 -4 0 -10 6 -14 6 -4 7 -11 4 -17 -4 -6 -2
-8 4 -4 6 3 9 15 7 26 -2 12 0 18 6 15 5 -4 7 -11 4 -16 -4 -5 -1 -9 5 -9 6 0
8 -6 4 -12 -6 -10 -4 -10 7 0 16 14 33 16 24 2 -10 -16 1 -11 16 7 8 10 9 14
2 10 -6 -4 -14 -4 -16 1 -3 4 18 7 47 7 36 0 53 -4 53 -12 0 -9 -4 -10 -14 -2
-9 8 -13 8 -13 0 0 -6 5 -11 11 -11 5 0 7 -6 3 -12 -4 -7 2 -5 14 6 12 10 19
23 15 29 -3 6 -1 7 6 3 6 -4 9 -11 7 -14 -2 -4 7 -12 20 -19 13 -6 22 -7 18
-2 -3 5 2 9 11 9 9 0 14 4 11 8 -3 5 1 9 8 9 7 0 13 -6 13 -13 0 -7 -4 -11 -8
-8 -4 2 -11 -1 -15 -8 -4 -7 -4 -10 1 -6 4 4 14 3 22 -4 8 -6 13 -7 12 -2 -4
22 3 25 24 11 19 -12 24 -13 24 -2 0 8 -4 12 -8 9 -4 -2 -10 -1 -12 4 -3 4 28
7 68 7 40 0 73 -2 72 -5 -1 -3 1 -5 4 -5 4 0 17 -9 30 -20 12 -11 19 -14 15
-8 -4 8 -1 13 9 13 9 0 14 -4 11 -9 -4 -5 5 -4 18 2 13 7 23 14 21 18 -2 3 2
6 10 6 8 0 11 -5 7 -11 -10 -17 -11 -37 -1 -30 5 3 7 10 4 15 -4 5 1 9 10 9 9
0 14 4 11 8 -3 5 1 9 8 9 7 0 13 -6 13 -13 0 -7 -4 -11 -8 -8 -4 2 -10 0 -13
-5 -10 -16 11 -22 24 -6 12 15 44 9 34 -6 -9 -15 3 -10 17 8 8 10 9 14 2 10
-6 -4 -14 -4 -16 0 -3 5 41 8 98 8 92 0 103 -2 100 -17 -2 -10 1 -20 6 -24 5
-3 8 0 7 7 -2 7 6 13 17 13 11 0 19 -6 17 -13 -1 -7 2 -10 7 -7 5 4 8 15 6 26
-2 12 0 18 6 15 5 -4 7 -10 5 -13 -2 -4 7 -12 20 -19 13 -6 22 -7 18 -2 -3 5
2 9 11 9 9 0 14 -4 11 -9 -4 -5 5 -4 18 2 13 7 23 14 21 18 -2 3 2 6 10 6 8 0
11 -5 7 -11 -10 -17 -11 -37 -1 -30 5 3 7 10 4 15 -4 5 1 9 10 9 9 0 14 -4 10
-9 -3 -5 -1 -12 4 -15 10 -7 9 13 -1 30 -4 6 -1 11 7 11 8 0 13 -3 12 -6 -1
-3 3 -6 8 -6 5 0 9 3 8 6 -1 3 4 6 11 6 7 0 13 -6 13 -13 0 -7 -3 -11 -7 -9
-4 2 -7 -2 -7 -10 0 -13 3 -13 16 -2 9 7 22 12 29 11 6 -1 17 -2 23 -3 5 0 7
-7 3 -13 -6 -10 -4 -11 7 0 16 15 33 16 24 1 -4 -6 2 -5 13 2 17 11 24 10 38
-2 11 -9 15 -9 10 -1 -4 7 -1 12 9 12 9 0 13 -5 10 -11 -4 -6 2 -5 13 2 17 11
24 10 38 -2 11 -9 15 -9 10 -1 -4 7 -1 12 9 12 9 0 13 -5 10 -11 -4 -6 2 -5
13 2 17 11 24 10 38 -2 11 -9 15 -9 10 -1 -4 7 -1 12 9 12 9 0 14 -4 10 -9 -3
-5 -1 -12 4 -15 10 -7 9 13 -1 30 -4 6 -1 11 7 11 8 0 12 -4 9 -9 -3 -4 2 -8
11 -8 9 0 14 4 11 8 -3 5 1 9 9 9 10 0 12 -4 5 -12 -7 -9 -6 -16 4 -24 10 -9
16 -9 21 -1 5 8 10 8 20 0 10 -8 15 -8 20 0 5 8 10 8 20 0 10 -8 15 -8 20 0 5
8 11 8 20 0 16 -14 40 11 24 27 -6 6 -5 10 5 10 8 0 14 -5 13 -11 -1 -6 44
-10 128 -10 84 0 129 4 128 10 -1 6 5 11 12 11 10 0 12 -4 5 -12 -7 -9 -6 -16
4 -24 10 -9 16 -9 21 -1 5 8 10 8 20 0 10 -8 15 -8 20 0 5 8 10 8 20 0 9 -8
15 -8 20 0 3 6 11 7 17 4 7 -4 8 -2 4 5 -6 9 -11 9 -21 1 -10 -8 -15 -8 -20 0
-5 8 -10 8 -20 0 -10 -8 -15 -8 -20 0 -5 8 -10 8 -20 0 -9 -8 -15 -8 -20 0 -3
5 1 10 10 10 9 0 14 4 11 8 -3 5 1 9 9 9 8 0 12 -4 9 -9 -3 -4 2 -8 11 -8 9 0
14 4 11 8 -3 5 1 9 9 9 8 0 12 -4 9 -9 -3 -4 2 -8 11 -8 9 0 14 4 11 8 -3 5 1
9 9 9 8 0 12 -4 9 -9 -3 -4 2 -8 11 -8 9 0 14 -4 10 -9 -3 -5 -1 -12 4 -15 10
-7 9 13 -1 30 -4 6 -1 11 7 11 8 0 12 -4 9 -9 -3 -4 2 -8 11 -8 9 0 14 4 11 8
-3 5 1 9 9 9 11 0 12 -4 4 -13 -7 -8 -6 -14 2 -20 8 -4 9 -3 5 4 -4 7 -1 12 9
12 9 0 13 -5 10 -11 -4 -6 2 -5 13 2 17 11 24 10 38 -2 11 -9 15 -9 10 -1 -4
7 -1 12 9 12 9 0 13 -5 10 -11 -4 -6 2 -5 13 2 17 11 24 10 38 -2 11 -9 15 -9
10 -1 -4 7 -1 12 9 12 10 0 13 -5 9 -12 -5 -8 0 -7 11 2 10 8 37 15 59 15 23
1 40 5 39 11 -1 5 45 9 112 9 62 0 111 -3 109 -7 -3 -5 2 -8 11 -8 10 0 14 -5
9 -12 -6 -10 -4 -10 7 -1 17 17 32 17 23 1 -4 -7 2 -5 14 6 12 10 20 22 17 26
-2 4 2 7 10 7 8 0 12 -4 9 -9 -3 -4 2 -8 11 -8 9 0 14 4 11 8 -3 5 1 9 9 9 8
0 11 -5 7 -11 -10 -17 -11 -37 -1 -30 5 3 7 10 4 15 -4 5 1 9 10 9 9 0 13 -5
10 -11 -4 -6 2 -5 13 2 17 11 24 10 38 -2 11 -9 15 -9 10 -1 -7 12 -2 15 29
15 31 0 36 -3 29 -15 -6 -10 -5 -10 7 -1 10 8 19 9 25 3 7 -7 16 -4 27 8 14
15 14 19 3 19 -8 0 -14 -4 -13 -8 1 -4 -2 -7 -8 -7 -5 0 -9 5 -7 11 2 6 -2 6
-11 -1 -11 -10 -17 -9 -25 1 -8 10 4 12 63 12 40 0 72 -2 70 -5 -2 -3 5 -12
17 -19 11 -7 17 -8 13 -2 -3 6 -1 11 5 11 6 0 9 4 5 9 -3 5 -1 12 4 16 6 3 8
-3 6 -15 -2 -11 1 -23 7 -26 6 -4 8 -2 4 4 -3 6 -2 13 4 17 6 4 8 10 6 14 -3
4 1 8 9 8 8 0 12 -4 9 -9 -3 -4 2 -8 11 -8 9 0 14 4 11 8 -3 5 1 9 9 9 11 0
12 -4 4 -13 -7 -8 -6 -14 2 -20 8 -4 9 -3 5 4 -4 7 -1 12 9 12 10 0 13 -5 9
-12 -4 -6 3 -4 15 4 13 9 34 14 46 12 13 -2 27 1 31 7 4 7 3 9 -4 5 -6 -3 -13
-3 -15 2 -3 4 19 7 48 7 29 0 51 -3 48 -7 -2 -5 -8 -6 -12 -4 -4 3 -8 -1 -8
-8 0 -9 6 -10 23 -2 12 6 20 14 18 18 -2 3 0 9 5 13 6 3 8 -3 6 -15 -2 -11 1
-23 7 -26 6 -4 8 -2 4 4 -3 6 -2 13 4 17 6 4 8 10 6 14 -3 4 1 8 9 8 8 0 12
-4 9 -9 -3 -4 2 -8 11 -8 9 0 14 4 11 8 -3 5 1 9 9 9 11 0 12 -4 4 -13 -7 -8
-6 -14 2 -20 8 -4 9 -3 5 4 -4 7 -1 12 9 12 9 0 14 4 10 9 -3 5 0 13 6 17 7 4
9 3 5 -4 -3 -6 -2 -13 4 -17 6 -4 7 -11 4 -17 -4 -6 -2 -8 4 -4 6 3 9 14 7 24
-2 15 5 17 50 17 29 0 51 -3 48 -7 -2 -5 -8 -6 -12 -4 -4 3 -8 -1 -8 -8 0 -9
6 -10 23 -2 12 6 20 14 18 18 -2 3 0 9 5 13 6 3 8 -3 6 -15 -2 -11 1 -23 7
-26 6 -4 8 -2 4 4 -3 6 -2 13 4 17 6 4 8 10 6 14 -3 4 1 8 9 8 8 0 11 -5 7
-11 -10 -17 -11 -37 -1 -30 5 3 7 10 4 15 -4 5 1 9 10 9 9 0 14 -4 11 -9 -4
-5 5 -4 18 2 13 7 22 15 20 19 -2 3 0 9 5 13 6 3 8 -3 6 -15 -2 -11 1 -22 6
-26 5 -3 8 0 7 7 -3 13 2 15 38 18 8 0 13 5 10 9 -3 5 1 9 9 9 11 0 12 -4 4
-13 -7 -8 -6 -14 2 -20 8 -4 9 -3 5 4 -4 7 -1 12 9 12 10 0 13 -5 9 -13 -4 -6
2 -4 14 7 12 10 20 22 17 26 -2 4 2 7 10 7 8 0 12 -3 10 -6 -2 -4 8 -11 21
-18 13 -6 22 -8 19 -3 -3 4 1 10 8 12 16 6 38 -2 33 -11 -10 -15 24 -7 39 9
13 14 13 17 1 17 -8 0 -14 -4 -13 -8 1 -4 -2 -7 -8 -7 -5 0 -9 4 -7 10 1 5 -2
7 -7 4 -5 -4 -12 -3 -15 2 -2 4 15 8 39 8 24 0 41 -4 39 -8 -3 -5 5 -6 18 -4
13 2 22 8 21 13 -1 5 4 10 12 10 8 0 11 -5 7 -11 -10 -17 -11 -37 -1 -30 5 3
7 10 4 15 -4 5 1 9 10 9 9 0 14 4 10 9 -3 5 0 13 6 17 7 4 9 3 5 -4 -3 -6 -2
-13 4 -17 6 -4 7 -11 4 -17 -4 -6 -2 -8 4 -4 6 3 9 14 7 24 -2 15 4 18 40 18
24 0 42 -3 39 -7 -2 -4 2 -9 9 -12 20 -7 27 -7 26 1 -1 4 -4 6 -8 5 -4 -1 -8
4 -8 11 0 7 6 13 13 13 7 0 11 -4 8 -9 -3 -4 2 -8 11 -8 9 0 14 4 10 9 -3 5 0
13 6 17 7 4 9 3 5 -4 -3 -6 -2 -13 4 -17 6 -4 7 -11 4 -17 -4 -6 -2 -8 4 -4 6
3 9 14 7 24 -2 15 4 18 40 18 24 0 42 -3 39 -7 -2 -4 2 -9 9 -12 20 -7 27 -7
26 1 -1 4 -4 6 -8 5 -4 -1 -8 4 -8 11 0 7 6 13 13 13 7 0 11 -4 8 -9 -3 -4 2
-8 11 -8 9 0 14 4 10 9 -3 5 0 13 6 17 7 4 9 3 5 -4 -3 -6 -2 -13 4 -17 6 -4
7 -12 3 -18 -4 -8 -1 -7 9 1 12 9 18 10 23 2 5 -8 13 -6 25 5 10 9 27 18 37
20 10 1 16 9 15 16 -2 8 0 11 4 7 4 -4 14 -2 23 5 14 11 15 10 1 -7 -16 -21
-23 -49 -9 -40 5 3 7 9 4 14 -6 10 16 19 33 13 6 -3 9 -10 6 -15 -5 -7 -2 -8
5 -4 9 6 9 12 -3 25 -14 15 -14 18 -1 18 8 0 12 -4 9 -9 -3 -4 2 -8 11 -8 9 0
13 -5 9 -11 -3 -6 6 -3 22 7 15 11 31 19 34 19 3 0 4 3 3 6 -1 3 4 6 12 6 8 0
11 -5 7 -11 -10 -17 -11 -37 -1 -30 5 3 7 10 4 15 -4 5 1 9 10 9 9 0 14 4 10
9 -3 5 0 13 6 17 7 4 9 3 5 -4 -3 -6 -2 -13 4 -17 6 -4 7 -11 4 -17 -4 -6 -2
-8 4 -4 6 3 9 15 7 25 -2 10 3 18 10 18 8 0 11 -5 8 -10 -4 -6 0 -8 10 -4 8 3
21 -1 27 -8 13 -16 34 -10 24 6 -3 5 -9 7 -13 5 -4 -3 -8 1 -8 9 0 8 3 13 5
10 3 -3 12 1 21 8 14 10 14 10 3 -4 -11 -14 -9 -16 13 -16 14 0 28 4 32 10 3
5 1 7 -5 3 -6 -3 -13 -3 -16 2 -2 4 11 8 29 8 18 0 31 -4 29 -8 -3 -5 -11 -5
-17 -1 -7 4 -6 0 2 -10 15 -18 26 -23 16 -7 -3 5 -2 10 4 10 5 0 13 -5 16 -10
4 -6 11 -8 16 -4 5 3 7 10 3 15 -3 5 -9 7 -13 5 -4 -3 -8 1 -8 9 0 8 3 13 5
10 3 -3 12 1 21 8 14 10 14 10 3 -4 -11 -14 -9 -16 13 -16 14 -1 28 4 32 10 3
5 1 7 -5 3 -6 -3 -13 -3 -16 2 -2 4 11 8 29 8 18 0 31 -4 29 -8 -3 -5 -11 -5
-17 -1 -7 4 -6 0 2 -10 15 -18 26 -23 16 -7 -3 5 -2 10 4 10 5 0 13 -5 16 -10
4 -6 11 -8 16 -4 5 3 7 10 3 15 -3 5 -9 7 -13 5 -4 -3 -8 1 -8 9 0 8 3 13 5
10 3 -3 12 1 21 8 14 11 14 10 2 -6 -13 -16 -13 -19 0 -17 28 4 40 0 33 -12
-5 -7 -3 -8 5 -4 9 6 9 12 -3 25 -14 15 -14 18 -1 18 8 0 12 -4 9 -9 -3 -4 2
-8 11 -8 10 0 14 -5 9 -13 -6 -9 -4 -9 7 0 15 15 33 18 25 5 -3 -5 1 -9 9 -9
11 0 12 4 4 14 -9 9 -8 13 0 13 7 0 10 4 6 9 -3 5 -1 12 4 16 6 3 8 -3 6 -15
-2 -11 1 -22 6 -26 5 -3 8 0 7 7 -2 7 4 13 12 14 8 1 14 6 13 11 -1 6 4 11 12
11 8 0 12 -4 9 -9 -3 -4 5 -6 18 -5 13 2 23 9 23 15 0 6 3 13 6 17 4 3 5 -8 4
-25 -1 -17 0 -28 4 -25 3 4 6 12 6 18 0 7 7 12 15 12 8 1 14 6 13 11 -1 6 4
11 12 11 8 0 12 -4 9 -9 -3 -4 5 -6 18 -5 13 2 23 9 23 15 0 6 3 13 6 17 4 3
5 -8 4 -25 -1 -17 0 -28 4 -25 3 4 6 11 6 16 0 5 5 8 10 7 6 -2 9 -7 7 -11 -1
-5 2 -6 7 -3 5 4 8 15 6 25 -2 10 3 18 10 18 8 0 11 -5 8 -10 -3 -5 0 -7 8 -5
8 3 21 -1 30 -8 14 -12 18 -11 35 8 10 12 14 19 8 15 -6 -3 -11 0 -11 7 0 7 6
13 13 13 7 0 11 -4 8 -9 -3 -4 2 -8 11 -8 9 0 14 4 10 9 -3 5 -1 12 4 16 6 3
8 -3 6 -15 -2 -11 1 -23 7 -26 6 -4 8 -2 4 4 -3 6 -2 13 4 17 6 4 8 10 5 15
-3 5 -1 11 4 14 5 3 7 -8 6 -25 -1 -16 0 -27 4 -24 3 4 6 11 6 16 0 5 5 8 10
7 6 -2 9 -7 7 -11 -1 -5 2 -6 7 -3 5 4 8 16 6 28 -3 11 -2 18 2 14 3 -3 13 0
22 7 14 11 15 10 1 -7 -13 -17 -13 -19 0 -14 8 3 24 -2 34 -11 19 -16 19 -15
2 11 -13 20 -14 28 -5 34 7 4 9 3 6 -3 -4 -6 3 -19 15 -29 12 -11 18 -13 14
-7 -4 7 -2 13 3 13 6 0 11 5 11 11 0 8 -4 8 -13 0 -10 -8 -14 -7 -14 2 0 7 11
13 23 13 12 0 21 -3 18 -7 -2 -4 4 -10 14 -14 20 -8 22 -7 21 3 -1 4 -4 6 -8
5 -4 -1 -8 5 -8 13 0 7 3 12 5 9 3 -3 12 1 21 8 14 10 14 10 3 -5 -12 -15 -11
-17 7 -15 15 1 20 6 16 16 -3 9 -3 12 1 8 4 -4 14 -1 23 6 14 11 15 10 1 -7
-13 -17 -13 -19 0 -14 8 3 24 -2 34 -11 19 -16 19 -15 2 11 -13 20 -14 28 -5
34 7 4 9 3 6 -3 -4 -6 2 -18 12 -27 13 -11 21 -14 26 -7 6 10 0 14 -16 13 -3
-1 -6 5 -6 12 0 7 6 13 13 13 7 0 11 -4 8 -9 -3 -4 2 -8 11 -8 10 0 13 -5 9
-13 -4 -6 2 -4 14 7 12 10 19 23 15 29 -3 6 -1 7 6 3 6 -4 9 -11 6 -16 -3 -5
0 -12 6 -16 8 -4 9 -3 5 4 -4 7 -3 12 3 12 5 0 13 -5 16 -11 5 -7 13 -5 24 5
10 9 21 13 25 9 4 -4 4 0 0 10 -5 14 -2 16 12 10 16 -6 17 -4 7 8 -10 13 -10
16 2 16 8 0 12 -4 9 -9 -3 -4 2 -8 11 -8 9 0 14 4 10 9 -3 5 -1 12 4 15 5 3 7
-8 6 -24 -1 -16 1 -27 6 -24 5 3 7 9 4 14 -3 5 -1 11 5 15 6 4 7 11 4 17 -4 6
-2 8 4 4 6 -3 9 -15 7 -26 -2 -12 0 -18 6 -15 5 4 7 11 4 16 -4 5 -2 9 4 9 5
0 13 -5 16 -11 5 -7 13 -5 24 5 10 9 21 13 25 9 4 -4 4 0 0 10 -5 13 -2 16 10
11 9 -3 13 -11 9 -17 -4 -6 -1 -7 6 -3 9 6 9 12 -3 25 -14 15 -14 18 -1 18 8
0 12 -4 9 -9 -3 -4 2 -8 11 -8 9 0 14 -4 10 -9 -3 -5 -1 -12 4 -15 10 -7 9 13
-2 31 -4 6 -2 15 4 19 7 4 10 3 6 -2 -3 -5 1 -18 9 -29 14 -19 15 -19 10 7 -2
15 0 31 6 34 6 4 8 2 4 -4 -3 -6 -2 -13 4 -17 6 -4 8 -10 6 -14 -3 -4 1 -8 9
-8 10 0 12 4 5 12 -8 9 -6 14 5 19 9 3 13 11 9 17 -4 8 -3 9 5 5 9 -6 9 -11 1
-21 -8 -10 -8 -15 1 -21 8 -4 9 -3 5 4 -9 15 6 16 21 1 8 -8 13 -8 18 0 3 6 1
10 -6 9 -6 -2 -14 3 -16 10 -3 8 1 10 14 5 15 -6 16 -4 6 8 -10 13 -10 16 2
16 8 0 12 -4 9 -9 -4 -5 2 -8 12 -6 12 2 18 -2 16 -11 -2 -11 0 -12 11 -3 8 7
18 8 22 4 5 -4 5 -1 1 5 -4 8 -2 13 5 13 8 0 8 5 -2 17 -7 10 -9 15 -5 11 5
-4 16 -2 25 5 14 11 14 10 2 -6 -14 -17 -13 -18 5 -15 10 1 18 -2 17 -9 -3
-13 22 -12 34 2 4 4 3 5 -4 1 -7 -4 -17 3 -24 16 -11 21 -11 22 4 9 10 -7 17
-10 17 -6 0 5 8 1 19 -9 16 -15 20 -15 31 -1 7 8 17 12 24 8 6 -3 7 -2 3 2
-10 12 -39 16 -32 5 3 -5 1 -11 -4 -14 -17 -11 -21 11 -4 25 9 8 19 14 22 14
3 0 5 3 4 6 -1 3 5 6 12 6 12 0 12 -3 2 -16 -10 -12 -9 -14 6 -8 10 4 21 7 23
7 3 0 3 4 0 9 -3 5 2 15 12 22 15 13 16 12 3 -4 -7 -9 -10 -17 -6 -17 5 0 1
-8 -8 -18 -14 -15 -14 -19 -3 -19 8 0 14 5 13 11 -1 6 3 10 10 9 7 -2 10 4 7
12 -5 11 -2 13 12 8 16 -6 17 -4 7 8 -10 13 -10 16 2 16 8 0 12 -4 9 -8 -2 -5
8 -7 23 -6 20 1 27 -2 25 -13 -2 -8 0 -11 4 -7 11 11 14 37 4 34 -4 -1 -8 1
-9 6 -1 7 6 7 26 0 7 -3 11 -9 8 -13 -3 -5 -1 -12 5 -15 6 -4 10 -3 9 2 -3 20
2 25 15 14 10 -8 16 -9 21 -1 3 6 10 8 15 5 5 -3 11 -1 14 4 7 10 -13 9 -31
-2 -6 -4 -14 -3 -18 3 -4 6 -10 8 -15 5 -4 -3 -14 3 -21 12 -12 15 -12 16 1 8
23 -15 48 -16 56 -3 4 6 3 8 -4 4 -6 -3 -13 -2 -16 3 -7 10 20 9 30 -2 4 -4
14 -1 22 6 10 7 13 8 9 1 -4 -7 1 -18 11 -25 15 -13 16 -12 3 4 -13 16 -2 25
13 10 10 -11 37 -12 30 -2 -3 5 -9 7 -13 4 -5 -2 -16 4 -25 14 -13 15 -14 18
-1 18 8 0 11 -5 8 -10 -3 -5 0 -7 8 -5 8 3 21 -1 31 -9 11 -10 18 -11 23 -3 3
6 1 9 -6 8 -6 -2 -13 2 -16 9 -3 8 3 11 17 8 16 -3 20 0 16 10 -3 8 0 17 6 21
6 4 8 3 4 -4 -3 -6 -2 -14 4 -17 8 -5 7 -12 -2 -23 -11 -15 -10 -15 8 0 16 14
23 15 34 5 12 -10 12 -9 2 4 -6 9 -8 20 -4 25 4 4 -1 3 -10 -4 -13 -11 -16
-11 -14 0 2 18 8 20 28 13 10 -4 16 -11 13 -15 -3 -5 0 -12 6 -16 7 -4 9 -3 5
4 -3 6 -2 13 3 16 5 4 13 2 16 -4 5 -8 11 -7 21 1 8 6 14 8 14 4 0 -5 9 0 20
10 11 10 20 14 20 10 0 -4 8 -1 18 8 10 10 22 14 27 10 4 -5 5 -2 1 5 -4 7
-11 10 -16 7 -4 -3 -14 3 -21 12 -12 15 -12 16 1 8 21 -13 52 -13 70 0 17 13
40 14 40 3 0 -5 0 -11 0 -14 0 -4 -8 0 -17 7 -16 13 -17 12 -4 -4 10 -13 17
-15 27 -6 8 6 14 8 14 4 0 -4 6 -2 14 5 8 6 12 18 9 26 -3 10 0 12 10 8 8 -3
18 0 23 7 4 7 3 10 -4 5 -6 -3 -13 -3 -16 2 -3 5 9 8 27 7 18 0 33 -4 35 -8 5
-17 1 -19 -15 -6 -16 13 -17 12 -4 -4 16 -20 36 -9 36 21 0 11 6 16 19 14 16
-3 18 -1 8 10 -9 12 -9 15 3 15 8 0 12 -4 9 -9 -3 -4 0 -8 7 -8 8 0 8 -4 -1
-15 -10 -12 -16 -13 -29 -3 -14 11 -14 11 -4 -3 7 -9 9 -20 5 -25 -4 -5 2 -1
14 9 11 9 24 14 28 10 4 -5 6 -1 4 7 -1 8 2 14 9 13 7 -2 10 4 7 12 -5 11 -2
13 12 8 17 -6 18 -5 4 13 -8 10 -10 16 -5 11 4 -4 16 0 25 8 14 13 17 13 17 0
0 -8 -4 -12 -8 -9 -4 2 -10 1 -12 -4 -3 -4 6 -13 21 -20 17 -8 22 -8 15 -1
-13 13 -6 42 8 33 5 -3 7 -9 4 -14 -3 -4 3 -7 12 -6 10 2 19 8 19 14 1 7 2 17
3 23 0 5 6 7 11 4 6 -4 8 -10 6 -14 -3 -4 6 -7 20 -7 15 0 20 4 15 9 -12 12
-2 39 10 31 5 -3 7 -9 4 -14 -3 -4 3 -7 12 -6 10 2 19 8 19 14 1 7 2 17 3 23
0 5 5 8 11 4 5 -3 7 -13 4 -23 -5 -15 -4 -15 6 1 6 9 15 15 20 12 9 -6 8 14
-2 31 -4 6 -1 11 7 11 8 0 12 -4 9 -9 -3 -4 -1 -8 5 -8 6 0 8 -8 5 -17 -5 -16
-4 -16 6 0 10 15 14 16 28 5 15 -11 15 -11 6 2 -15 20 -14 47 3 47 9 0 10 -4
3 -12 -7 -9 -6 -16 4 -24 11 -9 16 -9 22 0 4 7 3 9 -4 5 -6 -3 -13 -2 -16 3
-3 5 1 12 10 15 12 5 14 10 5 19 -8 10 -7 14 3 14 8 0 13 -8 11 -18 -2 -10 4
-24 13 -31 15 -11 15 -11 6 2 -7 9 -8 23 -3 35 7 18 9 16 13 -14 0 -5 4 -13 8
-16 4 -4 5 5 2 21 -4 28 -3 28 11 10 17 -23 20 -14 5 15 -8 15 -8 19 2 17 7
-2 12 2 11 8 -1 6 5 11 13 11 11 0 11 -4 -3 -19 -10 -12 -12 -18 -4 -18 7 0 9
-5 5 -12 -4 -8 -3 -10 2 -5 5 5 9 12 10 15 0 4 4 15 9 25 7 17 8 17 20 0 7
-10 11 -22 7 -28 -3 -5 4 -2 15 8 11 9 23 14 28 10 4 -5 5 -2 1 5 -6 9 -11 10
-20 3 -13 -11 -26 -5 -26 11 0 5 5 6 10 3 6 -3 13 1 16 9 5 13 9 12 23 -5 16
-20 17 -20 31 -3 14 17 14 18 -2 5 -20 -15 -20 -15 -23 16 -1 12 3 21 9 20 6
-1 10 3 9 9 -1 6 5 11 13 11 10 0 8 -7 -8 -25 l-23 -25 23 12 c21 11 27 8 22
-14 -1 -5 8 -1 19 9 11 10 17 25 15 34 -4 13 -2 13 10 -2 18 -22 21 -14 6 13
-7 15 -5 18 16 17 13 -1 24 -5 24 -9 0 -4 0 -10 0 -13 0 -4 -8 0 -17 7 -16 12
-17 12 -6 -2 7 -9 9 -20 5 -25 -4 -5 3 -1 14 9 15 12 20 25 17 40 -5 22 -5 22
10 2 8 -11 13 -24 10 -29 -4 -5 -1 -6 6 -1 9 5 10 10 2 18 -24 24 -9 29 16 6
20 -17 23 -18 10 -3 -9 11 -17 27 -17 35 0 8 6 4 16 -9 11 -17 19 -20 28 -13
7 6 16 8 19 5 3 -4 4 5 2 19 -5 25 6 30 32 14 6 -4 15 -3 18 3 5 8 12 7 23 -2
15 -12 16 -11 3 5 -10 13 -17 14 -26 7 -13 -11 -27 1 -31 26 -3 18 45 10 61
-11 16 -20 16 -20 6 1 -6 12 -6 26 0 35 6 10 9 10 10 2 3 -28 4 -32 11 -38 4
-4 5 5 2 20 -4 25 -3 27 10 15 9 -7 13 -17 9 -23 -4 -6 -1 -7 6 -2 9 5 10 10
2 18 -6 6 -11 17 -11 25 0 9 7 6 18 -9 13 -15 21 -19 26 -10 5 7 2 10 -5 9 -7
-2 -14 7 -15 19 -1 16 4 20 18 18 10 -2 22 3 25 11 4 12 7 12 18 -3 7 -10 11
-22 7 -28 -3 -5 1 -4 10 2 8 7 17 12 19 10 2 -1 3 0 1 3 -2 3 -9 5 -15 5 -7 0
-12 10 -13 22 -1 17 3 20 22 17 12 -2 26 1 30 7 4 7 3 9 -4 5 -6 -3 -13 -2
-16 3 -4 5 1 8 9 7 23 -3 29 -14 15 -31 -9 -11 -16 -12 -25 -5 -10 8 -15 8
-21 -1 -4 -7 -3 -9 4 -5 6 3 14 2 17 -4 5 -8 11 -8 19 -1 7 6 15 8 19 5 3 -3
4 6 3 19 -2 14 1 31 5 39 7 10 9 10 10 -2 1 -8 1 -20 0 -27 -1 -6 3 -14 9 -18
6 -4 7 1 3 11 -5 13 -3 15 8 9 11 -7 12 -6 3 6 -30 38 1 61 32 23 15 -19 15
-19 5 2 -6 12 -6 26 0 35 6 10 9 10 10 2 3 -28 4 -32 10 -37 8 -9 5 36 -4 51
-4 7 -1 10 10 9 12 -2 18 -11 17 -30 -1 -15 2 -24 5 -20 3 3 7 18 7 32 3 45 4
48 13 33 5 -8 7 -21 3 -30 -3 -9 -2 -13 2 -9 12 10 14 42 4 55 -6 8 -4 11 9 9
20 -3 25 -33 9 -56 -8 -13 -8 -13 4 -2 8 7 16 25 16 40 3 44 4 48 13 34 4 -8
7 -24 5 -38 -1 -13 2 -22 6 -19 5 3 6 13 3 22 -5 12 -3 14 8 8 12 -8 12 -6 0
8 -7 9 -10 17 -6 17 4 0 2 6 -4 14 -10 12 -9 14 6 12 10 -2 18 -10 18 -19 0
-9 7 -22 15 -29 12 -11 12 -11 4 2 -5 8 -9 22 -8 30 1 8 2 22 3 30 1 13 3 13
10 1 5 -8 8 -23 6 -34 -4 -15 -2 -17 10 -7 8 7 13 17 12 23 -1 7 3 11 10 10
23 -5 36 39 20 65 -6 8 -4 12 5 10 7 -2 12 3 10 10 -1 6 4 11 10 10 7 -2 12 2
11 9 -1 6 3 10 10 9 20 -3 37 -16 37 -29 0 -7 -7 -4 -14 6 -12 15 -15 15 -26
2 -9 -11 -9 -15 -1 -15 7 0 9 -5 5 -11 -5 -8 -9 -8 -14 1 -5 9 -9 9 -14 1 -4
-6 -3 -11 3 -11 6 0 9 -6 7 -12 -1 -7 -1 -10 1 -5 3 4 9 5 14 1 5 -3 8 0 7 7
-2 7 3 14 10 15 6 1 15 3 20 4 4 1 10 2 14 1 4 0 4 7 1 16 -4 10 -2 14 4 10 6
-4 10 1 10 11 0 45 3 57 12 44 4 -8 7 -24 5 -38 -1 -13 2 -22 6 -19 5 3 6 13
3 22 -4 11 -3 14 6 9 7 -5 10 -2 9 5 -2 7 3 14 10 15 6 1 15 3 20 4 4 1 11 1
17 0 5 -1 6 2 2 7 -5 4 -14 8 -20 8 -7 0 -13 9 -15 20 -3 16 -1 17 7 5 6 -8
11 -11 11 -6 0 5 10 1 22 -10 13 -10 18 -12 12 -4 -11 16 -11 26 0 52 4 9 5
21 2 27 -7 11 20 8 31 -4 4 -4 3 -5 -3 -2 -6 3 -11 1 -12 -6 0 -7 -3 -23 -6
-35 -4 -20 -3 -22 9 -12 8 6 11 19 8 28 -6 15 -5 15 11 3 15 -12 17 -12 14 0
-2 8 3 13 10 11 6 -1 11 4 10 10 -2 7 4 11 12 10 8 -2 11 0 7 5 -5 4 -14 8
-20 8 -7 0 -12 7 -12 15 0 8 -4 21 -9 29 -6 9 -5 12 2 7 6 -3 13 -2 17 4 4 6
11 8 16 5 5 -4 9 2 10 12 0 12 2 13 6 5 3 -7 -5 -25 -18 -40 -13 -15 -20 -24
-15 -19 5 4 19 -1 30 -10 14 -12 17 -13 10 -3 -13 20 -12 42 3 47 8 3 11 -4 8
-18 -2 -12 -1 -18 3 -15 4 4 7 13 7 19 1 7 6 11 13 10 7 -2 9 4 5 14 -4 11 -3
14 6 9 7 -5 10 -2 9 6 -2 8 6 13 20 12 18 -1 20 1 11 12 -6 8 -15 11 -20 8 -5
-3 -9 1 -9 8 0 11 -2 10 -9 0 -7 -11 -9 -11 -14 2 -4 9 -1 15 6 13 7 -1 11 4
9 11 -1 8 2 11 7 8 5 -4 14 2 20 11 6 10 11 14 11 9 0 -5 -8 -19 -17 -30 -10
-12 -14 -18 -9 -13 5 4 18 -1 28 -10 11 -10 18 -13 17 -8 -2 6 1 21 5 34 6 18
10 21 17 10 6 -9 9 -10 9 -2 0 6 -5 15 -10 18 -5 3 -10 11 -10 17 0 6 10 3 23
-8 12 -10 19 -15 15 -10 -10 12 11 48 23 41 5 -4 8 -1 7 7 -2 7 3 12 10 10 6
-1 11 1 11 5 -1 5 2 23 6 41 5 23 10 29 16 21 4 -7 5 -17 2 -23 -3 -5 -1 -6 6
-2 9 6 8 13 -3 31 -11 16 -12 26 -5 30 7 5 4 15 -8 28 -10 12 -14 19 -9 15 12
-10 38 11 29 25 -4 6 -1 7 7 2 10 -6 12 -4 7 8 -3 9 -2 19 4 22 5 4 7 10 4 15
-3 4 2 13 10 20 8 7 15 9 15 4 0 -5 9 10 20 34 10 23 22 42 25 42 3 0 -2 -14
-10 -30 -9 -17 -13 -35 -10 -40 3 -6 0 -10 -7 -10 -10 0 -10 -2 1 -9 8 -5 9
-11 3 -15 -6 -4 -15 1 -20 10 -6 11 -11 13 -16 5 -4 -6 -1 -14 7 -17 12 -4 10
-10 -9 -31 -13 -14 -21 -30 -17 -36 3 -5 2 -8 -3 -5 -5 4 -9 -6 -9 -21 0 -15
5 -28 11 -28 6 0 9 11 6 25 -3 17 -1 23 7 18 6 -4 8 -12 5 -18 -5 -7 -2 -8 5
-4 7 5 10 10 7 13 -8 8 24 64 33 59 5 -3 8 3 7 14 0 11 4 19 9 19 6 -1 9 -5 7
-11 -1 -5 2 -7 8 -3 7 4 8 11 2 18 -5 7 -8 23 -5 37 3 24 3 24 -11 5 -18 -24
-21 -12 -4 18 6 12 12 36 14 52 1 17 5 43 8 58 5 21 3 27 -5 21 -8 -4 -9 -3
-5 5 4 6 11 9 16 6 4 -3 11 6 14 19 3 13 9 32 13 43 6 15 4 16 -8 6 -13 -10
-16 -10 -16 2 0 8 4 12 8 9 4 -2 13 5 19 16 6 11 15 18 21 15 5 -4 9 1 9 10 0
9 -4 14 -8 11 -5 -3 -8 7 -7 22 1 15 -3 33 -9 41 -8 11 -8 13 1 8 6 -4 13 -2
16 5 2 7 3 5 2 -4 -2 -10 1 -21 6 -24 5 -3 9 6 9 20 0 36 -3 41 -20 40 -11 -1
-16 9 -16 32 0 18 3 31 6 28 3 -3 5 -15 5 -26 0 -12 7 -22 18 -24 9 -1 17 4
17 12 0 9 -4 13 -8 10 -10 -6 -10 -4 -16 74 -4 42 -2 49 5 31 5 -13 12 -22 14
-19 3 3 1 18 -5 33 -8 21 -13 25 -23 16 -10 -8 -14 -7 -14 4 0 8 5 11 10 8 5
-3 7 0 5 8 -3 8 -10 13 -16 12 -11 -3 -11 15 1 34 4 6 3 14 -2 18 -6 3 -7 13
-4 23 6 15 5 16 -13 2 -17 -14 -18 -14 -6 2 8 9 9 19 4 22 -6 3 -8 22 -5 42 3
25 1 34 -6 30 -7 -5 -8 -1 -4 10 4 11 3 15 -5 10 -7 -4 -10 1 -7 13 2 11 -4
30 -14 43 -10 13 -16 29 -13 37 2 8 0 11 -5 8 -6 -4 -10 3 -9 16 1 13 -4 21
-12 19 -8 -1 -11 2 -8 7 3 5 -3 19 -13 32 -10 13 -16 30 -13 38 3 8 0 11 -7 7
-7 -5 -9 -1 -4 10 4 12 3 15 -5 10 -8 -5 -10 -1 -5 11 6 16 5 17 -13 3 -17
-14 -18 -14 -6 1 10 13 10 18 -1 28 -8 6 -17 8 -21 4 -4 -4 -4 1 0 11 5 13 4
17 -4 12 -8 -5 -10 -1 -5 10 4 12 3 15 -5 10 -8 -5 -10 -2 -6 9 4 10 2 15 -7
13 -7 -2 -13 4 -14 12 -1 8 -6 14 -13 12 -7 -1 -11 1 -10 5 2 5 -1 8 -7 8 -5
0 -9 -4 -7 -8 1 -5 -2 -6 -8 -2 -8 5 -8 11 0 20 7 9 6 16 -5 25 -8 7 -15 18
-15 24 0 6 5 4 10 -4 9 -14 14 -7 11 13 -1 5 3 6 9 2 6 -3 7 -11 4 -17 -4 -6
-2 -8 4 -4 6 3 14 1 18 -5 4 -7 3 -9 -4 -5 -6 3 -13 2 -16 -3 -4 -5 -2 -12 3
-15 5 -4 13 -1 16 5 5 7 12 3 22 -10 8 -12 11 -26 7 -33 -4 -6 -3 -8 4 -4 6 3
10 15 9 26 -1 10 -3 17 -6 15 -8 -8 -29 30 -23 40 9 14 12 38 4 30 -4 -4 -7
-11 -7 -16 0 -5 -3 -9 -7 -9 -5 0 -8 3 -7 6 2 12 -54 63 -63 58 -5 -3 -4 -11
1 -18 6 -7 7 -17 3 -22 -4 -4 0 -3 10 4 11 9 18 10 23 2 3 -5 4 -11 1 -11 -3
-1 -9 -2 -13 -3 -19 -3 -33 -18 -27 -28 4 -7 2 -8 -5 -4 -7 5 -9 12 -3 19 10
14 10 27 -1 45 -5 6 -5 18 0 25 13 21 12 36 -5 49 -13 11 -14 11 -7 -2 15 -24
14 -38 -1 -51 -10 -8 -11 -15 -4 -24 7 -8 5 -12 -5 -12 -7 0 -13 5 -12 11 1 6
-4 10 -11 8 -6 -1 -11 1 -10 5 3 15 -25 62 -33 57 -5 -3 -14 6 -20 20 -7 14
-16 23 -21 20 -4 -3 -11 2 -14 10 -3 9 -11 13 -18 9 -6 -4 -6 0 2 9 9 11 10
18 2 23 -5 3 -10 16 -10 28 0 17 -2 19 -9 8 -6 -9 -6 -23 0 -35 9 -20 9 -20
-4 -3 -12 14 -16 52 -7 52 1 0 3 7 5 16 2 11 -4 16 -19 15 -16 -1 -21 5 -20
21 1 13 -2 20 -6 18 -9 -6 -8 -25 3 -43 5 -6 6 -16 2 -21 -3 -5 -1 -12 5 -16
5 -3 10 -12 10 -18 0 -7 -5 -4 -11 6 -9 15 -13 16 -25 6 -8 -7 -14 -8 -13 -3
1 5 1 11 -1 14 -1 3 -3 16 -6 30 -3 19 -2 22 6 10 8 -12 9 -9 6 10 -3 14 -5
27 -6 30 -2 3 -2 8 -1 12 1 9 -28 3 -40 -9 -8 -8 -8 -13 0 -17 6 -4 11 0 11 9
0 9 5 13 11 9 7 -4 7 -10 1 -16 -6 -6 -8 -18 -5 -27 3 -13 2 -12 -7 2 -6 9
-16 15 -21 11 -5 -3 -9 -2 -8 3 4 20 -2 24 -18 12 -9 -8 -14 -9 -10 -3 8 14
-16 37 -28 26 -4 -4 -3 2 3 12 6 12 7 29 2 42 -5 12 -6 24 -3 27 2 3 -3 4 -14
3 -10 -2 -21 2 -25 8 -10 16 -4 -47 7 -64 8 -13 6 -13 -8 -2 -9 8 -15 18 -14
22 1 4 -2 8 -8 8 -5 0 -9 -5 -7 -12 2 -6 0 -7 -5 -3 -4 5 -8 12 -8 15 -1 16
-17 32 -27 26 -6 -4 -6 1 1 14 9 17 7 26 -14 50 -13 16 -22 32 -19 35 3 3 -11
3 -31 1 -19 -1 -33 1 -30 6 3 5 1 11 -5 15 -6 4 -8 11 -4 16 3 5 0 8 -8 7 -7
-2 -12 2 -11 8 1 6 -5 11 -13 11 -11 0 -11 -4 3 -19 9 -11 11 -18 5 -18 -7 0
-12 -4 -12 -9 0 -6 8 -8 18 -6 11 2 18 -3 18 -14 0 -10 -6 -18 -12 -18 -7 0
-10 6 -7 13 5 14 -13 14 -37 0 -12 -7 -13 -6 -2 5 14 15 16 33 3 25 -5 -3 -14
1 -21 9 -7 8 -16 13 -20 10 -4 -3 -13 2 -20 10 -7 8 -16 12 -21 10 -4 -3 -6 4
-4 15 5 28 -22 37 -41 14 -14 -18 -14 -17 -4 4 9 19 8 27 -4 41 -13 14 -13 20
-3 31 10 12 9 12 -4 2 -9 -6 -20 -8 -24 -4 -5 4 -5 1 -1 -5 4 -7 2 -13 -4 -13
-6 0 -8 -5 -4 -11 5 -8 9 -8 14 1 5 9 9 9 14 1 4 -6 2 -11 -5 -11 -9 0 -9 -3
0 -14 9 -11 9 -16 0 -22 -7 -4 -9 -3 -6 3 8 13 -17 36 -27 25 -4 -4 -6 0 -4 8
2 9 -3 14 -12 12 -8 -2 -12 0 -8 4 4 4 -1 19 -12 34 -11 15 -16 31 -12 35 4 5
1 5 -6 1 -7 -4 -9 -12 -6 -18 5 -8 1 -9 -10 -5 -14 6 -17 3 -12 -10 6 -14 5
-15 -5 -6 -10 10 -8 18 12 40 l24 28 -24 -20 c-24 -20 -24 -20 -18 0 7 19 7
19 -8 1 -8 -10 -12 -22 -10 -26 2 -4 -2 -7 -10 -7 -11 0 -12 4 -4 14 8 9 8 17
0 26 -6 8 -7 18 -3 22 4 5 1 5 -6 1 -7 -4 -9 -12 -6 -18 5 -8 1 -9 -10 -5 -14
6 -17 3 -12 -10 6 -14 5 -15 -5 -6 -10 10 -8 18 12 40 l24 28 -24 -20 c-24
-20 -24 -20 -18 0 7 19 7 19 -8 1 -8 -10 -12 -23 -8 -29 3 -6 1 -7 -5 -3 -6 4
-9 13 -6 20 3 8 0 17 -5 21 -6 3 -8 11 -5 17 4 7 2 8 -5 4 -6 -4 -9 -11 -6
-16 3 -5 -4 -8 -15 -7 -19 1 -19 2 3 27 l22 25 -24 -20 c-24 -20 -24 -20 -18
0 7 19 7 19 -8 1 -8 -10 -12 -23 -8 -29 3 -6 1 -7 -5 -3 -6 4 -9 13 -6 20 3 8
0 17 -5 21 -6 3 -8 11 -5 17 4 7 2 8 -5 4 -6 -4 -9 -12 -6 -17 4 -5 1 -9 -6
-9 -8 0 -7 -5 2 -17 13 -16 12 -17 -3 -5 -19 15 -18 33 2 58 13 16 12 16 -11
-1 -15 -11 -25 -23 -23 -27 2 -3 -3 -5 -13 -4 -15 2 -22 18 -25 53 -1 8 -6 8
-19 0 -10 -6 -15 -15 -12 -20 3 -5 9 -3 14 4 6 10 8 7 6 -8 -1 -21 -2 -21 -19
-6 -18 16 -17 17 4 42 13 14 16 20 7 13 -9 -6 -20 -8 -24 -4 -5 4 -6 3 -3 -3
3 -5 -4 -19 -15 -30 l-20 -20 12 22 c14 28 14 36 -1 27 -8 -5 -9 -2 -5 9 3 9
1 19 -5 23 -6 4 -8 3 -4 -4 3 -6 2 -14 -4 -17 -8 -5 -8 -11 -1 -19 8 -9 7 -13
-4 -13 -7 0 -13 5 -12 11 1 6 -3 10 -9 9 -6 -1 -11 3 -12 10 -2 24 -8 47 -15
53 -3 4 -5 -3 -2 -14 2 -13 -1 -21 -8 -19 -7 1 -11 -5 -9 -13 2 -8 0 -11 -4
-7 -8 7 -14 28 -16 54 -1 8 -6 8 -19 0 -10 -6 -15 -15 -12 -20 3 -5 9 -3 14 4
6 10 8 7 6 -8 -1 -21 -2 -21 -20 -5 -11 9 -21 15 -24 14 -3 -2 -8 -1 -11 3 -4
4 0 5 8 3 8 -2 14 3 12 10 -1 8 2 11 7 8 5 -3 15 2 22 12 12 15 12 16 -1 6 -8
-6 -26 -10 -40 -8 -15 2 -20 1 -13 -4 9 -6 7 -11 -7 -19 -16 -11 -18 -10 -14
12 2 13 0 27 -6 30 -6 4 -8 10 -5 15 3 5 1 11 -4 14 -11 7 -9 -13 2 -31 5 -8
3 -13 -3 -13 -6 0 -9 -4 -6 -8 3 -5 -1 -9 -9 -9 -11 0 -12 4 -4 13 7 8 7 14
-1 19 -6 3 -8 10 -6 14 3 4 -1 8 -7 8 -7 0 -14 -9 -14 -19 -1 -11 3 -16 9 -12
7 4 8 2 4 -5 -10 -15 -29 -3 -22 15 3 7 1 16 -5 19 -5 4 -7 10 -4 15 3 5 1 11
-4 14 -5 3 -7 -8 -6 -24 1 -16 -1 -27 -6 -24 -5 3 -7 10 -4 15 4 5 1 9 -4 9
-6 0 -11 -5 -11 -12 0 -6 -3 -9 -6 -5 -3 3 -2 12 2 19 12 19 14 37 4 43 -5 3
-7 -4 -5 -15 3 -14 0 -20 -8 -17 -7 3 -11 9 -10 14 1 5 -4 10 -11 10 -6 0 -13
-9 -13 -19 -1 -10 2 -16 7 -13 5 3 11 1 14 -4 4 -5 -2 -8 -11 -7 -10 2 -19 9
-19 17 -1 8 -3 17 -4 22 -1 4 -3 11 -4 16 -3 25 -13 18 -11 -8 1 -17 -1 -28
-6 -25 -5 3 -7 9 -4 14 3 5 1 11 -5 15 -6 4 -8 10 -5 15 3 5 1 11 -4 14 -5 4
-8 -8 -5 -26 l3 -33 -10 28 c-6 15 -15 24 -20 21 -6 -4 -6 -10 0 -18 8 -9 7
-13 -4 -13 -7 0 -13 5 -12 11 1 6 -3 10 -10 9 -7 -2 -10 4 -7 12 5 11 2 13
-10 9 -9 -3 -13 -11 -9 -17 4 -6 1 -7 -6 -3 -9 6 -8 12 4 26 11 12 13 20 5 25
-6 3 -9 2 -8 -3 2 -6 -1 -10 -7 -11 -5 -1 -10 3 -10 8 0 5 -3 12 -6 16 -4 3
-5 -8 -4 -25 1 -17 0 -28 -4 -25 -6 6 -7 10 -10 36 0 5 -6 7 -11 4 -6 -4 -8
-10 -6 -14 3 -4 -1 -8 -9 -8 -8 0 -13 4 -12 8 1 4 -2 7 -8 7 -5 0 -9 -4 -7 -9
3 -14 -4 -11 -19 8 -8 9 -9 14 -3 10 6 -4 19 2 29 12 15 18 15 19 0 17 -9 -1
-25 -10 -35 -19 -25 -21 -26 -11 -2 17 16 20 16 20 -2 6 -16 -12 -20 -12 -30
2 -9 13 -13 13 -24 2 -12 -14 -12 -15 7 -18 5 0 12 -4 16 -8 6 -5 -19 -4 -35
2 -3 1 -9 2 -14 1 -5 -1 -3 5 4 14 20 24 21 43 1 40 -9 -1 -23 3 -31 9 -13 10
-13 9 -1 -6 9 -13 10 -18 2 -18 -7 0 -9 -5 -5 -12 5 -8 11 -6 20 6 6 9 14 13
17 9 3 -5 -3 -14 -13 -21 -14 -9 -21 -8 -30 4 -10 12 -16 12 -29 2 -14 -12
-14 -11 -2 4 7 10 18 15 25 11 8 -5 8 -3 -1 8 -6 8 -11 18 -11 22 0 5 -3 11
-6 14 -3 3 -4 -4 -1 -15 2 -11 -2 -23 -10 -25 -9 -4 -11 1 -7 16 5 19 4 19
-10 6 -9 -7 -14 -17 -12 -20 2 -3 -3 -6 -11 -6 -12 0 -12 3 -3 15 17 20 18 39
2 39 -10 0 -11 -4 -4 -12 8 -9 6 -14 -5 -19 -9 -3 -13 -2 -10 3 3 5 1 12 -5
16 -6 4 -8 10 -5 15 3 5 0 12 -7 16 -7 4 -10 4 -6 -1 4 -4 2 -15 -5 -23 -6 -9
-7 -13 -1 -9 6 3 11 0 11 -8 0 -13 -3 -13 -17 0 -12 10 -19 12 -27 4 -8 -8
-13 -7 -18 2 -5 7 -4 10 3 5 6 -3 13 -2 17 4 4 6 10 8 14 6 4 -3 8 1 8 8 0 7
-6 13 -13 13 -7 0 -10 -5 -7 -10 3 -5 0 -7 -8 -5 -8 3 -13 11 -11 17 1 7 -2
10 -8 6 -5 -3 -10 -1 -10 6 0 6 -8 3 -17 -8 -10 -10 -17 -17 -16 -14 7 11 -20
29 -35 24 -14 -6 -15 -4 -5 8 10 13 10 16 -1 16 -8 0 -13 -8 -11 -18 2 -10 -1
-21 -6 -25 -5 -3 -9 -2 -8 3 3 20 -2 34 -11 28 -6 -4 -7 -12 -3 -18 3 -7 -3
-4 -14 6 -15 13 -23 15 -28 7 -5 -8 -12 -7 -24 4 -10 9 -21 13 -26 9 -4 -5 -5
-2 -1 5 4 7 11 10 15 8 4 -3 8 2 8 10 0 10 -4 11 -11 4 -17 -17 -29 -11 -15 8
7 9 9 14 4 9 -4 -4 -18 1 -29 10 -21 18 -21 18 -2 -4 13 -15 15 -23 6 -23 -10
0 -10 -3 -1 -14 9 -11 9 -16 -1 -22 -7 -4 -10 -4 -6 1 11 11 -12 36 -25 28 -6
-3 -7 -1 -3 6 4 6 12 8 18 5 7 -4 8 -2 4 4 -4 6 -13 9 -20 6 -8 -3 -17 0 -22
7 -4 7 -3 10 4 5 6 -3 13 -2 16 3 4 5 -2 8 -11 7 -10 -2 -18 -8 -18 -14 0 -6
-3 -13 -7 -16 -5 -3 -6 -3 -3 1 9 12 -16 32 -33 26 -14 -6 -15 -4 -5 8 10 13
10 16 -1 16 -8 0 -13 -8 -11 -18 2 -10 -1 -22 -7 -25 -6 -4 -8 -2 -4 4 3 6 2
13 -4 17 -6 4 -8 10 -5 15 3 4 -3 14 -13 21 -15 12 -15 12 -5 -1 9 -12 8 -20
-4 -35 -15 -20 -15 -20 -8 2 5 18 3 22 -9 17 -9 -3 -14 -10 -11 -14 7 -11 -22
-6 -32 5 -4 4 -3 5 3 2 6 -4 19 2 28 12 13 15 14 18 1 18 -8 0 -11 -5 -8 -10
4 -6 0 -8 -10 -4 -10 4 -21 -1 -27 -11 -9 -14 -10 -14 -5 5 5 18 3 22 -9 17
-9 -3 -14 -10 -11 -14 6 -10 -22 -7 -32 4 -4 4 -1 6 7 4 8 -2 14 3 12 10 -1 8
2 11 7 8 5 -4 12 -2 15 3 7 11 -13 9 -33 -3 -9 -6 -12 -5 -8 1 4 6 -1 17 -11
24 -15 13 -16 12 -4 -3 9 -11 10 -18 2 -23 -6 -3 -7 -11 -4 -17 4 -7 2 -8 -4
-4 -6 4 -9 13 -5 21 4 11 1 13 -13 8 -16 -6 -17 -4 -7 8 10 13 10 16 -2 16 -8
0 -12 -4 -9 -9 4 -5 -2 -8 -12 -6 -12 2 -18 -2 -16 -10 1 -8 -2 -11 -7 -7 -6
3 -8 12 -4 20 4 11 1 13 -13 8 -16 -6 -17 -4 -7 8 10 13 10 16 -2 16 -8 0 -12
-4 -9 -9 3 -4 -1 -8 -8 -9 -7 0 -21 -2 -30 -4 -11 -2 -15 3 -13 16 2 10 -2 22
-8 25 -7 4 -9 4 -5 -1 4 -4 4 -13 -2 -20 -6 -7 -10 -259 -11 -646 -1 -454 -6
-666 -15 -746 -114 -968 -938 -1690 -2414 -2113 -658 -189 -1212 -282 -1840
-311 -726 -33 -1523 72 -2325 306 -703 205 -1240 496 -1633 884 -361 357 -566
780 -612 1266 -5 59 -11 353 -12 654 -3 768 -5 841 -25 841 -13 0 -13 3 -3 15
7 8 10 15 7 15 -3 0 -9 -5 -12 -10z m-3832 -2063 c19 12 36 12 44 1 3 -6 1 -8
-4 -5 -11 7 -42 -21 -41 -38 0 -5 4 -15 9 -22 7 -7 6 -14 -2 -19 -7 -4 -9 -3
-5 4 3 6 2 13 -4 17 -5 3 -10 0 -11 -7 -1 -16 -6 -45 -14 -76 -3 -13 -2 -21 3
-18 5 3 9 -1 9 -9 0 -8 -5 -13 -10 -12 -6 1 -11 -17 -12 -40 -2 -29 1 -41 9
-36 6 3 7 2 3 -3 -5 -5 -13 -9 -18 -9 -5 0 -9 -4 -9 -10 0 -5 4 -10 9 -10 5 0
13 -4 18 -8 4 -5 2 -7 -6 -5 -7 2 -16 -3 -19 -11 -2 -8 0 -11 5 -8 5 3 9 -5 9
-18 0 -13 -4 -21 -8 -19 -5 3 -6 -7 -2 -23 3 -15 6 -36 5 -46 0 -9 4 -15 9
-12 4 3 7 -3 5 -12 -1 -10 3 -25 9 -33 10 -13 9 -13 -6 -1 -19 14 -22 12 -12
-13 3 -9 10 -14 14 -11 4 2 16 -5 26 -18 l19 -22 -22 18 c-23 20 -40 9 -29
-19 3 -8 2 -13 -3 -10 -5 3 -8 -5 -7 -19 1 -26 16 -36 16 -11 0 20 17 29 26
15 4 -8 3 -9 -4 -5 -7 4 -12 1 -12 -9 0 -9 4 -14 9 -10 6 3 8 -6 5 -21 -3 -15
-1 -23 5 -20 6 4 8 -4 5 -20 -3 -14 -1 -23 3 -21 4 3 8 -5 8 -18 0 -13 -3 -21
-7 -18 -10 5 -10 0 -2 -22 5 -13 9 -14 15 -4 10 18 36 20 36 3 0 -11 -3 -11
-16 -1 -12 10 -14 9 -8 -6 4 -11 3 -16 -3 -12 -6 3 -10 -1 -10 -10 0 -9 5 -13
10 -10 12 7 33 -42 24 -56 -3 -5 -1 -9 4 -9 15 0 22 26 9 39 -6 6 -7 11 -3 11
5 0 3 6 -3 13 -8 10 -7 14 3 14 8 0 13 -8 11 -18 -2 -10 0 -21 5 -24 5 -3 6
-13 3 -22 -4 -10 -2 -14 4 -10 6 4 10 -3 9 -16 0 -12 4 -21 11 -20 8 2 10 -4
6 -15 -6 -15 -5 -16 12 -2 17 14 17 14 5 -7 -11 -18 -11 -24 -1 -37 7 -9 17
-14 21 -11 4 3 14 -3 21 -13 13 -15 12 -16 -3 -3 -11 8 -18 9 -18 3 0 -6 5
-14 10 -17 6 -3 10 -16 10 -28 0 -17 2 -19 9 -7 6 8 7 18 4 24 -3 5 -1 6 5 2
7 -4 8 -15 2 -30 -5 -13 -6 -27 -2 -30 3 -4 7 -14 8 -24 2 -15 1 -14 -12 2 -8
11 -14 24 -14 29 0 13 -40 62 -51 62 -5 0 -8 3 -6 6 1 4 -7 16 -17 28 -11 12
-15 21 -11 21 4 0 0 9 -11 21 -10 11 -19 28 -19 37 0 10 -6 16 -15 14 -8 -2
-12 0 -7 4 4 4 0 16 -10 26 -9 10 -13 18 -9 18 3 0 -1 16 -9 37 -8 20 -13 45
-9 55 7 23 -22 71 -38 62 -6 -4 -8 -3 -5 3 4 6 0 16 -8 23 -8 7 -12 16 -9 21
3 5 2 15 -2 21 -11 18 -12 48 -2 54 4 3 1 18 -7 35 -9 16 -12 29 -8 29 4 0 2
5 -4 11 -6 6 -9 18 -6 25 3 8 0 21 -6 28 -7 8 -8 17 -3 20 11 7 10 65 -1 83
-4 6 -3 14 2 17 5 4 8 21 7 39 -2 17 2 40 8 49 7 11 6 21 -2 30 -9 11 -9 17 0
26 7 7 8 12 3 12 -4 0 0 9 10 20 9 10 15 26 12 34 -3 8 1 20 9 26 8 7 14 20
14 30 0 20 13 35 18 21 2 -6 9 -8 15 -4z"/>
<path d="M17815 4000 c2 -12 -2 -23 -10 -26 -12 -5 -11 -12 6 -42 11 -21 31
-52 45 -71 13 -19 23 -39 21 -45 -2 -6 9 -28 25 -48 16 -21 27 -38 23 -38 -4
0 -2 -7 5 -15 7 -9 10 -18 6 -22 -3 -3 1 -14 10 -24 8 -9 17 -23 18 -31 1 -7
8 -23 15 -36 6 -12 10 -36 7 -52 -2 -18 1 -34 10 -41 8 -7 13 -18 10 -24 -2
-7 0 -17 6 -23 6 -6 6 -12 -1 -17 -8 -4 -2 -19 17 -43 29 -38 37 -79 14 -74
-16 3 -10 -51 7 -72 6 -7 12 -21 14 -32 1 -10 5 -23 8 -29 3 -5 5 -22 4 -38
-1 -15 1 -25 4 -22 9 9 8 94 -1 89 -4 -3 -8 2 -8 11 0 10 5 13 13 9 7 -4 9 -3
4 2 -5 5 -14 9 -19 9 -6 0 -13 6 -16 14 -3 8 0 11 7 7 6 -4 10 -4 9 1 -2 4 2
9 7 11 6 1 10 -2 10 -7 0 -5 3 -12 7 -16 8 -8 5 15 -3 30 -4 6 -5 18 -4 28 2
9 -1 15 -6 11 -5 -3 -9 -1 -9 4 0 17 13 22 29 9 14 -11 14 -10 2 5 -7 10 -17
16 -21 13 -13 -8 -24 15 -23 49 0 20 5 30 13 28 10 -2 11 0 2 11 -7 8 -8 18
-4 22 4 5 1 4 -7 0 -11 -6 -13 -4 -8 9 4 10 3 15 -3 11 -6 -3 -10 1 -10 10 0
9 4 14 8 11 5 -3 9 1 9 9 0 8 -4 12 -9 9 -4 -3 -13 7 -18 21 -5 14 -14 23 -20
20 -5 -3 -10 1 -10 10 0 9 3 14 8 12 4 -3 7 5 7 18 0 13 -3 21 -7 18 -5 -2 -8
3 -8 12 0 9 4 14 8 11 5 -3 9 1 9 9 0 11 -3 12 -14 3 -8 -6 -12 -23 -10 -37 2
-14 2 -20 0 -13 -3 7 -8 10 -12 8 -12 -8 -6 31 8 47 8 11 9 17 1 22 -8 5 -7
12 2 23 12 15 11 16 -4 3 -20 -15 -25 -2 -7 16 9 9 8 11 -2 10 -8 -2 -19 -6
-25 -10 -12 -7 -24 1 -24 15 0 5 4 6 10 3 7 -4 7 3 0 19 -5 14 -7 26 -4 26 4
0 2 6 -5 13 -8 10 -7 17 2 27 10 12 9 12 -5 1 -19 -14 -25 -2 -8 15 7 7 6 11
-4 11 -8 0 -15 -3 -14 -6 2 -18 -3 -31 -12 -31 -5 0 -7 6 -4 14 3 8 -2 25 -10
38 -9 14 -13 28 -9 33 5 4 2 4 -6 0 -11 -6 -13 -4 -8 9 5 11 3 15 -5 10 -8 -5
-9 -2 -5 9 6 17 -8 33 -17 19 -3 -5 4 -23 15 -41 11 -18 18 -35 16 -37 -8 -9
-48 77 -40 88 11 19 12 37 3 43 -5 3 -7 -4 -5 -15z"/>
</g>
</svg>
