<?xml version="1.0" standalone="no"?>
<!DOCTYPE svg PUBLIC "-//W3C//DTD SVG 20010904//EN"
 "http://www.w3.org/TR/2001/REC-SVG-20010904/DTD/svg10.dtd">
<svg version="1.0" xmlns="http://www.w3.org/2000/svg"
 width="714.000000pt" height="1264.000000pt" viewBox="0 0 714.000000 1264.000000"
 preserveAspectRatio="xMidYMid meet">
<metadata>
Created by potrace 1.15, written by Peter Selinger 2001-2017
</metadata>
<g transform="translate(0.000000,1264.000000) scale(0.100000,-0.100000)"
fill="#000000" stroke="none">
<path d="M0 6320 l0 -6320 545 0 c480 0 544 2 539 15 -4 9 0 15 10 15 9 0 16
-7 16 -15 0 -13 176 -15 1524 -15 1210 0 1525 3 1529 13 4 10 6 10 6 0 1 -10
305 -13 1486 -13 l1485 0 0 6320 0 6320 -851 0 -852 0 -18 -21 c-10 -12 -21
-30 -24 -40 -4 -11 -13 -19 -21 -19 -8 0 -14 -4 -14 -10 0 -5 -14 -10 -32 -10
-32 0 -81 42 -93 82 -6 17 -56 18 -1320 18 -1241 0 -1315 -1 -1324 -18 -9 -16
-10 -16 -16 1 -7 16 -78 17 -1291 17 l-1284 0 0 -6320z m710 5660 c0 -5 10
-10 23 -10 15 0 29 -9 37 -25 7 -14 17 -25 22 -25 4 0 8 -9 8 -19 0 -11 4 -21
9 -23 14 -5 17 -116 3 -130 -7 -7 -12 -17 -12 -22 0 -21 -48 -66 -69 -66 -11
0 -21 -4 -21 -10 0 -6 -28 -10 -65 -10 -37 0 -65 4 -65 10 0 6 -7 10 -15 10
-21 0 -65 45 -65 65 0 9 -7 18 -15 21 -11 5 -15 22 -15 70 0 50 3 64 15 64 8
0 15 8 15 18 1 22 45 72 64 72 8 0 18 5 21 10 3 6 33 10 66 10 33 0 59 -4 59
-10z m4640 -69 c0 -53 2 -60 21 -63 24 -3 48 -33 36 -45 -4 -4 -17 -2 -27 5
-25 16 -30 15 -30 -3 0 -8 7 -15 15 -15 24 0 54 -36 48 -59 -3 -11 -18 -24
-34 -30 -29 -10 -29 -11 -29 -85 0 -69 -2 -76 -20 -76 -18 0 -20 7 -20 83 0
50 -5 88 -12 95 -8 8 -8 15 2 27 11 13 11 20 0 41 -11 19 -11 27 -2 36 7 7 12
41 12 80 0 61 2 68 20 68 18 0 20 -7 20 -59z m-3990 -21 c20 -20 25 -44 21
-115 -3 -53 -45 -98 -76 -81 -50 28 -55 37 -55 108 0 76 19 108 65 108 14 0
34 -9 45 -20z m2180 -85 l0 -106 -57 3 c-57 3 -58 3 -70 41 -11 31 -10 44 2
73 12 30 18 34 49 34 31 0 36 3 36 23 0 27 7 37 27 37 10 0 13 -24 13 -105z
m2638 45 c1 -30 8 -66 15 -79 9 -19 9 -25 0 -28 -7 -3 -13 -13 -13 -23 0 -10
-6 -20 -14 -23 -16 -6 -36 11 -36 30 0 8 -13 13 -34 13 -19 0 -38 5 -41 10 -6
10 45 109 73 143 29 33 47 17 50 -43z m152 35 c17 -18 23 -36 23 -69 -1 -48
-24 -100 -48 -110 -47 -18 -78 9 -33 29 24 11 38 38 17 34 -8 -2 -26 0 -41 4
-25 7 -28 12 -28 52 0 78 61 112 110 60z m-2332 -47 c5 -7 12 -42 14 -78 3
-57 1 -65 -14 -64 -10 0 -36 1 -58 2 -73 3 -74 81 0 97 41 9 28 25 -15 18 -22
-3 -35 -2 -35 5 0 28 88 44 108 20z m466 -7 c10 -11 16 -30 14 -43 -2 -19 -10
-24 -47 -28 -38 -4 -42 -7 -29 -18 10 -8 26 -10 43 -6 23 6 26 4 23 -12 -5
-26 -73 -32 -99 -8 -24 22 -26 90 -2 116 21 24 75 23 97 -1z m537 2 c8 -9 14
-35 14 -58 0 -53 -18 -75 -61 -75 -31 0 -34 -3 -34 -30 0 -23 -4 -30 -20 -30
-19 0 -20 7 -20 105 l0 105 54 0 c38 0 58 -5 67 -17z m143 1 c11 -10 16 -34
16 -75 l0 -59 -55 0 c-49 0 -57 3 -66 24 -16 34 3 64 46 72 19 3 32 10 29 15
-3 5 -21 7 -40 3 -35 -6 -43 3 -22 24 17 17 74 15 92 -4z m402 8 c18 -12 36
-52 30 -68 -3 -9 -20 -14 -47 -14 -28 0 -39 -4 -36 -12 2 -7 15 -12 28 -11 40
3 53 -5 39 -22 -20 -24 -86 -19 -104 7 -22 31 -20 84 4 108 20 20 65 26 86 12z
m-162 -1087 c18 -19 31 -35 28 -35 -2 0 2 -7 9 -17 10 -11 14 -48 14 -132 0
-153 -4 -167 -54 -176 -29 -5 -38 -11 -34 -21 3 -8 0 -14 -7 -14 -7 0 -19 -8
-26 -17 -13 -17 -15 -17 -25 0 -7 12 -17 16 -30 12 -17 -6 -19 -3 -13 19 4 16
1 33 -7 43 -10 12 -14 51 -14 144 l0 127 33 40 c17 23 32 45 32 49 0 5 14 10
30 11 24 2 38 -6 64 -33z m-159 -401 c9 -14 15 -27 13 -28 -2 -1 -18 -13 -35
-25 -18 -12 -33 -27 -33 -33 0 -6 6 -5 16 3 13 10 19 8 40 -14 25 -27 57 -27
47 -1 -3 9 -12 13 -20 9 -11 -4 -13 -1 -9 11 3 8 6 22 6 30 0 8 5 14 10 14 6
0 10 -6 10 -14 0 -7 9 -16 20 -19 11 -3 20 -13 19 -24 0 -17 -1 -17 -8 1 -5
14 -10 16 -15 8 -4 -7 -4 -17 -1 -22 3 -6 0 -13 -8 -16 -11 -4 -13 -14 -7 -38
4 -19 11 -39 15 -46 5 -8 4 -11 -2 -7 -15 9 -30 -13 -27 -40 0 -13 -3 -23 -7
-23 -5 0 -9 5 -9 10 0 7 -6 7 -17 2 -10 -5 -24 -7 -32 -4 -8 2 -18 -3 -24 -13
-8 -14 -11 -15 -19 -4 -8 11 -9 11 -5 -2 3 -9 -7 -27 -24 -44 -28 -26 -29 -28
-12 -40 15 -12 19 -11 21 1 2 8 8 14 13 14 5 0 9 8 9 17 0 9 3 14 6 10 3 -3 3
-19 -1 -36 -6 -27 -10 -30 -38 -27 -20 1 -39 -4 -52 -15 -25 -22 -44 -12 -47
24 -1 15 -6 27 -10 27 -4 0 -8 7 -8 15 0 8 -4 15 -10 15 -5 0 -10 -7 -10 -15
0 -8 5 -15 10 -15 6 0 10 -4 10 -10 0 -5 -5 -10 -11 -10 -22 0 -55 -35 -51
-55 2 -11 1 -17 -3 -13 -13 12 -14 89 -4 153 6 33 11 69 12 80 2 24 102 147
135 166 12 7 22 18 22 26 0 7 8 13 18 13 9 1 28 7 42 15 35 20 45 19 65 -11z
m181 -1139 c4 -8 17 -15 30 -15 13 0 24 -6 24 -13 0 -6 14 -18 30 -25 23 -11
30 -20 30 -43 0 -19 5 -29 15 -29 12 0 15 -16 15 -80 0 -64 -3 -80 -15 -80
-10 0 -15 -10 -15 -30 0 -20 -5 -30 -15 -30 -8 0 -15 -7 -15 -15 0 -8 -7 -15
-15 -15 -8 0 -15 -4 -15 -10 0 -5 -11 -10 -25 -10 -15 0 -25 -6 -25 -14 0 -19
-22 -26 -86 -26 -42 0 -58 5 -71 20 -10 11 -26 20 -36 20 -20 0 -47 22 -47 38
0 5 -9 12 -20 15 -14 3 -20 14 -20 31 0 14 -4 26 -10 26 -6 0 -10 33 -10 80 0
47 4 80 10 80 6 0 10 14 10 30 0 21 5 30 16 30 18 0 44 23 44 39 0 6 11 11 24
11 13 0 29 7 36 15 9 11 32 15 82 15 52 0 70 -4 74 -15z m-3606 -1866 c0 -5 7
-9 15 -9 8 0 15 -6 15 -14 0 -8 8 -22 18 -32 14 -15 17 -37 17 -146 0 -84 -4
-131 -11 -136 -6 -4 -14 -17 -18 -29 -4 -13 -13 -23 -21 -23 -7 0 -15 -9 -18
-20 -7 -27 -77 -29 -77 -2 0 9 -9 23 -19 29 -11 7 -24 33 -30 60 -13 55 -18
200 -8 210 4 3 7 17 7 29 0 12 7 29 15 38 8 8 15 17 15 21 0 12 26 33 46 37
25 5 54 -2 54 -13z m3550 -2369 c0 -213 -1 -220 -20 -220 -19 0 -20 7 -20 220
0 213 1 220 20 220 19 0 20 -7 20 -220z m-3390 -2697 c6 -27 17 -61 23 -78 6
-16 11 -88 12 -160 0 -128 -8 -182 -45 -310 l-18 -60 -70 -3 -71 -3 -3 88 c-3
83 -4 88 -25 91 -22 3 -23 1 -23 -87 l0 -91 -74 0 -73 0 -21 73 c-54 182 -52
420 3 575 3 9 50 12 188 12 l184 0 13 -47z"/>
</g>
</svg>
